<?xml version="1.0" encoding="utf-8"?>
<!-- Generator: Adobe Illustrator 19.2.1, SVG Export Plug-In . SVG Version: 6.00 Build 0)  -->
<svg version="1.1" id="layer" xmlns="http://www.w3.org/2000/svg" xmlns:xlink="http://www.w3.org/1999/xlink" x="0px" y="0px"
	 viewBox="0 0 652 652" style="enable-background:new 0 0 652 652;" xml:space="preserve">
<style type="text/css">
	.st0{fill:#D10034;}
	.st1{fill:#FFFFFF;}
</style>
<path class="st0" d="M352.3,298.5L352.3,298.5c-24,0-36.5,17-36.5,33.7c0,19.2,15.1,33.7,35.2,33.7c20.7,0,35.8-14.5,35.8-34.5
	C386.7,312.7,371.9,298.5,352.3,298.5 M370.5,334.1c0,16-6.9,26.4-17.6,26.4c-12.1,0-20.8-12.6-20.8-30c0-15.7,7.5-26.6,18.2-26.6
	h0.1C362.6,303.9,370.5,315.7,370.5,334.1 M248,337.7v24.6l-2.6,0.6c-6,1.4-13.5,3.1-20.5,3.1c-23.9,0-39.4-13-39.4-33.1
	c0-23.6,20.4-34.3,39.4-34.3c8.6,0,20.9,3.4,20.9,3.4v15.4c0,0-5.9-13.4-20.5-13.4c-9.8,0-18.6,6.6-21.9,16.5
	c-1.1,3.5-1.7,7.2-1.7,10.8c0,20.4,12.2,29.5,24.2,29.5c1.8,0,4.2-0.3,5.6-1.1c1.4-0.9,2.1-2.6,2.1-5V340c0-8.4-6-10.9-6-10.9h24.7
	C252.4,329.1,248,330.2,248,337.7 M515.5,337.7v24.6l-2.6,0.6c-6,1.4-13.5,3.1-20.5,3.1c-23.9,0-39.4-13-39.4-33.1
	c0-23.6,20.4-34.3,39.4-34.3c8.6,0,20.9,3.4,20.9,3.4v15.4c0,0-5.9-13.4-20.5-13.4c-9.8,0-18.6,6.6-21.9,16.5
	c-1.1,3.5-1.7,7.2-1.7,10.8c0,20.4,12.2,29.5,24.2,29.5c1.8,0,4.2-0.3,5.6-1.1c1.4-0.9,2.1-2.6,2.1-5V340c0-8.4-6-10.9-6-10.9h24.7
	C519.8,329.1,515.5,330.2,515.5,337.7 M289.1,358.8c1.2,0,9.9,0.2,13.2-3.5c3.3-3.7,5.9-9,5.9-9v18h-49.8c0,0,6-2.6,6-14.9l0-34.9
	c0-10-3.9-13.6-5.5-14.6h48.1v16.8c0,0-1.5-4.4-3.9-7.4c-2.4-2.9-5.3-3.9-11.1-3.9h-9.6c-3.5,0-3.5,0-3.5,2.8v20.1h7.9
	c7.5,0,12.1-0.6,13.5-4.1v14.1c-1.4-3.5-6.3-3.9-13.5-3.9h-7.9v15.9c0,4.5,0.3,6.8,2,7.5C282.6,358.7,284.9,358.8,289.1,358.8
	 M427.6,318.6c0,4.9-1.5,8.5-4.6,11.2l0,0c-1.9,1.6-5,2.4-9.7,2.4h-1.9v-23.2c0-1.8,0.2-2.7,0.7-3.1c0.8-0.6,2.2-0.9,4.3-0.9
	C421.8,305,427.6,308.6,427.6,318.6 M440.3,349.9c-2.8-4.7-7.2-11.7-9.3-15.6c4.6-1.9,11.6-6.4,11.6-15.7v0c0-0.5,0.1-0.9,0.1-1.4
	c0-5.6-2.4-10.4-6.8-13.4c-4.1-2.7-9.1-3.8-18.4-3.8H392c1.5,1,5.5,4.6,5.5,14.6l0,34.9c0,12.3-6,14.9-6,14.9h26.1c0,0-6-2.6-6-14.9
	v-12.2h1.4c2.9,0,4.6,1,6.2,3.8c1,1.8,1.9,3.5,2.9,5.2c1.8,3.4,4.2,7.8,5.9,10.4c4,6.2,7.9,8.9,20.3,8.5c0,0,2.1-0.1,3.7-0.2
	C451.8,364.9,447.6,361.9,440.3,349.9 M526.4,364.4c0,0,6-2.6,6-14.9l0-34.9c0-10-3.9-13.6-5.5-14.6h24.9c-1.5,1-5.5,4.6-5.5,14.6
	l0,34.9c0,12.3,6,14.9,6,14.9H526.4z M622.6,364.4c-5.5-3.4-7-6.7-10.2-15c-5.4-13.8-12.7-33.5-18.6-49.1l-0.1-0.4h-6.8l-20.5,49.8
	c-2.3,5.6-6.3,12.3-10.9,14.6h18c-3.9-1.6-3-6.7-1.4-10.7c0.3-0.8,1.6-3.9,3.2-7.9h20.4c1.6,4.5,2.9,8,3.1,8.5
	c1.3,3.6,1.2,6.4-2,10.1H622.6z M577.8,339.5c3.9-9.4,8.3-20,8.3-20s3.8,10.5,7.2,20H577.8z M196.2,273.7v-14.1
	c0-1.3-0.4-1.7-3.6-1.8v-1.9h14.5v1.9c-2.1,0.1-3.3,0.4-3.3,1.8v14.4c0,4.9,2.2,7,6.8,7c1.8,0,3.3-0.5,4.3-1.5
	c1.3-1.3,1.9-3.1,1.9-6.3v-9c0-4-0.9-5.9-4.9-6.3v-1.9h11.4v1.9c-3.8,0.5-3.9,2.3-3.9,6.3v9.7c0,6.4-3.5,10.3-11,10.3
	C200.7,284.1,196.2,281.2,196.2,273.7 M238.3,263.8h-0.3v11.4c0,4.1,0.5,5.9,4.6,6.3v1.9h-11.2v-1.9c3.8-0.4,4.2-2.2,4.2-6.3v-13.5
	c0-2.2-0.8-3.9-4.2-4v-1.9h10l14.5,18h0.3v-9.8c0-4-0.9-5.9-4.9-6.3v-1.9h11.3v1.9c-3.8,0.5-3.9,2.3-3.9,6.3v19.6h-4.3L238.3,263.8z
	 M270.7,281.5c3.1-0.1,3.6-0.5,3.6-1.8v-20.2c0-1.3-0.5-1.7-3.6-1.8v-1.9h14.9v1.9c-3.1,0.1-3.6,0.5-3.6,1.8v20.2
	c0,1.3,0.5,1.7,3.6,1.8v1.9h-14.9V281.5z M297.5,260.5c-0.7-1.8-1.4-2.2-4.1-2.7v-1.9h15.7v1.9c-3.7,0.2-4.2,1-3.7,2.4l6,17h0.4
	l5-14.3c1.3-3.6,1.3-4.5-2.7-5.1v-1.9h10.7v1.9c-2.9,0.6-3.3,1.6-4.6,5.1l-7.9,20.8h-6L297.5,260.5z M331.2,281.5
	c3.1-0.1,3.6-0.5,3.6-1.8v-20.2c0-1.3-0.4-1.7-3.6-1.8v-1.9h24.7l0.4,9.9l-2.3,0.1c-1.6-4.7-3.3-8-8.4-8h-3.2v10.6h0.6
	c2.7,0,3.6-0.4,5.1-4.1h1.9v10.3h-1.9c-1.5-3.7-2.4-4.2-5.1-4.2h-0.6v10.8h2.7c6.2,0,7.9-3.3,9.8-8.7l2.3,0.1l-0.4,10.6h-25.6V281.5
	z M378.8,279.7c0,1.4,1.2,1.7,3.3,1.8v1.9h-14.5v-1.9c3.1-0.1,3.6-0.5,3.6-1.8v-20.2c0-1.3-0.4-1.7-3.6-1.8v-1.9h15
	c8.5,0,11,3.2,11,6.7c0,3.4-1.9,5.9-8.3,6.9v0.1c5.9,0,7.6,2.3,7.9,5.5l0.3,3c0.3,2.8,0.7,3.2,3.7,3.4v1.9c-1.6,0.1-3,0.2-4.3,0.2
	c-6.2,0-7.1-1.6-7.4-4.9l-0.3-3.2c-0.2-4-1.1-4.9-5.4-4.9h-1.1V279.7z M380.5,268.7c4.4,0,5.2-1.4,5.2-5.6c0-3.4-1.2-5.2-5.5-5.2
	h-1.4v10.8H380.5z M406.3,274.3h2.3c2.2,4.6,5.1,7.7,8.6,7.7c3.1,0,4.5-2,4.5-4c0-2.7-1.5-3.8-6.1-5.1c-4.7-1.4-9.1-3.5-9.1-8.6
	c0-5.3,3.9-9,9.9-9c2.2,0,4.5,0.6,5.8,1.3l1.1-1.5h2.2v8.7h-2.3c-2-4-4.4-6.4-7.3-6.4c-2.3,0-3.8,1.5-3.8,3.7c0,2.7,1.6,3.6,6.5,5
	c3.9,1.2,8.2,3.1,8.2,8.3c0,5.1-3.1,9.7-10.4,9.7c-2.3,0-5.1-0.4-6.8-1.3l-1.1,1.5h-2.2V274.3z M435.9,281.5
	c3.1-0.1,3.6-0.5,3.6-1.8v-20.2c0-1.3-0.5-1.7-3.6-1.8v-1.9h14.9v1.9c-3.1,0.1-3.6,0.5-3.6,1.8v20.2c0,1.3,0.5,1.7,3.6,1.8v1.9
	h-14.9V281.5z M466.2,281.5c3.5-0.1,4.2-0.5,4.2-1.8v-21.9h-0.3c-3.1,0-4.9,3-7,8l-2.2-0.1l0.2-9.9h26.3l0.2,9.9l-2.2,0.1
	c-2.1-5.1-3.9-8-7-8h-0.3v21.9c0,1.3,0.7,1.7,4.2,1.8v1.9h-16V281.5z M517.2,262.5c1.9-3.2,1.7-4.4-1.6-4.7v-1.9h10.3v1.9
	c-2.5,0.4-3.4,1.5-5.2,4.3l-5.7,9v8.7c0,1.3,0.5,1.7,3.6,1.8v1.9h-14.9v-1.9c3.1-0.1,3.6-0.5,3.6-1.8V272l-7-11.7
	c-1-1.7-1.7-2.3-4.3-2.6v-1.9h15.2v1.9c-3.6,0.2-3.6,0.9-2.6,2.6l4.7,8.6L517.2,262.5z M546.2,269.7c0-8.8,5.6-14.5,14.2-14.5
	c8.8,0,14.2,5.5,14.2,14.4c0,8.9-5.6,14.5-14.2,14.5C551.6,284.1,546.2,278.6,546.2,269.7 M566.5,269.6c0-9-1.7-12.3-6.2-12.3
	s-5.9,3.4-5.9,12.3c0,9,1.7,12.3,6.2,12.3S566.5,278.6,566.5,269.6 M582.5,281.5c3.1-0.1,3.6-0.5,3.6-1.8v-20.2
	c0-1.3-0.4-1.7-3.6-1.8v-1.9h24.7v9.9l-2.3,0.1c-1.8-5-3.7-8-8.9-8h-2.3v11h0.7c2.7,0,3.6-0.3,5-3.8h1.9v10h-1.9
	c-1.5-3.7-2.3-4.2-5-4.2h-0.7v8.9c0,1.4,0,1.8,3.8,1.9v1.8h-15V281.5z"/>
<path class="st0" d="M41.5,397.4c11.3,7.9,26.9,14.1,43.2,17c16.2-2.9,31.9-9.1,43.2-17c8.6-6.1,18.9-16.2,18.9-29.7v-3.3h-16.3
	v11.7c0,0.3-0.3,0.6-0.6,0.6h-10.7c-0.3,0-0.6-0.3-0.6-0.6v-11.7H90.3v11.7c0,0.3-0.3,0.6-0.6,0.6H79.1c-0.3,0-0.6-0.3-0.6-0.6
	v-11.7H50.3v11.7c0,0.3-0.3,0.6-0.6,0.6H39c-0.3,0-0.6-0.3-0.6-0.6v-11.7H22.6v3.3C22.6,381.2,32.8,391.3,41.5,397.4"/>
<path d="M108.1,256.5c6,5.2,10.1,12.3,11.7,20H49c1.6-7.7,5.7-14.8,11.7-20c6.6-5.7,15-8.8,23.7-8.8
	C93.1,247.6,101.5,250.8,108.1,256.5 M78.4,283.7H50.3c-1.2,0.2-2.2,1.2-2.2,2.5v57.3c0,1.3,0.7,2.5,1.9,3.1
	c0.2,0.1,0.3,0.3,0.3,0.5v14.8l4.4-4.2h23.8v-10.6c0-0.2,0.1-0.4,0.3-0.5c1.2-0.6,1.9-1.8,1.9-3.1v-57.2
	C80.7,285,79.7,283.9,78.4,283.7 M118.5,283.7H90.4c-1.2,0.2-2.2,1.2-2.2,2.5v57.3c0,1.3,0.7,2.5,1.9,3.1c0.2,0.1,0.3,0.3,0.3,0.5
	v14.8l4.4-4.2h23.8v-10.6c0-0.2,0.1-0.4,0.3-0.5c1.2-0.6,1.9-1.8,1.9-3.1v-57.2C120.8,285,119.8,283.9,118.5,283.7 M38.4,347.1
	c0-0.2,0.1-0.4,0.3-0.5c1.2-0.6,1.9-1.8,1.9-3.1v-57.2c0-1.3-1-2.4-2.3-2.6c-0.3,0-0.5-0.3-0.5-0.6v-6c0-0.3,0.3-0.6,0.6-0.6h4.3
	c1.6-9.5,6.6-18.3,13.9-24.7c7.7-6.7,17.5-10.4,27.7-10.4s20,3.7,27.7,10.4c7.3,6.4,12.3,15.1,13.9,24.7h4.3c0.3,0,0.6,0.3,0.6,0.6
	v6c0,0.3-0.2,0.6-0.5,0.6c-1.2,0.2-2.2,1.2-2.3,2.5v57.3c0,1.3,0.7,2.5,1.9,3.1c0.2,0.1,0.3,0.3,0.3,0.5v14.8l4.4-4.2h11.8V228.5
	H22.6v129.2h15.8V347.1z"/>
<path class="st1" d="M65.7,397.7c0,0.8,0.8,1,2.4,1v0.8h-8.3v-0.8c1.6-0.1,2.4-0.2,2.4-1v-8.4c0-0.6-0.1-1-0.4-1.3
	c-0.3-0.3-1-0.5-2-0.5c0,0-0.1,0-0.1,0v-0.8l6-0.4V397.7 M72.7,391.1c0.4-1.6,0.8-2,2.7-2h4.8l-0.1,0.1l-7.1,9.8v0.7h2.8l2.7-5.4
	l3.7-6.6v-1.4H72l-0.1,4.8H72.7z M93.1,392.1c2,0.9,3,2.1,3,3.6c0,2.4-2.3,4.1-5.3,4.1c-3.6,0-5.6-1.2-5.6-3.4c0-1.3,0.9-2.3,2.6-3
	l0.2-0.1l-0.1-0.1c-1.5-0.8-2.2-1.9-2.2-3.2c0-2.5,2-4.1,5.2-4.1c3.4,0,4.9,1.6,4.9,3.2c0,1.2-0.9,2.2-2.6,2.8l-0.2,0.1L93.1,392.1z
	 M90.5,386.8c-1,0-2,0.6-2,1.9c0,1.6,1.7,2.3,3.4,3l0.1,0l0,0c0.7-0.8,1-1.5,1-2.5C93.1,387.7,92.1,386.8,90.5,386.8 M90.9,399
	c1.4,0,2.3-0.8,2.3-2.1c0-1.2-0.9-1.9-3.4-2.7c-0.3-0.1-0.5-0.2-0.7-0.3l-0.1,0l0,0c-0.6,0.7-0.9,1.4-0.9,2.3
	C88,397.5,89.1,399,90.9,399 M105.6,391.5c-1.2,0-2.1,0.2-3.1,0.6l-0.1,0.1l0-0.1l0.2-3.1h7.3l0.2-2.7h-8.7l-0.3,6.6l0.7,0.5
	c1-0.5,1.7-0.8,2.9-0.8c1.8,0,2.8,1.1,2.8,3.1c0,2.2-0.9,3.3-2.8,3.3c-0.6,0-1.6-0.2-1.9-0.5l-0.1-0.1l0.1-0.1c0.5-0.2,1-0.9,1-1.6
	c0-0.9-0.5-1.8-1.7-1.8c-1.1,0-1.9,0.7-1.9,1.8c0,1.9,2,3,5.2,3c3.6,0,5.3-2.3,5.3-4.4C110.6,392.5,108,391.5,105.6,391.5"/>
<path d="M143.1,400.7h-1.5v-1h4.2v1h-1.5v4h-1.1V400.7z M146.8,399.7h1.2l1.3,2.1l1.3-2.1h1.2v5h-1.1v-3.4l-1.4,2.2h-0.1l-1.4-2.2
	v3.4h-1.1V399.7z"/>
</svg>
