<?xml version="1.0" encoding="utf-8"?>
<!-- Generator: Adobe Illustrator 26.0.3, SVG Export Plug-In . SVG Version: 6.00 Build 0)  -->
<svg version="1.0" id="Layer_1" xmlns="http://www.w3.org/2000/svg" xmlns:xlink="http://www.w3.org/1999/xlink" x="0px" y="0px"
	 viewBox="0 0 336 244" style="enable-background:new 0 0 336 244;" xml:space="preserve">
<style type="text/css">
	.st0{fill:#DEDDDE;}
	.st1{fill:#B5142F;}
	.st2{fill:#254AA5;}
	.st3{fill:#9D1128;}
	.st4{fill:#A70625;}
</style>
<g id="layer1">
	<path id="path11406" class="st0" d="M163.4,30.6c20.4-1,40.4,6.4,55.1,20.6c12.7,12.3,22.6,29,24,51.9c0.6,11-1.4,22.1-5.8,32.2
		c-3.8,9.2-8.5,17.1-14.6,23.2c-12.7,13-28.8,22.9-52.4,24c-20.4,1.1-40.4-6.4-55.1-20.6c-6.6-6.3-12-13.7-16.1-21.9
		c-4.9-9.3-7.6-19.5-7.9-30c-0.7-24.3,8.2-42.4,20.2-55.4c8.9-9.9,20.9-17.1,35.9-21.6C152.1,31.6,157.8,30.8,163.4,30.6z
		 M111.1,55.6c-6.1,6.8-11.1,14.6-14.7,23c-0.7,2.3-1.3,4.7-2,7.2c-0.9,2.4-1.6,4.9-2.1,7.5c-4.5,30.1,6.8,53.3,23.3,68.4
		c12.3,11.2,30.8,21.2,54.3,19.8s39-10.9,51.4-23.6c3.2-3.1,6.1-6.6,8.6-10.3c7.2-11.6,12.3-26,11.6-44.4
		c-0.5-10.4-3.2-20.5-7.9-29.7c-1.8-4.2-4.1-8.3-6.8-12c-2.7-3.5-5.7-6.8-8.9-9.9c-13-11.7-30.8-21.3-55.4-19.9
		C138.4,33.3,123,42.6,111.1,55.6"/>
	<path id="path11410" class="st0" d="M190.4,36.7c-15.1,1.1-30.8,0-47.2,0C156.9,31.6,176.8,32,190.4,36.7"/>
	<path id="path11414" class="st0" d="M142.9,37.5C123.4,44,109.7,56.6,101.2,74c0,0.3,1-0.3,1.3,0c0,1,0.3,2.1-0.7,2.1
		c-0.7,0,0-1.8-1-1.8c-2.4,3.8-3.8,8.6-5.2,13.8c1.3,1,3.4,1,5.2,1.3c0-1.3-1.1-1.8-1.4-2.7c0.8-0.6,1.6-1.2,2.4-1.7
		c2.2,1.1,4.7,1.6,7.2,1.3c-0.3,1.5,0.3,3.1,1.4,4.1c-1,0.8-2.4,1.8-3.4,2.4c-3.1-1.1-6.3-1.6-9.6-1.7c-0.4-1.1-0.7-2.1-1.7-2.1
		c-1,1.3-1,3.4-1.3,5.2c-0.4,2-0.8,4.1-1.1,6.1c-1.7,26,8.6,44.1,20.9,57.5c1.5-1,2.8-2.3,3.8-3.7c-0.3-0.8-2,0-3.1-0.4v-2.3
		c2.4-1.4,3.4-2.8,5.2-4.8h4c0,1.3,0.3,2.6,0.8,3.8c-2.8,2.4-5.5,4.5-7.2,8.2c-0.8-0.5-1.8-0.7-2.8-0.7c0.9,1.7,2.2,3.1,3.8,4.1
		c9.9,8.9,23.5,15.1,39.7,17.5c-17.8-1.8-31.6-9.6-42.4-19.2c-8.2-7.5-14.4-17.4-18.9-28.4c-1.3-4.1-2.7-8.8-3.8-13.7
		c-3.4-20.5,3.5-38.6,10.7-50.9c6.8-8.9,14.3-18.5,25-24.3c1.9-1.1,3.8-2,5.8-2.8C137.4,38.8,139.1,37.5,142.9,37.5z M100.8,87.7
		c0.3,3.1,6.5,3.8,7.8,1.4C106.6,88.1,103.2,87,100.8,87.7z M116.9,152.3c0,1,1,1,1.8,1c1.4-1.1,2.7-2.3,3.7-3.8
		c0-0.7-0.1-1.4-0.4-2.1C120.1,148.9,118.4,150.6,116.9,152.3"/>
	<path id="path11418" class="st0" d="M146.7,37.5c13,0.7,29.8-0.4,41,0.7c-0.7,1-2.7,0.7-3.7,0.7c-13.3,0-22.6,0.3-35.3-0.3
		c-0.7,0-2.3,0.3-2.7-0.7C146.3,37.5,146.3,37.5,146.7,37.5"/>
	<path id="path11422" class="st0" d="M191.1,37.8c4.2,0.3,7.2,2,10.3,3.8c3.9,1.8,7.4,4.3,10.6,7.1c15.4,11.7,26.7,29.8,28.5,54
		c0.8,16.6-4,33-13.7,46.5c-4,5.8-8.8,11-14.4,15.4c-2,1.4-4,2.6-6.2,3.7c-4.7,3.2-9.7,5.9-15.1,7.9c-5.8,2.2-11.9,3.4-18.1,3.7
		c1.4-1.1,3.5-0.7,5.2-1.1c4.9-1,9.7-2.3,14.4-4.1c-0.3-1-0.7-2.1-1-3.1c-0.8,0-1.1,0-1.1,0.3c-0.7,0-1,0.3-1,0c-0.3-1.3,1-1,1-2
		c-1-2.8-1-6.2-3.4-7.2c0-1,0.3-1.3,0.3-2c0.8,0.5,1.8,0.7,2.8,0.7c0.4,3.4,1.5,6.7,3.4,9.6c-0.3,1.3-1,2.1-0.7,3.4
		c7.2-2.6,13.9-6.2,19.9-10.9c7-5.9,13-12.8,17.7-20.6c5.5-9.9,10-24.3,9.2-38.9c-0.6-19.4-9-37.8-23.2-50.9
		c-0.3,0.3,0.3,1.3-0.3,1.3h-0.8c-0.7,0-1,0-1-0.3c-0.3-1,0-1,0.7-1c0.4,0.1,0.8-0.1,1.1-0.4C209.3,46.6,201.4,40.9,191.1,37.8"/>
	<path id="path14937" class="st1" d="M223.3,152.3v5.8h22.2v-5.8H223.3z"/>
	<path id="path11426" class="st0" d="M148.3,39.1h0.3c0.5,4.2,0.7,8.4,0.4,12.7c-1.4-0.3-1.1-2.1-1.1-3.1v-8.9
		C148,39.5,148.3,39.5,148.3,39.1"/>
	<path id="path11430" class="st0" d="M199,42.6c-1,0.7-2.1,1-2.7,2.4c0.3,1,1.4,2.1,1.7,3.1c0.7,4.4-3.1,4.4-5.5,5.8
		c-1-0.3-1-1.7-1.8-2.1c-0.7-0.7-0.7,0.7-1.3,0.7c-1.5-0.3-2.5-1.7-2.2-3.3c0-0.2,0.1-0.3,0.1-0.5c1.3-0.6,2.8-0.4,3.8,0.7
		c0-0.3,0-0.3,0.4-0.3c-0.8-2-4.2-3.4-2.4-6.2c1.2,1.5,2.4,2.9,3.7,4.2c1.3-2.1-4.8-3.5-2.4-7.2C194.2,37.8,196.9,40.9,199,42.6z
		 M191.5,40.1c0.3,1.8,4.1,5.5,5.1,3.4C196,41.3,193.8,39.9,191.5,40.1L191.5,40.1z M195.9,51.8c0.7-2.4-1-5.8-2.4-4.1
		c1.1,0.6,1.5,1.9,1,3c-0.1,0.2-0.2,0.3-0.3,0.4c-1-0.3-1-1.8-2.3-2.1c0,0.3,0,0.3-0.3,0.7c0.6,1.1,1.4,2.2,2.3,3.1
		C194.6,52.5,195.3,52.2,195.9,51.8L195.9,51.8z M188,49.7c-1,0.8,0,2.1,1.1,2.4c0.2-0.5,0.6-1,1-1.3
		C189.4,50.5,188.8,49.7,188,49.7"/>
	<path id="path11434" class="st0" d="M160,39.5c0.7,4.1,0.7,8.2,0,12.3c-1-0.3-0.7-2.1-0.7-2.7v-9.6H160"/>
	<path id="path11438" class="st0" d="M167.6,39.5c-0.3,2.4,4.4,1.4,4.4,4.1c-0.4,0.8-1.3,1.1-2.1,0.8c0.4-1.1,1.1-0.8,1.4-0.8
		c-1.8-1.3-6.8-1.3-8.6,0c0,0.4,0.7-0.3,0.7,0.4c-0.3,0.7-1-0.4-1.7,0c0.3-2.1,2.7-2.4,4.4-3.1c0-0.8-0.3-0.8-0.3-1.4
		C166.1,39.1,166.8,39.5,167.6,39.5"/>
	<path id="path11442" class="st0" d="M174.1,39.5c0.9,4.2,1.1,8.5,0.3,12.6c-1-1-0.7-3.1-0.7-4.4v-8.2H174.1"/>
	<path id="path11446" class="st0" d="M172.6,39.5c0.3,3.7,1.1,9.2,0.3,12.3C173,47.4,173,43.6,172.6,39.5"/>
	<path id="path11450" class="st0" d="M175.1,39.5c0.7,2.7,0.3,8.2,0.3,12C174.7,48.4,175.4,43.6,175.1,39.5"/>
	<path id="path11454" class="st0" d="M185,39.5h0.4c0.5,4.2,0.6,8.4,0.3,12.6c-1.4-0.7-0.8-3.4-0.8-5.1c-0.3-2.3-0.4-4.6-0.3-6.9
		C184.7,39.8,185,39.8,185,39.5"/>
	<path id="path11458" class="st0" d="M158.3,39.8c1,3.4,0.3,7.2,0.3,11.7C158,48.4,158.7,43.5,158.3,39.8"/>
	<path id="path11462" class="st0" d="M160.7,39.8h0.4c0,4.5,0.3,7.2-0.4,11.3C161.1,47.4,160.7,43.5,160.7,39.8"/>
	<path id="path11466" class="st0" d="M184,39.8c0.3,2.8,0.3,8.2,0.3,12C183.3,48.4,184,43.6,184,39.8"/>
	<path id="path11470" class="st0" d="M186.4,39.8c0.3,3.4,0.3,8.9,0.3,12C186,48.4,186.4,44.7,186.4,39.8"/>
	<path id="path11474" class="st0" d="M137.1,40.9c0,0.7-0.8,2-1.7,1.3C135.7,41.6,136,40.1,137.1,40.9"/>
	<path id="path11478" class="st0" d="M146.3,42.6c-0.7,0.9-1.3,2-1.8,3.1c0-1,0-1.7,0.7-2.1c-0.7-0.6-1.5-1.1-2.3-1.3
		c0.1,2.5,0.8,4.9,2,7.2c0.3,0,0.7,0.3,1.1,0.3c0,0.8-0.8,1.1-0.8,2.1c-0.6-0.6-1.5-1-2.3-1c0.3-2.8-1.1-4.8-1.8-6.8
		c0.7-1.1,1.3-2.3,1.8-3.5C144.6,40.9,145.3,41.9,146.3,42.6"/>
	<path id="path11482" class="st0" d="M157.6,43.5c-0.3,0.4-0.3-0.7-1-0.7c-1.7,0-3.4-0.3-4.8,0.3c-0.7,0-1,1.1-1.3,0.8
		C151.1,40.9,157.2,39.8,157.6,43.5"/>
	<path id="path11486" class="st0" d="M151.4,44c0.3-0.4,0.3,0.3,0.3,0.7C151.1,44.7,151.1,44,151.4,44"/>
	<path id="path11490" class="st0" d="M135.4,45.6c1,3.1,5.2,5.8,2.4,9.9c-1,0-2.1-0.3-3.4-0.3c-1.4-1.7-2.4-3.8-3.8-5.1
		c0-1.4,0.3-2.4,0.3-3.5c0-0.7-1.1-0.7-2.1-0.7c0-1,0.3-1.3,0.3-2C131.3,44.6,133.3,45,135.4,45.6z M131.9,47
		c0.9,2.6,2.4,4.9,4.4,6.8C136.8,51.5,134.4,46.6,131.9,47"/>
	<path id="path11494" class="st0" d="M203.4,44.3v1c-0.7,0.2-1.3,0.3-2,0.3v-1C202,44.2,202.7,44.1,203.4,44.3"/>
	<path id="path11498" class="st0" d="M144.6,45.6c0.3,0.3,0,1.4,0.7,2.1c0.8,0,0.3-0.7,1.1-0.3c-0.3,0.3-0.3,0.3-0.3,0.7
		C144.9,48,144.3,46.6,144.6,45.6"/>
	<path id="path11502" class="st0" d="M166.1,51.1c-1.3-1-1.3-3.1-3.4-3.8C164.5,45.3,166.5,49.4,166.1,51.1"/>
	<path id="path11506" class="st0" d="M171.3,47c-0.3,0.7-1.4,0.7-1.4,1.7c0.4,0.7,0.8-0.7,1.4-0.7c1,0.7,1,2.8,0.7,4.1h-2.4
		c0.2-0.6,0.6-1.2,1.1-1.7c-0.8-1.1-1.1,1-1.4,1.7c-1.7,0-1.3-2.8,0.3-2.8c-0.7-0.3-1.7,0.3-2,1.1c-0.8,0-0.8-0.8-1.1-1.4
		C168.9,49,168.9,45.6,171.3,47"/>
	<path id="path11510" class="st0" d="M202.1,47c2.1,4.4-3.7,5.1-3.1,9.6c-0.7,0-1,0.3-2.1,0c0-0.8-0.2-1.7-0.7-2.4
		c2.1-1.4,4.8-3.8,3.7-6.5C200.4,47,201.4,47,202.1,47"/>
	<path id="path11514" class="st0" d="M183.3,47.4c-0.3,1.7-2.7,1.3-2.7,3.1c-1,0.3-1.8,1.3-2.8,1.7c-0.3-1,0.7-0.7,0.7-1.3
		c-0.3-1.4-2-1.4-2.4-2.8c1.4-0.7,2.1,1.3,2.8,2.4C180.9,50.1,180.2,46.3,183.3,47.4"/>
	<path id="path11518" class="st0" d="M150.8,47.7c1.8,0.3,2.8,1.7,3.1,3.7c-1-1-1.3-2.4-3.1-2.8C150.8,48.4,150.4,47.7,150.8,47.7"
		/>
	<path id="path11522" class="st0" d="M157.6,48c-0.3,1.3-2,1.7-2.3,3.1c-0.3-1.3,0.5-2.7,1.8-3C157.2,48.1,157.4,48.1,157.6,48"/>
	<path id="path11526" class="st0" d="M165.5,51.8h-1.3c-0.4-0.3-0.4-1-1.1-1.3c0,0.7,0.7,1,0,1.3h-1c-0.7-2.1,0.3-3.4,1.7-3.7
		C164.1,49.7,165.8,49.7,165.5,51.8"/>
	<path id="path11530" class="st0" d="M183,48.7c0.7,1-1.4,2.1-1.4,3.4c-0.7,0-2,0.3-2.4,0c0-1,0.8-0.7,1.4-1
		C181.2,50.1,181.6,49,183,48.7"/>
	<path id="path11534" class="st0" d="M128.2,49.7c0.9,2.3,2.3,4.4,4.1,6.2c0.7,0.3,0.7-0.3,1,0c0,1.1,0.4,1.8,0,2.4
		c-0.9-0.1-1.8-0.3-2.7-0.7c-0.4,0.7,0,2.1,0,2.8c-1.4,0.3-2.1,0-3.5,0c-0.7-2.4-2.8-3.8-4.1-5.5c-0.7,0-0.7,0.3-1.3,0
		c0.3-0.7,0-2.1,0.3-2.7c1,0,1.3,0.7,2.3,0.3c1.1,2.4,2.8,3.7,3.8,5.8c0.7,0,1.3,0.3,1.7,0c0.8-3.1-2-4.1-3.1-6.5
		c-0.3,0-0.3,0.3-1,0.3C125.8,49.7,126.5,48.4,128.2,49.7"/>
	<path id="path11538" class="st0" d="M157.6,49.4v2.1c-0.5,0.3-1.2,0.3-1.7,0C155.9,50.5,156.6,49.6,157.6,49.4"/>
	<path id="path11542" class="st0" d="M150.8,49.7c1.4-0.3,1.4,1.1,2.1,1.8c-0.3,0.3-1.4,0-1.8,0.3C150.8,51.1,150.4,50.1,150.8,49.7
		"/>
	<path id="path11546" class="st0" d="M176.5,49.7c1.7,0,1.3,2.1,0.3,2.4C176.1,51.8,176.1,50.1,176.5,49.7"/>
	<path id="path11550" class="st0" d="M183.3,50.8c-0.3,0.3,0,0.7-0.3,1.3h-0.7C182.3,51.5,182.6,50.8,183.3,50.8"/>
	<path id="path11554" class="st0" d="M204.2,50.8c1.6,0.2,3.2,0.2,4.8,0c0.8,1.7,0.8,4.1,1.4,5.4c-0.3,0.8-0.3-0.3-1.1-0.3
		c-0.7,0.8-1.3,1.4-1,2.8c-0.7-0.7-1,0-1.8,0c0.1,0.9,0,1.9-0.3,2.7c-1.3,1.4-4.1,1-5.4,0s-1.1-2.7-2.4-3.1c0.7-0.3,2,0,2.7-0.3
		c0.3-1,0-1.8,0-2.7C202.1,53.9,203.9,52.8,204.2,50.8z M203.4,57.6c3.1,0,5.2-3.4,3.5-5.8C205.5,53.5,202.4,54.5,203.4,57.6z
		 M201.1,58.6c-0.8,3.7,4.8,3.7,3.4,0C203.8,58,201.8,58.3,201.1,58.6"/>
	<path id="path11558" class="st0" d="M167.9,52.5c-0.5,0-1.1-0.3-1.4-0.7C166.8,50.5,168.6,51.5,167.9,52.5"/>
	<path id="path11562" class="st0" d="M165.1,52.8c0,1.1-1.4,0.8-2.1,0.8c-4.1,0-9.2,0-13-0.3c-1.4,0-3.1,0.7-4.5-0.4
		c0.1-0.4,0.4-0.6,0.8-0.7c5.4,0.3,10.9-0.3,17.1,0.3C164.1,52.5,165.5,51.8,165.1,52.8"/>
	<path id="path11566" class="st0" d="M165.8,52.1c0.8,0.3,1.7,0.6,2.4,1.1c0,1.3-2.1,0-2.4-0.4V52.1"/>
	<path id="path11570" class="st0" d="M187.7,52.8c0,1.8-2.3,1.1-3.7,1.1c-4.4,0-11,0.3-15.1,0c0-0.3-0.3-1.4,0-1.4
		C175.7,52.8,181.2,52.1,187.7,52.8"/>
	<path id="path11574" class="st0" d="M168.6,54.5v1c-1.3-0.3-3.1-0.3-3.1-2C166.5,53.7,167.6,54.1,168.6,54.5"/>
	<path id="path11578" class="st0" d="M189.4,54.5c-0.7,0.7-2.7,0.3-3.1,0.3C187.4,54.6,188.4,54.5,189.4,54.5"/>
	<path id="path11582" class="st0" d="M164.5,55.2c-0.3,1.7-2.7,1-4.2,0.7c-5.4,0-12.3,0.8-18.5,0c-0.3-1,0.3-0.7,1.1-0.7
		c2.3-0.7,6.8-0.3,10.6-0.3C157.2,54.8,160.8,54.9,164.5,55.2"/>
	<path id="path11586" class="st0" d="M165.1,54.9c1,0.7,2.8,0.3,3.4,1.3C167.6,57.3,164.5,57,165.1,54.9"/>
	<path id="path11590" class="st0" d="M191.5,55.9c-0.8,1.1-2.1,0.8-2.7,0.8c-6.2,0-14.4,0-19.9-0.8v-0.3l0.3-0.3
		c5.5,0.3,10.7,0.3,16.8,0.3C187.7,55.5,189.8,55.2,191.5,55.9"/>
	<path id="path11594" class="st0" d="M214.4,55.5c-0.2,1-0.2,2.1,0,3.1c-2.4,1.8-4.4,2.7-5.2,5.8c-0.7,0.3-1.3,0-2,0v-2.7
		c2.4-1,4.8-3.1,4.8-6.2C213.1,55.9,213.4,55.5,214.4,55.5"/>
	<path id="path11598" class="st0" d="M117.9,55.9c1.1,0.3,2.1,1.1,3.8,0.8c1.3,2,2,4.4,4.7,4.7c0.3,0.7,0.3,1.4,0,2.1
		c-0.3,0-1.3-0.3-1.7,0c-0.4,0.7,0,1.7-0.4,2.4c-2.7,1.3-3.4-1.4-5.4-2.1c0-0.7,0.3-0.7,0.3-1.4c-0.9,0.3-2,0.2-2.8-0.4
		C114.8,59.7,117.2,58,117.9,55.9z M117.6,61c0.7,0.3,1.4,0.3,2.1,0C122.7,57.6,114.8,56.6,117.6,61z M120,61.7
		c1,1.1,1.8,3.4,4.1,2.4c0-2.8-2-3.4-3.4-5.2C120.6,59.9,120.4,60.8,120,61.7"/>
	<path id="path11602" class="st0" d="M143.9,57c-3.7,3.3-7.6,6.2-11.6,8.9c-0.3,0.7-0.7,1.3-1.7,1c3.8-3.8,8.2-6.5,12.3-9.9H143.9"
		/>
	<path id="path11606" class="st0" d="M188.4,57c1.7,0,3.1,1.7,4.4,2.8c2.4,2,4.1,3.8,6.2,5.7c1.3,0.8,2.8,1.4,3.1,2.8
		c-2.7-1-4.8-3.4-7.2-5.4C192.6,61.1,190.4,59.1,188.4,57"/>
	<path id="path11610" class="st0" d="M173,63.8c0.4-3.8,2.8-6.5,7.2-5.8c0.7,1,1.3,1.8,1,3.1C180.6,64.1,174.4,61,173,63.8z
		 M179.1,62c3.8-1-0.7-5.8-1.3-1.7c-0.7,0-0.7-0.7-1.8-0.7c-0.7,0.7-2,1.3-1.7,2.3C175.4,60.7,177.8,62.3,179.1,62"/>
	<path id="path11614" class="st0" d="M160.7,65.1c-1-0.7-1.3-2-3.4-2.3c-1.7-0.4-3.4,0.3-4.1-1.4c-0.7-1.3,0.7-2.7,2.1-3.1
		C158.7,57.6,161.4,61.4,160.7,65.1z M153.8,60.4c-0.3,2.4,3.4,1.3,5.2,2.4c1,0.3,0.7,1,1.3,1c0-2.1-1.7-4.1-3.7-2.8
		c0.2-0.6,0.2-1.2,0-1.8C155.6,58.6,153.8,59,153.8,60.4"/>
	<path id="path11618" class="st0" d="M217.8,58.3c1,0.3,2,0.4,3.1,0.3c-2.4,2.7-5.8,4.5-8.2,7.6c0,0.7,0.3,0.7,0.3,1.3
		c-0.9,0.3-1.8,0.4-2.8,0.3c0.7-0.7-0.3-2,0-2.8C213.2,63.2,215.7,60.9,217.8,58.3"/>
	<path id="path11622" class="st0" d="M151.4,59.3c-1,2.1,4.2,8.6-0.3,8.6C147,67.9,148,59.7,151.4,59.3z M150.8,64.4
		c-0.5-0.1-0.9,0.3-1,0.8c0,0.1,0,0.2,0,0.2c-0.3,1.4,0.7,2.1,2,1.4c1.1-2.4-1-4.1-1.3-6.2c-1,0.8-1.1,2.2-0.3,3.2
		C150.3,64.1,150.5,64.3,150.8,64.4"/>
	<path id="path11626" class="st0" d="M183.3,59.7c3.1,2,2.8,10.6-2.4,9.2C177.5,65.1,184.3,64.1,183.3,59.7z M180.6,65.9
		c-1,4.4,5.8,2,2.4-0.4c0.3,0,0.3,0.4,1,0.4c0.9-1.3,0.8-3-0.3-4.2C184.3,63.5,180.9,64.4,180.6,65.9"/>
	<path id="path11630" class="st0" d="M224.3,62.8c-2.3,3.1-6.5,4.1-8.9,7.2v1.3h-2c-0.3-1,0-1.7,0-2.8c2.8-2,5.8-3.7,8.2-6.2
		C222.4,62.7,223.4,62.9,224.3,62.8"/>
	<path id="path11634" class="st0" d="M179.9,70.3c-3.4,0.3-7.2-2.1-6.2-4.8c0.3-2,3.8-1.7,4.4,0C178.5,67.5,178.1,69.3,179.9,70.3z
		 M175,67.2c0.7,0.3,1-0.3,1,0s-0.3,0.7,0,1.3c0.3,0.7,1.1,1.1,2.4,1.1c-1-1.4-0.7-3.7-2-4.8C174.4,64.1,173.7,66.5,175,67.2"/>
	<path id="path11638" class="st0" d="M159,68.2c-1,2.1-4.8,3.1-7.2,1.8c1.4-1,3.2-2.1,3.5-4.5C156.9,64.1,160,64.8,159,68.2z
		 M158.3,65.9c-3.1-1.4-3.4,3.1-5.5,4.1c1.3,0.3,3.1,0,3.4-1c0.3-0.4-0.7-0.8,0-1.1c0.7,0,0.7,0.3,1.3,0.3c0.8-0.2,1.2-1,1-1.8
		C158.6,66.2,158.5,66,158.3,65.9"/>
	<path id="path11642" class="st0" d="M105.9,66.9c0.4,0,0,0.3,0.4,0.3c-0.4,1.3-2.1,2.8-0.8,3.8c0.8,0,1.1-0.7,1.8-1
		c2.4,1,4.7,4.1,8.2,3.1c0.3,0.9,0.8,1.7,1.3,2.4c-1.1,0-2.1,0.3-3.1,0.7c-2.4-2-5.2-3.4-8.2-4.2c-0.3-0.7-1-1.3-1.3-2
		C104.6,68.5,105.6,68.2,105.9,66.9"/>
	<path id="path11646" class="st0" d="M135,72.7h-12c-0.3-1.1,1.3-1.7,2.4-2.7c1.2-0.9,2.4-2,3.4-3.1C131.2,68.5,132.9,70.6,135,72.7
		"/>
	<path id="path11650" class="st0" d="M209.7,72.3c-3.8,0-6.9,0.3-10.3,0c-0.3-0.4,1.4-1.8,2.1-2.4c1-1,2.4-1.8,2.7-2.8
		C206.5,68.5,207.9,70.6,209.7,72.3"/>
	<path id="path11654" class="st0" d="M224.7,67.5c-0.4,0.9-0.6,1.8-0.7,2.8c-0.7,1.3-6.2,2.4-5.8,4.4c0.8,2.1,6.5-1,7.2-2.8
		c0.7-0.3,1.3,0,2.3,0c-0.3,1.1-1,1.4-1,2.4c-2.8,1.1-5.8,1.8-6.8,4.5c-0.6-0.1-1.2-0.2-1.8-0.3c0-1.1,0.3-1.4,0.3-2.4
		c-0.3-0.7-1.7-0.3-2.3-0.7c0-1.4,0.3-1.8,0.3-3.1c1.7-1.8,5.5-1.4,5.5-4.8C223,67.2,223.3,67.5,224.7,67.5"/>
	<path id="path11658" class="st0" d="M166.8,68.9c2.4,2.7,6.2,3.7,8.9,6.1c0,0.4,0.3,0.8,0.3,1.4c2.8-1.8,7.9,0.3,7.6,3.7
		c-1-3.1-5.5-5.2-7.9-2.1C176.8,72.3,167.9,73.3,166.8,68.9"/>
	<path id="path11662" class="st0" d="M134.7,73.7c-3.1,0.7-8.2,0.3-11.7,0C125.4,73,131.3,73,134.7,73.7"/>
	<path id="path11666" class="st0" d="M210.7,73.3c-3.9,0.3-7.8,0.3-11.6,0C203.9,73.3,206.5,72.7,210.7,73.3"/>
	<path id="path11670" class="st0" d="M204.2,74c0.3,2.8,0.4,5.7,0.3,8.6c-1.3,0-2.5,0.1-3.8,0.3c-0.3-3-0.5-5.9-0.4-8.9H204.2z
		 M201.1,75c0,2.8-0.3,4.8,0.3,7.2c0.7-0.3,1.7,0,2.4-0.3c0-2.4,0.3-4.8-0.4-6.9C202.8,74.7,201.8,75,201.1,75"/>
	<path id="path11674" class="st0" d="M209.7,74.3c0.3,2.7,0,5.8,0.3,8.2c-1.4,0.2-2.8,0.2-4.2,0c0-3.1-0.3-6.2,0-8.6
		C207.1,74,208.4,74.1,209.7,74.3z M206.2,75c0.3,2.4-0.3,5.2,0.8,6.9c0.3-1.8-0.4-4.8,0-6.9c0,2.8,0.3,4.2,0.3,7.2h2
		c0.3-2.5,0.2-5.1-0.3-7.6C208,74.5,207,74.6,206.2,75"/>
	<path id="path11678" class="st0" d="M113.1,77.1c0.7,0.3,1,1.4,1.3,2.4c-1,0-2,0-2.4,0.7c-2.3-1-4.1-3.4-6.8-2.4
		c-0.3-1-1.3-1.7-1.3-2.8c0.7-0.3,1.3-0.3,2-0.7c1.8,1.5,3.9,2.7,6.2,3.4C112.8,77.8,113.1,77.4,113.1,77.1"/>
	<path id="path11682" class="st0" d="M133.3,74.7c0,2.4,0.4,4.8,0.4,7.6c-1.1,0-2.8,0.3-3.8,0c-0.2-2.5-0.2-5,0-7.6
		C131,74.4,132.2,74.4,133.3,74.7z M130.6,75c-0.4,2.1,0,4.8,0,6.9c1,0,1.7-0.3,2.3-0.3c0.1-2.2,0-4.4-0.3-6.6
		C132.3,74.7,131.3,75,130.6,75"/>
	<path id="path11686" class="st0" d="M199.7,74.3c0.7,2.4,0.3,5.8,0.3,8.2C199.4,81.2,200,77.4,199.7,74.3"/>
	<path id="path11690" class="st0" d="M204.9,74.3c0.7,2.1,0.3,5.8,0.3,8.2C204.5,80.5,204.9,76.8,204.9,74.3"/>
	<path id="path11694" class="st0" d="M124.4,74.3c1.3-0.1,2.6,0,3.8,0.3v7.6h-3.8C124.8,79.5,124,76.8,124.4,74.3z M125.1,75
		c-0.3,1.8,0,4.8,0,6.6c0.7,0.3,2,0,2.8,0c0.1-2.2,0-4.4-0.3-6.6C127.1,74.7,125.8,75,125.1,75"/>
	<path id="path11698" class="st0" d="M128.9,74.3c0.2,0,0.3,0.1,0.3,0.3c0,0,0,0,0,0c-0.3,2.8,1,6.2-0.3,7.6
		C128.5,79.6,128.5,77,128.9,74.3"/>
	<path id="path11702" class="st0" d="M210.7,82.6c-0.7-2.1-0.3-5.5-0.3-7.9"/>
	<path id="path11706" class="st0" d="M123.7,74.7c0.7,1.8,0.3,5.5,0.3,7.6C123,80.5,123.7,76.1,123.7,74.7"/>
	<path id="path11710" class="st0" d="M134,74.7c0.7,1.8,0.3,5.5,0.3,7.6C133.7,80.2,134.3,77.4,134,74.7"/>
	<path id="path11714" class="st0" d="M229.8,76.4c-0.3,1-1,1.3-1,2.4c0.3,1,1.7,0.7,2.7,1.3c-0.3,1-1.1,1.4-1.4,2.4
		c0.3,1,1.8,1,2.4,1.7c0.3,0.8-0.7,1.8-1,2.8c-2.7,0.3-5.8,0.7-6.5,3.1c-0.7-0.4-1.6-0.6-2.4-0.7c0.7-3.7,6.5-2.4,7.8-5.5
		c-2.3-1.7-6.2,0.3-7.5,2.1c-0.7,0-1.5-0.2-2.1-0.7c0.7-3.7,6.8-2.1,8.2-5.2c-1-1.7-2.1-0.7-3.8,0c-1.7,0.7-3.4,0.3-4.2,2.1
		c-0.7,0-1-0.3-1.7-0.3c0.3-0.8,0.6-1.6,1-2.4c2.4-0.7,5.8-1.4,6.8-3.4C228.2,76,229.1,76.1,229.8,76.4"/>
	<path id="path11718" class="st0" d="M165.5,80.2c-2.4,0.5-4.3,2.4-4.8,4.8c-1.4,0.3-2.9,0-4.1-0.8c0-3.7,4.1-6.5,6.8-7.8
		C164.8,75.8,165.1,78.5,165.5,80.2"/>
	<path id="path11722" class="st0" d="M176.5,83.9c-0.8,0.7-2.4,0.7-3.8,1.1c-1-2.1-2-4.2-4.7-4.8c0-1.7,0.7-2.4,1-3.4
		C173.4,77.4,175.4,80.2,176.5,83.9"/>
	<path id="path11726" class="st0" d="M201.4,76.8c0.7,1,0.3,2.4,0.3,3.8c0,0.7-0.3,0.3-0.3,0V76.8"/>
	<path id="path11730" class="st0" d="M104.9,78.8c-0.3,0.7-1,0.7-1.3,1.3c0.7,1,4.8,3.1,6.2,2.4c0.3-0.3,1-0.7,1-1.4
		c0.8,0.8,1.4,1.7,1.8,2.8c-1.1,0.1-2.1,0.6-2.8,1.4c-1.8-1.1-5.8-3.4-7.2-1.4c-0.6-0.7-1.1-1.5-1.3-2.3c0.7-0.4,1.4-0.8,2.1-1.1
		c0-1-0.8-1.3-0.8-2C103.2,77.1,104.9,77.1,104.9,78.8"/>
	<path id="path11734" class="st0" d="M167.6,82.9c-1.1,0,0,1.7-1.4,1.7c0,0.4,0.7,0,1.1,0c-0.8,0.8-2.1,0.4-2.1-0.3
		c-1,1.1-3.4,1.4-4.8,2.8c0.3,0.3,1.1-0.7,1.4-0.7c0.3,0.7-1.1,1.3-1.1,2.4c-0.7,0-0.3-1.1-1-1.1c0.3-1,0.9-1.8,1.7-2.3
		c-0.3-6.8,11.2-5.8,10.2,0c1,0.7,2.1,1.3,1.8,3.1c-0.4,0-0.4-0.8-0.4-1.1c-1-1.3-3.1-1.3-4.4-2.3C168.6,83.9,168.6,83.2,167.6,82.9
		z M170.6,85c-0.3-0.4-1.1-0.4-1.7-0.8c0.3,0.8,1.7,1.1,2.4,1.1c0-0.8,0-1.1-0.3-1.1C171,84.2,171,85,170.6,85"/>
	<path id="path11738" class="st0" d="M182.3,80.8c1,0.3,3.4-0.7,4.1,0.8c-0.7,0.7-3.4,0.3-4.1,0V80.8"/>
	<path id="path11742" class="st0" d="M186.4,82.9c-1.8-0.3-2.4,0.3-3.1-0.3C183.3,81.9,186,82.2,186.4,82.9"/>
	<path id="path11746" class="st0" d="M150.1,82.6c-0.3,0.7-3.4,1.3-3.1,0C147.7,82.2,149.4,81.9,150.1,82.6"/>
	<path id="path11750" class="st0" d="M135.4,83.2c-1.7,0.3-3.4,0-5.5,0c-2.3,0-5.1,0.7-7.5,0c1-0.7,2.8-0.3,3.8-0.3
		C129.2,82.6,132.9,82.2,135.4,83.2"/>
	<path id="path11754" class="st0" d="M167.9,83.2v1c-0.3-0.3-0.3-0.7-0.7-1C167.6,82.9,167.6,83.2,167.9,83.2"/>
	<path id="path11758" class="st0" d="M212.3,83.6c-4.1,0.7-9.9,0-14.6,0.3v-0.7h0.3C202.4,83.2,207.9,82.6,212.3,83.6"/>
	<path id="path11762" class="st0" d="M154.9,83.6c-0.8,1-3.5,0.3-4.5,0.3v-0.3C151.4,83.2,154.2,82.9,154.9,83.6"/>
	<path id="path11766" class="st0" d="M150.1,83.6c0.3,2.1,2.4,2.4,4.8,2.7c-0.4,0.7,0,1,0,2.1c-1.6-0.7-3.1-1.6-4.5-2.7
		c-0.3,0-0.3,0.3-0.7,0.3c0,1,0.7,1.3,1.3,2.1c0.3-0.8-1-1.4-1-2.1c1.7,2.1,5.2,1.7,5.8,4.7c-0.7-1.3-3.1-1.3-4.2-0.7
		c-1.7-0.7-1.7-2.8-2.7-4.1c-0.8,1.7,0.7,4.7,0,6.8c-0.4,0-0.8,0.3-1.1,0c-0.3-2.7,0.3-6.5-1-8.2c0.6-0.1,1.2,0.1,1.7,0.4
		c0.4-0.4-1-0.4-1-1.1C148,83.6,149.1,83.6,150.1,83.6"/>
	<path id="path11770" class="st0" d="M137.8,83.9c0.3,2.1-3.4,1.1-4.8,1.1c-1.7,0-3.7,0.3-5.1,0.3c-0.3,0,0,0.3,0,1
		c-1.4,0-1.8-0.3-2.1-1c-0.7,5.8,0.7,13-0.7,17.4c0-5.4-0.3-11.6,0-17.4c-0.3-0.3-1.4,0-2.1,0c0.3,0.3,1.8-0.3,1.3,0.7
		c-0.3,0.7-1.7,0-2.3,0.3v4.4c0.3,0.4,1.7,0,2.3,0c-0.7,1.1,0,1.4,0,2.8c-0.3,0-0.7,0.3-1,0.8c0-0.4-0.3-0.8-1-1.1
		c0-0.7,0.7-1,0.7-1.3s-0.3-0.3-0.7-0.7c-0.7,3.4,0,6.2-0.3,8.8c0,0.8,0.3,2.1-0.8,2.8V85.7c-0.3-0.7-1.3-0.3-1.3-1.1
		c1.8-1.3,6.2-0.7,8.2-0.7C131.4,83.8,134.6,83.8,137.8,83.9"/>
	<path id="path11774" class="st0" d="M129.2,85.3c0,0.3,0.3,0.3,0.3,0.7c-0.4,0.3-1,0.3-1.3,0C128.2,85.3,128.5,85.3,129.2,85.3"/>
	<path id="path11778" class="st0" d="M130.9,85.3c0,0.3,0.3,0.3,0.3,0.7c-0.4,0.3-1,0.3-1.4,0v-0.3
		C129.9,85.3,130.6,85.3,130.9,85.3"/>
	<path id="path11782" class="st0" d="M131.6,85.3h0.7c0,5.8,0.3,12,0,17.1c-1-0.3-0.7-1.7-0.7-2.7V85.3"/>
	<path id="path11786" class="st0" d="M134.7,85.3v0.3c0,0.7-0.3,0.7-1,0.7v-0.7C133.7,85.3,134.4,85.3,134.7,85.3"/>
	<path id="path11790" class="st0" d="M135,85.3c0.7,0,0.3,0.3,0.3,1C135,86.3,135,85.7,135,85.3"/>
	<path id="path11794" class="st0" d="M132.9,101.7c-0.3-1,0.8-1.8,0.8-2.8c-2.1-1.3,0.3-2.4,0.3-4.7c0-0.4-1.1,0-1.1-0.8
		c-0.3-1,0.3-1,0.8-1.3c0-0.7-1.1-0.3-0.8-1c0.8,0,1.1-0.8,1.1-1.8c0-0.7-1.1-0.3-1.1-0.7c0-1.4,1.1-1.4,0-2.1c0.8,0,1.8-0.3,2.4,0
		C135,87,135,87,134.7,87c0,0.7,0.7,0.3,0.7,1.4c0.3,0.7-1,0.3-1,1c0,0.3,0.3,0.7,0,1.3c0,0.4,1,0,1,0.4c0.3,0.7-0.3,0.3-0.7,0.7
		c0.3,0.7,1,0.7,1,1.7c-0.3,0.3-1.3,0.3-1.3,0.8c0,0.7,0.3,0.7,0,1.3c3.1-1,0.7-7.2,1.7-10.2c0.8,0,0.8,1,0.8,1.3
		c0.3,2.1-0.4,4.8-0.4,7.6c3.8-2.1,6.9-4.8,10.7-6.9c-0.3,1.4-2.1,2.1-3.1,2.8c-3.4,2.7-7.2,5.2-10.7,7.9c4.8-2.4,8.9-6.5,13.7-8.6
		v3.8c-1,1.1-2.4,1.7-3.1,3.1c1,2.1,3.1,3.4,3.1,6.2c-0.7,6.2,0.3,15.1,0,22.2c-0.3,6.5-0.3,14.1-0.3,20.2c-1.2,0.3-2.5,0.3-3.7,0
		c-0.8-12.7,1-28,0-40.4c-0.4-3.8-1.4-7.2-6.2-6.5c-0.8,1.3,0.3,3.4-0.8,4.8L132.9,101.7z M134.7,98c0,1.3,1,2.8,1,3.4
		c0-1.1,0.3-3.1,0-3.4C135.7,98.3,135,98,134.7,98"/>
	<path id="path11798" class="st0" d="M132.9,85.7c0.3-0.3,0.3,0.3,0.3,0.7C132.9,86.3,132.9,86,132.9,85.7"/>
	<path id="path11802" class="st0" d="M199.7,86.7c-0.4,0-0.7-0.3-0.7-0.7C199.7,85.7,200,85.7,199.7,86.7"/>
	<path id="path11806" class="st0" d="M200.4,85.7c0.4,0,0.7,0.3,0.8,0.7c-0.3,0-0.3,0.3-0.8,0.3V85.7"/>
	<path id="path11810" class="st0" d="M202.4,85.7c0.3,0.3,1-0.3,1.4,0.3v0.7h-1.7C202.1,86,202.4,86,202.4,85.7"/>
	<path id="path11814" class="st0" d="M208.9,85.7c0.8,0,0.8,0.7,0.3,1C208.9,86.7,208.9,86,208.9,85.7"/>
	<path id="path11818" class="st0" d="M211.7,86.3c-0.3,0-0.7,0-0.7-0.3C211.3,85.7,212,85.7,211.7,86.3"/>
	<path id="path11822" class="st0" d="M198,86c0.7-0.3,0.7,0.3,0.7,0.7C198,86.7,198,86.3,198,86"/>
	<path id="path11826" class="st0" d="M205.5,86c0.3,0.7-1,0.7-1.3,0.3C204.2,85.7,205.2,86,205.5,86"/>
	<path id="path11830" class="st0" d="M207.6,86c0,0.3-1.4,0.7-1.4,0.3C206.2,85.7,207.6,85.7,207.6,86"/>
	<path id="path11834" class="st0" d="M210,86h0.7v0.7C210.3,86.7,209.7,86.3,210,86"/>
	<path id="path11838" class="st0" d="M122.4,87c0.3-0.7,1.3-0.3,1.7-0.3c-0.3,0.7,0,1,0.3,1.4c0,1-1.3,1-0.7,2.3
		c-0.7-0.3-0.3-1.7-1.3-1.7C122,87.7,123.4,87.3,122.4,87"/>
	<path id="path11842" class="st0" d="M171.3,86.7c1.7,0,1.7,3.4-0.3,3.1c0-0.3-0.3-0.7,0-1c0.3,0,0.3,0.3,0.3,0.7
		C172.6,88.7,172,87.3,171.3,86.7"/>
	<path id="path11846" class="st0" d="M201.1,87c0,0.7-0.8,0-1.1,0.7c0.3,0.4,1.1,0.4,1.1,1.1s-0.8,0.3-1.4,0.7
		c0,0.3,0.3,1.3-0.3,1.3c0-0.9-0.5-1.7-1.3-2c0-0.4,0.3-0.7,0.6-0.7c0,0,0,0,0,0c0-0.4,0-0.8-0.7-0.8
		C198.9,86.7,200.1,86.6,201.1,87"/>
	<path id="path11850" class="st0" d="M161.7,87c1,0.7-0.3,1.4,0.7,1.8c0,0.3-0.7,0.3-1,0.3C160.7,88.4,161.4,87.3,161.7,87"/>
	<path id="path11854" class="st0" d="M171.6,87.3c-0.3,0.3,0.7,0.8,0,1.1c-0.3-0.3-0.3-0.8-0.7-1.1H171.6"/>
	<path id="path11858" class="st0" d="M159.3,87.7c0.3,1.4,1.3,1.8,2.4,2.1c0,0.7,0.7,0.7,0.3,1c-0.7,1.1-1,2.1-2.1,2.4
		c-1.7-0.8-2.9-2.5-3.1-4.4C157.2,88.1,158,87.7,159.3,87.7"/>
	<path id="path11862" class="st0" d="M230.8,88.4c0.6-0.2,1.3,0.1,1.5,0.7c0.1,0.3,0.1,0.6-0.1,0.9h-1
		C230.5,89.7,230.5,89.1,230.8,88.4"/>
	<path id="path11866" class="st0" d="M149.8,89.1c0.6,0.3,1.1,0.7,1.3,1.3c-0.3,0.8-0.7,1.1-1,1.1C149.8,90.7,149.7,89.9,149.8,89.1
		"/>
	<path id="path11870" class="st0" d="M228.5,90.7c-0.3,0-0.3,0.4-0.3,0.4c-0.8,0.7-1.4,0.7-1.8,0C225.7,89.4,228.5,89.4,228.5,90.7"
		/>
	<path id="path11874" class="st0" d="M149.4,93.2c1-1.3,2.3-2.3,3.8-3.1c1.1,1.5,2,3.1,2.7,4.8c-0.7,0.3-1.4,1-2.1,1.3
		C152.2,95.6,149.8,95.2,149.4,93.2"/>
	<path id="path11878" class="st0" d="M154.2,90.1c1.4,1.3,2.5,3,3.1,4.8c-0.9,1-1.9,1.8-3.1,2.4c-0.3-1.4,1.8-1.4,2.4-2.8
		C155.9,93.2,154.5,92.2,154.2,90.1"/>
	<path id="path11882" class="st0" d="M203.1,91.2c0.3-0.4,1.1,0.3,1.1,0.3c0,1-0.8,1.3-1.1,2c-0.7,0-1-0.3-1-1.3c0.7,0.3,1,0,1.3,0
		C203.9,91.5,203.4,91.5,203.1,91.2"/>
	<path id="path11886" class="st0" d="M205.9,91.2h1.1c0,0.3-0.4,0.7-1.1,0.7V91.2"/>
	<path id="path11890" class="st0" d="M171.3,91.8c-1,1.3-2.4,2.4-3.4,3.7c1-0.3,2-2.4,3.4-2.8c0.6,0.3,1.2,0.6,1.7,1
		c-2,2.1-3.7,4.2-4.1,7.2c-1.7,0.7-2.7-0.8-2.1-2.1c0.4,0,1.1-0.3,1.8-0.3c0.3-1.3-0.7-1-0.7-2.4c-0.7,0.3-0.3,1.1-1.1,0.7
		C167.2,94.9,168.9,91.2,171.3,91.8"/>
	<path id="path11894" class="st0" d="M235,92.5c-0.7,3.8-7.9,0.3-9.2,3.8c1.7,2.1,6.2,1.1,8.1-0.3c0.6,0.2,1.2,0.6,1.8,1
		c-0.3,0.8-1.3,1.4-1.8,2.1c-1.7-0.3-4.4,0-6.2,0c-0.7,0.3-0.7,1.3-1.3,1.8c-0.7-0.4-1.3-0.8-1.7-1.1c0.4-0.7,1.1-1,1.7-2
		c-0.3-1.1-1.7-1.1-2.4-2.1c0.3-1,1.1-1,1.4-2.4c2.3-0.1,4.6-0.3,6.8-0.7C232.9,91.5,233.9,91.5,235,92.5"/>
	<path id="path11898" class="st0" d="M161.7,92.5c0.2-0.2,0.3-0.4,0.3-0.7c2.4,1,3.1,3.1,3.8,5.1C164.6,95.3,163.3,93.8,161.7,92.5"
		/>
	<path id="path11902" class="st0" d="M127.1,92.2c0.8,0,0.4,1,0,0.7C126.7,92.5,127.5,92.5,127.1,92.2"/>
	<path id="path11906" class="st0" d="M206.2,92.2c0.8,0,0.8,0.3,1.1,0.3c0.3,0.7-0.3,1-0.8,1C206.2,93.2,206.2,92.8,206.2,92.2"/>
	<path id="path11910" class="st0" d="M165.1,96.9c0.3,0.4-0.3,0.4-0.7,0.4v1.3c0.3,0.7,1.7,0,1.3,1c0.3,0,0-0.3,0-0.7
		c0.7,0,0.7,0.7,0.7,1c-0.7,0.3-0.7,0-1.7,0c-1.1-1.7-1.8-3.7-4.2-4.4c1.1,1,3.1,2.4,3.1,4.4c-0.8,0.1-1.6-0.1-2.3-0.3
		c0-0.7,0.3-0.7,0.3-1c-1.1,2.1-1.1,5.2-1.1,8.2c-1.7-0.4-1-3.8-1-5.8c0-1.4,0.3-2.7,0.3-4.2c-1.3,2.1-0.7,6.2-1.3,8.9
		c-0.7-0.3-1.8-0.3-2.8-0.7c0-2.1,0-4.1-1-5.5c0,1.1,0.7,2.1,0.3,2.7c-1.4-0.7-3.8-1.3-4.5-2.4c0-1,1.4-0.7,2.1-0.3
		c-0.3-2-1.8-3.1-2.4-4.4c2.4,0.3,3.1,2.1,4.1,3.7c1.1,0,1.1,0.7,1.4,1c0-0.3,0.7-0.7,0.3-1c0.5-0.3,1.2-0.3,1.8,0
		c0.7-0.3-0.8-0.3-0.8-0.7c0.8-1.4,1.1-2.4,2.8-2.8c-0.3-0.3-0.7-0.3-0.7-0.7C160.3,91.5,164.8,94.6,165.1,96.9z M158.3,102.1
		c0.3-1.3-0.8-2.1-1.8-2.7C157.6,100,158,101.4,158.3,102.1"/>
	<path id="path11914" class="st0" d="M97.7,95.9c-0.8-2.7,2.4-2.7,2.7-1.3C100.5,95.6,99.4,96.6,97.7,95.9"/>
	<path id="path11918" class="st0" d="M151.8,97.3c-1.3,1.3-3.7,1.7-4.4,3c-1.2-1.1-2.1-2.5-2.8-4.1c0.7-1.7,2.4-2,4.1-2.8
		C150.4,93.8,149.8,96.9,151.8,97.3"/>
	<path id="path11922" class="st0" d="M104.9,94.2c0.7,0,1.7,0.3,1.4,1.3C105.9,98.7,101.8,94.9,104.9,94.2"/>
	<path id="path11926" class="st0" d="M123.4,94.2c0.3,1,1,0.7,1,1.7c-1.3,1.4,0.4,3.4,0,5.2c-0.7-0.3,0-2.1-1-2.4
		c-0.7,0.3-0.3,1.7-1,2.4c-0.7-1.4,1.7-3.7,0-5.5c0-0.7,1-0.3,1-1V94.2"/>
	<path id="path11930" class="st0" d="M174.7,103.4c-0.7-0.7-0.3-1.3,0-2c-0.7,0-1,1-1.8,0.7c-0.3-0.9-0.3-1.9,0-2.7
		c-1,0.3-0.3,2.4-1.3,2.4c-1-2.1,0.3-4.8,1.3-6.2c-1.7,1-1.3,4.1-3.1,5.5c-0.7-0.8,0-2.7,0.8-3.7s1.7-2.4,2.8-2.8
		c3.4,2,4.4,7.2,4.7,12.3c-0.3,0.3-0.7-0.8-1-0.8c-1.4-0.7-3.1-0.3-4.2-0.3c0.3-0.9,0.2-1.9-0.3-2.8
		C173.3,102.8,174.1,102.9,174.7,103.4"/>
	<path id="path11934" class="st0" d="M165.8,94.6c0.7,0,0.3,0.3,1,0.3C166.8,95.6,165.8,95.6,165.8,94.6"/>
	<path id="path11938" class="st0" d="M168.2,98c-0.3,0.7-3.1,0.7-3.4,0C165.1,97.7,167.9,97.3,168.2,98"/>
	<path id="path11942" class="st0" d="M128.9,98c1.3,2.3,2.4,5.4,3.8,7.8c-2-1.3-2.4-4.4-3.8-6.5c-2.1,1.7-2.1,5.5-4.8,6.8
		C125.9,103.6,127.5,100.8,128.9,98"/>
	<path id="path11946" class="st0" d="M147.7,100.7c0.7-1.1,2.1-2.1,4.5-2.4C151,99.7,149.4,100.5,147.7,100.7"/>
	<path id="path12518" class="st0" d="M101.5,98c-0.3,1-0.4,2-1.4,2c-1.4-0.3-1.7-1.3-3.2-1.7c0.3,1.1,0.2,2.3-0.3,3.4
		c0.8,0.9,1.6,1.8,2.4,2.7c0.9-0.6,2.1-0.7,3.1-0.3c0-0.6,0.2-1.3,0.7-1.8c2.1,0.7,3.1,2.4,5.2,2.7c-0.7-1.3-0.3-3.1,0-4.4
		c-1-0.4-1.3-1.8-2.7-2.1C103.8,98.3,102.5,99,101.5,98z M98.4,99.3c1.1,0.7,2.1,1.6,2.7,2.8c-0.3,0.7-2.1,0.3-2.7,0
		C98.4,101.1,98.1,100,98.4,99.3z M106.7,100.3c-0.6,1.2-0.6,2.6,0,3.8c-1.8-1.1-4.2-1.4-4.5-3.4C103.2,100,104.9,100.7,106.7,100.3
		z"/>
	<path id="path11954" class="st0" d="M150.4,100.7c-0.7,2.3,1,4.4,0.7,5.7c-0.3,1.8-2.4,1.8-2.4,3.5c0,0.7,0.8,0.3,0.8,1
		c0.7-0.3-0.3-0.7-0.3-1c0.7-1.4,2-1.8,2.7-3.1c-0.3-1.8-0.3-3.8-0.7-5.5c0.3-0.3,0.7,0.3,1.4,0.3c0.3,1.7-0.3,4.7,1,5.8
		c-0.4,1-0.6,2-0.3,3.1c-1.8,1-4.5,1-5.2-0.7C149.1,106.9,146,100.3,150.4,100.7z M150.8,110.6c1,0.3,1.4-1.7,0.7-1.7
		C151.4,109.6,150.8,110,150.8,110.6"/>
	<path id="path11958" class="st0" d="M236.3,101.4c-0.7,1-1.7,1.3-2.4,2.4c0.6,0.8,1.5,1.5,2.4,2c-0.3,1.1-1.3,1.4-2,2.4
		c-1.8-0.7-6.2-1.3-7.2,0.3l-2-1c0.5-0.7,1-1.2,1.7-1.7c2.4,0.3,6.1,1.1,7.6-0.7c-1.8-3.1-7.9,0.3-9.2-1.8c1-3.4,7.8,0.8,8.8-2.7
		C234.7,100.7,235.6,101,236.3,101.4"/>
	<path id="path11962" class="st0" d="M163.1,101.7c-0.7,1.7,0,4.1-0.7,5.8h-1c-0.3-1.7,0-4.2,0-6.2
		C162,101.4,162.5,101.6,163.1,101.7"/>
	<path id="path11966" class="st0" d="M170.6,108.2c-0.8-1.3,0.3-5.8-2.1-6.2c2.1-1,4.8,0.7,3.8,4.1C172,107.2,171,107.6,170.6,108.2
		"/>
	<path id="path11970" class="st0" d="M94.3,104.5c0.6,0.3,1.2,0.6,1.7,1c0,0.7-0.3,0.3-0.3,0.7c-0.7,0-1.3-0.7-1.8-1
		C93.9,104.8,94.3,104.8,94.3,104.5"/>
	<path id="path11974" class="st0" d="M163.1,104.8c0.7-0.3,0.7,0.3,1.1,0.3v3.1h-1.1V104.8"/>
	<path id="path11978" class="st0" d="M107.6,106.1c-0.3,1.1-1.3,1.1-1.8,2.4c-1.7-1-6.5-1.3-7.5,0.3c-0.8-0.1-1.4-0.6-1.7-1.3
		c0.3-1.1,1.1-1.4,1.7-2.1c1.3,1,3.8,0.7,6.2,0.7C105.2,104.8,106.6,105.1,107.6,106.1"/>
	<path id="path11982" class="st0" d="M166.8,105.1c0.4,0,0.4,0.3,0.8,0.3v2.1c-0.3,0.3-0.8,0.7-1.1,0.3
		C166.8,106.9,166.5,106.1,166.8,105.1"/>
	<path id="path11986" class="st0" d="M165.8,105.1c0.3,0.7,0,2.1,0,3.1h-1C164.8,107.2,164.1,105.1,165.8,105.1"/>
	<path id="path11990" class="st0" d="M168.2,105.5h0.3c0.3,1.2,0.6,2.5,0.7,3.8C168.2,108.9,168.6,106.9,168.2,105.5"/>
	<path id="path11994" class="st0" d="M122.7,107.9c0.7,0.7,0.3,1.3,0.7,2.4c1.8-0.3,2.8-2.1,4.5-1.4c0.3,1.7,0,3.7,0.3,5.5
		c-1.1-0.7-0.3-3.1-0.7-4.4c-1.1,0.7,0,3-0.4,4.1c-0.7-0.7-0.3-2.4-0.7-3.4c-0.7,0.3-0.3,2-0.3,2.8c-1,0,0-2.1-1-2.4
		c-0.3,0.3,0,1.3,0,2c-0.8,0-0.3-1-0.8-1.7c-0.7,0-0.3,1-0.3,1.7c-0.4,0-0.6-0.3-0.7-0.7c0,0.3-0.3,0.3-0.3,0.7
		c0.3,1.1,1.3,1.1,2.1,1.4c-0.3,1,1,1.7,2.4,1.7c0.3,0.8-0.4,0.8-1.1,1.1c0-1.1-0.3-0.3-1-0.3c0-0.3,0.3-0.3,0.3-0.8
		c-0.7-0.7-2.1-0.7-2.4-1.7c-0.3,0-0.3,0.3-0.7,0.3c0.3,1,0.7,1.8,1.3,2.1c-0.7,0.3-1-0.8-1.7-1.1c-0.7,0-1.1,0.8-1.4,1.1
		c-0.3-0.8,1.4-1.1,0.8-2.4c-1.4,0.3-1.8,2.4-3.8,2.1v-1.1c2.1,0.3,2.4-1.7,3.8-2.4c0.3-0.3,0-0.3,0-0.7c-0.4-0.3-0.4,0.3-0.8,0.3
		s0-0.7-0.3-1c-0.7,0-0.3,1-0.7,1.3c-0.7,0,0.3-1.7-0.7-1.7c-0.3,0.7,0,1.7-0.7,2.1c0.1-0.8,0-1.6-0.4-2.4c-0.7,0.3,0,2-0.3,2.7
		c-1-0.3,0-2.7-0.7-3.1c-0.7,0-0.3,0.7-0.3,0.7c-0.7,0-0.3-1.3-0.3-2.1c1.7-1.3,2.7,1.8,5.2,1.1c0.2,0,0.3-0.2,0.3-0.3
		c0.3-0.8-0.3-1.1-0.8-1.4C121.6,108.2,122.1,107.9,122.7,107.9"/>
	<path id="path11998" class="st0" d="M215.4,108.2v0.3c-2.3,2.8-4.4,5.8-7.2,8.2C210.7,113.7,213.1,111,215.4,108.2"/>
	<path id="path12002" class="st0" d="M192.5,108.2h1c1.8,1,0,4.7-1.3,3.1C194.6,111.3,194.2,108.6,192.5,108.2"/>
	<path id="path12006" class="st0" d="M194.2,108.6c0.7-0.7,1.4,0.3,1.1,0.7C194.6,109.2,194.9,108.6,194.2,108.6"/>
	<path id="path12010" class="st0" d="M213.4,109.6c-0.3-0.3-0.7-0.3-1.1-1C212.8,107.9,213.4,108.9,213.4,109.6"/>
	<path id="path12014" class="st0" d="M198.4,108.6c0.7-0.3,2,0,2,0.7c0.8,1.1-0.3,2.4-1,2.8C197.7,112.3,195.9,109.6,198.4,108.6z
		 M200,109.2c-0.9-0.6-2-0.4-2.8,0.3c0,0.8,0.4,1.6,1.1,2.1C199.7,111.6,200.4,110.6,200,109.2"/>
	<path id="path12018" class="st0" d="M212.3,109.2c0.8,1.8-0.3,2.8-1.7,2.4C207.9,111.3,210,106.5,212.3,109.2z M211.3,111.3
		c0.7-0.3,1-1,0.7-1.7s-1-1-1.7-0.7C208.9,109.6,210.3,111.6,211.3,111.3"/>
	<path id="path12022" class="st0" d="M93.9,108.9c2.1-1,0.4,3.4,2.1,3.4c0.7-0.3,0.3-1.3,1-1.7c2.8,0.3,7.2,0.3,9.3-1.7
		c0.7,0.2,1.3,0.7,1.7,1.4c-0.3,0.7-1,1-1.7,2c-3.4-0.6-6.9-0.1-10,1.4c-0.5-0.8-1.2-1.4-2-1.7C94,111,93.9,109.9,93.9,108.9"/>
	<path id="path12026" class="st0" d="M200.8,108.9c0.3-0.7,0.7,0.3,1,0.7C201.4,110,201.1,108.9,200.8,108.9"/>
	<path id="path12030" class="st0" d="M205.5,108.9c3.8,0.7-1.3,5.2-2.4,2.1c0-1.4,0.8-1.8,1.1-2.4c0.7,0.7-0.8,0.7-0.8,2.1
		C203.8,113.4,208.3,110.6,205.5,108.9"/>
	<path id="path12034" class="st0" d="M206.2,113c-0.3-0.3-0.7,0.8-1,1.1c0.7,1,1.8,1.3,2.1,2.7c-1.1-0.8-1.4-1.8-2.1-2.4
		c-1,0.3-1.8,1.7-2.4,2.4c-0.7-0.3,0.7-1.8,1.4-2.1c1.5-2.2,3.2-4.3,5.1-6.2c-0.7,1.4-1.7,2.1-2.3,3.4c2.8-1.3,4.1,3.4,1,3.7
		c-1.1,0-1.9-0.9-1.9-1.9C206,113.5,206.1,113.3,206.2,113z M207.9,115.4c0.9-0.1,1.6-1,1.4-1.9c-0.1-0.5-0.3-0.9-0.8-1.2
		C205.8,112,205.8,115.4,207.9,115.4"/>
	<path id="path12038" class="st0" d="M203.1,108.9c-2.3,2.7-4.1,5.5-6.8,7.6C198.4,114,200.8,110.6,203.1,108.9"/>
	<path id="path12042" class="st0" d="M207.3,108.9c0.3-0.3,0.7,0.3,0.7,0.7C207.3,109.6,207.6,108.9,207.3,108.9"/>
	<path id="path12046" class="st0" d="M238.7,110.3c0.3,0.7-0.3,0.7-0.3,1c-1-0.3-1-1-1.8-1.3C237.1,108.2,238.4,110,238.7,110.3"/>
	<path id="path12050" class="st0" d="M236,110.6c-1,3.1-6.8,0-8.9,2c-0.8-0.2-1.5-0.7-2-1.3c0.3-1,1-1,1.7-1.3
		c1.9,0.4,3.9,0.5,5.8,0.3c0.5-0.3,0.9-0.7,1.3-1.1C235,109.2,235.3,110.6,236,110.6"/>
	<path id="path12054" class="st0" d="M195.9,110.3c0.9,0.9,1.7,2,2.4,3.1C197.7,112.3,196.3,111.3,195.9,110.3"/>
	<path id="path12058" class="st0" d="M202.1,110.6c1,0.8,1.9,1.7,2.8,2.8C203.9,113.4,202.8,111.6,202.1,110.6"/>
	<path id="path12062" class="st0" d="M208.3,110.6c1.4,0.3,1.4,1.7,2.4,2.3C210,113,208.9,111.3,208.3,110.6"/>
	<path id="path12066" class="st0" d="M196.9,112.3c0.8,0.9,0.7,2.2-0.2,3c0,0-0.1,0.1-0.1,0.1c-0.7,0-1.4-0.2-2-0.7
		C193.9,113,195.3,111.3,196.9,112.3z M195.9,115c1.3-0.3,1.8-3.4-0.7-2.4C193.5,113.4,194.9,115,195.9,115"/>
	<path id="path12070" class="st0" d="M200.4,112.6c0.8-0.7,2-0.6,2.7,0.2c0.2,0.2,0.3,0.4,0.4,0.6
		C204.5,116.5,199,116.5,200.4,112.6z M202.1,115.4c1.3,0,1.8-3.4-0.7-2.8C199.7,113,200.8,115.7,202.1,115.4"/>
	<path id="path12074" class="st0" d="M153.8,112.3c0,0.7,0.7,1.1,0.7,2.1c-2.3,0.3-4.4,0-6.5,0.3
		C146.7,111.3,151.4,112.6,153.8,112.3"/>
	<path id="path12078" class="st0" d="M192.2,112.3c0.3,0,0.3,0.3,0.3,0.7h-0.3V112.3"/>
	<path id="path12082" class="st0" d="M186,112.6c-0.3,0.8,0,1.8-0.3,2.1c-2.8,0-5.2,0.3-7.2,0.3C177.4,111.3,182.9,113,186,112.6"/>
	<path id="path12086" class="st0" d="M106.3,113.4c0.7,0.1,1.4,0.3,2,0.7c0,1-1.3,1-1,2.4c-2.4-0.8-6.5-0.4-7.9,1.3
		c0.8,2.1,6.9,1.3,7.6-0.7c0.8,0.4,1.6,0.7,2.4,1c-0.4,1-1.4,1.4-1.4,2.4c-2.1-0.7-7.2-0.3-7.5,2.1c-1.1,0-1.7-0.8-2.4-0.8
		c0.3-1.3,1.7-1.7,1.7-2.8c-0.3-1-1.3-1.3-2.3-1.7c0.6-1.1,1.3-2.1,2-3.1C101.9,114.7,105.3,115,106.3,113.4"/>
	<path id="path12090" class="st0" d="M235.3,115c-0.3,0.7-1.4,1-1.8,1.8c0.3,1,1.1,1.3,1.8,2c-0.7,0.8-1.4,1.1-2.1,1.8
		c-2-0.7-4.1-0.9-6.2-0.7c-0.7-1.4-2-2.1-2.8-3.1c0.6-1,1.5-1.8,2.4-2.4c2.1,0,5.5,1,6.8-0.3C234.3,114,234.9,114.4,235.3,115z
		 M225.7,117.8c2,0.3,5.8,1.3,7.5,0C233.2,115.3,226.1,115,225.7,117.8"/>
	<path id="path12094" class="st0" d="M193.5,114.1c0.7,0.7,1.4,1.7,2.1,2.4C194.6,116.5,193.9,115,193.5,114.1"/>
	<path id="path12098" class="st0" d="M199,114.4c1,0,1.8,1.3,2.4,2.1C200.3,116.8,200,115,199,114.4"/>
	<path id="path12102" class="st0" d="M153.2,115.4c0.7,1.8,0,4.5,0.3,6.8C152.5,120.9,153.2,117.1,153.2,115.4"/>
	<path id="path12106" class="st0" d="M153.8,115.4c0.3,0,0.3,0.3,0.7,0.3c-0.3,2.1,0,3.4,0,6.5C153.8,120.2,154.2,117.8,153.8,115.4
		"/>
	<path id="path12110" class="st0" d="M193.9,116.5c-0.4-0.5-1-0.8-1.7-0.8C192.5,115,194.2,115.4,193.9,116.5"/>
	<path id="path12114" class="st0" d="M131.6,115.7c-0.3,0.3-0.3,0.3,0,1.1c-1.4,0.3-1.4-0.3-2.1,0.3c-0.7-0.3,0.7-0.7,0-1.1
		C130.2,115.7,131.3,116,131.6,115.7"/>
	<path id="path12118" class="st0" d="M212.8,116.5c-1.1,0-2.4-0.4-3.5,0.3C209.7,115.4,212,115.4,212.8,116.5"/>
	<path id="path12122" class="st0" d="M178.5,115.7c0.7,0,0.3,0.8,0.3,1.1c0.8,0,0-1.1,0.8-1.1c0,2.1,0.3,4.2,0.3,6.5
		c-0.8-1.3-0.3-3.4-0.8-4.7c-0.3,0.7,0.4,3.7-0.3,4.7C178.8,119.5,178.5,118.5,178.5,115.7"/>
	<path id="path12126" class="st0" d="M200,116.5c0,0.3-1.7-0.8-2.8,0.3c0.3-0.8,1.3-1.2,2.1-0.9C199.6,116,199.8,116.2,200,116.5"/>
	<path id="path12130" class="st0" d="M206.2,116.8c-0.3-0.3-1.7-1.1-2.3,0C203.1,115.7,206.2,115.4,206.2,116.8"/>
	<path id="path12134" class="st0" d="M108.3,121.9c0.8,0.1,1.6,0.5,2.1,1.1c0,1-1,1.3-0.7,2.8c-2.4,0.7-5.2,0.7-6.5,2.3
		c-1.4-0.3-2.7-1-3.8-2c0.3-1.4,1.4-1.8,1.8-3.1c0.7,0,1,0.7,1.7,1c-0.9,0.5-1.4,1.4-1.3,2.4c2.2-0.4,4.4-1,6.5-1.8
		C108.7,123.9,108.9,122.8,108.3,121.9"/>
	<path id="path12138" class="st0" d="M186,123.3c1,2.7-3,1.7-4.4,1.7c-9.2-0.3-24,0-34.2-0.3c0-0.3-0.3-1.3,0.3-1.3
		C159,123,174.1,122.7,186,123.3"/>
	<path id="path12142" class="st0" d="M106.3,123.6c0.3,0.3-0.8,1-1.4,1C105.2,124,105.9,124.3,106.3,123.6"/>
	<path id="path12146" class="st0" d="M125.4,125.3c0.3,0,0.7,0.8,1.3,0.4c0.3,0.7-0.7,0.3-0.3,1c-0.3-0.3-0.7-1-1.3-0.7
		C125.1,125.7,125.4,125.7,125.4,125.3"/>
	<path id="path12150" class="st0" d="M150.4,126.4c-0.8,0.8-1.7,1.5-2.8,2c-0.3-0.9-0.4-1.8-0.3-2.7
		C148.3,125.3,150.1,125.3,150.4,126.4"/>
	<path id="path12154" class="st0" d="M164.1,125.7c-2.8,0.7-7.9,0-10.6,0.7v-0.7C157,125.3,160.6,125.3,164.1,125.7"/>
	<path id="path12158" class="st0" d="M169.6,125.7h5.2c1.8,0,3.8-0.8,4.4,0.3c-2.3-0.3-6.5,0.7-9.2,0
		C169.6,126,169.6,126,169.6,125.7"/>
	<path id="path12162" class="st0" d="M231.2,128c0.7,0.3,0.7,1.1,1,1.8c-0.7,0.3-1.4,0.3-2.1,0.7c0,1,0.7,1.3,1.1,2.1
		c-0.7,0-1.5,0.2-2.1,0.7c0-0.5-0.3-1.1-0.7-1.4c0-0.7,1-0.3,1.3-1.3c-1.7-1-4.4-3.1-7.2-2.1c-0.3-0.7-1.1-0.7-1.1-1.7
		c0.8-0.3,1.4-0.7,2.1-1c1.7,1,4.1,1.7,6.2,2.7C230.5,128.7,230.5,128,231.2,128"/>
	<path id="path12166" class="st0" d="M152.5,125.7c-0.3,1-1.4,1.7-2.4,2.3c-0.7,0.7-1.8,2.1-2.8,1.8
		C148.7,128,150.5,126.6,152.5,125.7"/>
	<path id="path12170" class="st0" d="M179.9,125.7c2.4,1,4.7,2.3,5.8,4.7C183.6,129.1,181.2,127.7,179.9,125.7"/>
	<path id="path12174" class="st0" d="M185.7,128.4c-1.4,0.3-2.4-1.3-3.4-2C183.6,124.6,187,126.4,185.7,128.4"/>
	<path id="path12178" class="st0" d="M214.8,126c0.7-0.3,1.4,0.7,1.8,1.3C215.8,127,215.4,126.3,214.8,126"/>
	<path id="path12182" class="st0" d="M209.7,126.4c0.3-0.3,1,0.3,1,1C210,127,210,126.4,209.7,126.4"/>
	<path id="path12186" class="st0" d="M194.6,126.4c-0.4,0.4-0.7,0.9-1.1,1.3C193.5,126.7,193.9,126.4,194.6,126.4"/>
	<path id="path12190" class="st0" d="M201.8,126.4c2.1-0.3,2.8,2.8,1,3.1C200.8,130.1,199.4,126.7,201.8,126.4z M200.8,128
		c0.1,0.7,0.8,1.3,1.5,1.2c0.6-0.1,1.1-0.6,1.2-1.2C203.1,126.4,200.8,126.4,200.8,128"/>
	<path id="path12194" class="st0" d="M208.6,129.4c-1.3,0-2.4-0.8-2.4-1.4C206.2,124.3,212.3,127.7,208.6,129.4z M209.3,127.7
		c0-1-1-1-1.3-1C204.5,127.4,209.7,131.1,209.3,127.7"/>
	<path id="path12198" class="st0" d="M197.3,126.4c0.8,0,1.1,0.7,1.4,1C198.4,127.7,197.7,127,197.3,126.4"/>
	<path id="path12202" class="st0" d="M203.9,126.7c0.3-0.7,1,0.3,1,0.7C204.5,127,204.2,126.7,203.9,126.7"/>
	<path id="path12206" class="st0" d="M195.3,126.7c3.1-0.7,2.7,3.4,0.7,3.4C194.2,130.1,193.5,127.4,195.3,126.7z M196.3,129.4
		c0.6-0.2,1-0.8,0.8-1.4c-0.1-0.3-0.2-0.5-0.5-0.7C193.9,126,193.9,130.1,196.3,129.4"/>
	<path id="path12210" class="st0" d="M182.3,128.4c-0.4,0.7-0.4,1.7,0,2.4c-1.1,0-1.4,0.7-2.4,0.7c-0.8-0.3,0-0.7,0-1.3
		c-0.2,0-0.3-0.1-0.3-0.3c0,0,0,0,0,0c0-1.1,1.3-1.4,1-2.4C181.3,127.4,181.9,127.7,182.3,128.4z M180.6,129.1h0.7
		c0-0.8-0.3-0.8-0.7-0.8C180.6,128.7,180.2,128.7,180.6,129.1"/>
	<path id="path12214" class="st0" d="M156.9,129.1c-0.7,0-0.3,1-0.7,1.3h-2.1c0-1-0.7-1.3-0.7-2.4c3.7,0,6.8-0.7,10.2,0
		c0,0.7,0.4,1.4,0.4,2.1c-0.4,0.3-0.8,0.3-1.4,0c0.3-0.7,0-0.7,0-1.8c-1,0-1,1.4-1.3,1.8c-1.1,0-2.4,0.3-3.4,0
		C157.2,130.1,158,129.1,156.9,129.1"/>
	<path id="path12218" class="st0" d="M169.9,128c3.5-0.3,6.6,0.3,9.7,0.3c-0.8,1.1-0.4,1.8-0.8,2.8c-1.3,0.1-2.5,0-3.8-0.3
		c-0.7,0.3-0.3,1.8-1,2.1c-0.9-0.2-1.6-0.9-1.7-1.8h1.4c0.3-0.3,0.3-1,0.7-1.3c0.7-0.3,0,0.7,0.3,0.3c0.3,0,0.3-0.7,0-0.7
		c-0.7,0-0.7,0.7-1,1c-1.4,0.3-3.4,1-4.5,0C169.3,129.6,169.6,128.8,169.9,128"/>
	<path id="path12222" class="st0" d="M199.4,128.4c1,0.8,1.8,1.7,2.4,2.8C200.7,130.5,199.9,129.5,199.4,128.4"/>
	<path id="path12226" class="st0" d="M205.5,128.4c1,0.8,1.4,1.8,2.4,2.4C206.9,130.8,206.2,129.4,205.5,128.4"/>
	<path id="path12230" class="st0" d="M211.7,128.4c0.7,0.8,1.4,1.4,2.1,2.1C213.1,130.4,212,129.4,211.7,128.4"/>
	<path id="path12234" class="st0" d="M150.8,128.4c0.1,0.6,0,1.2-0.3,1.8c-0.7,0-1.3,0.7-1.8,0.3
		C148.9,129.4,149.7,128.6,150.8,128.4"/>
	<path id="path12238" class="st0" d="M184.6,130.4c-0.8,0.2-1.6,0.1-2.3-0.3C181.6,128,184.3,129.1,184.6,130.4"/>
	<path id="path12242" class="st0" d="M157.6,130.4h1.7c-0.2,0.9-0.9,1.5-1.7,1.8c-1,0-0.7-1.4-0.7-2.8
		C157.6,129.4,157.6,130.1,157.6,130.4"/>
	<path id="path12246" class="st0" d="M205.2,129.8c2.4,0,1.8,3.7-0.3,3.4C203.4,133.2,202.8,130.1,205.2,129.8z M204.2,132.2
		c0.7,0.7,1.7,0.7,2,0C206.9,129.4,203.1,130.1,204.2,132.2"/>
	<path id="path12250" class="st0" d="M200.8,131.4c0,0.7-0.4,1.4-1.1,1.8C194.6,133.5,199,127.4,200.8,131.4z M197.7,131.4
		c0,0.8,0.6,1.4,1.4,1.5c0.5,0,1-0.3,1.3-0.7C200.4,130.1,197.7,130.1,197.7,131.4"/>
	<path id="path12254" class="st0" d="M230.8,134.2c0.4,1.1,1.1,1.7,1.4,2.7c-0.3,1-0.3,2.4-1.4,2.8c-1-1,0.8-2.1,0.4-3.8
		c-0.8,0.3-1.1,0.3-1.4,0.7c-2.8-1.3-4.8-3.4-8.9-3.7c-0.4-0.7-0.7-1.4-1-2.1c0.6,0,1.2-0.2,1.7-0.7
		C224.3,131.8,227.1,133.5,230.8,134.2"/>
	<path id="path12258" class="st0" d="M168.9,131.1c-1.3-0.3-2.7-0.3-4.1,0C165.1,129.8,168.6,130.1,168.9,131.1"/>
	<path id="path12262" class="st0" d="M149.1,130.4h1c0.3,0.7-0.7,0.3-1,0.3V130.4"/>
	<path id="path12266" class="st0" d="M153.2,131.1h0.7c0.1,0.6,0.3,1.2,0.3,1.8C153.5,132.9,153.2,132.2,153.2,131.1"/>
	<path id="path12270" class="st0" d="M170.3,131.1h0.7c-0.1,0.6-0.2,1.2-0.3,1.8C170.2,132.4,170,131.7,170.3,131.1"/>
	<path id="path12274" class="st0" d="M166.8,131.4c0.4,3.1,0,5.5,0,8.6h-1c-0.7-2.4-0.7-6.8,0.3-8.6H166.8"/>
	<path id="path12278" class="st0" d="M179.1,131.4h0.4c0,0.8-0.8,1.4-1.1,1.1C178.8,132.2,178.8,131.8,179.1,131.4"/>
	<path id="path12282" class="st0" d="M149.1,131.4h0.3c-0.1,2.8,0.1,5.5,0.7,8.2h-1C148,137,148,134.1,149.1,131.4"/>
	<path id="path12286" class="st0" d="M156.2,133.2c0.7,0-0.7,0-0.3-1c0.7-0.4,1.3,0,1.7,0.7c-0.5,1.3-1.3,2.5-2.3,3.4
		c-1.8,0-2.4-1.4-3.8-1.8c-0.7,1.8,0.3,3.8,0.8,5.2c-0.4,0.3-0.8,0-1.4,0c-0.7-2.1-1.3-5.8-0.3-8.2c2.1,0.3,2.4,2.1,3.7,2.4
		C155.2,133.5,155.6,132.5,156.2,133.2"/>
	<path id="path12290" class="st0" d="M168.6,131.8c0.3,2.4,0.7,6.6,0,8.6c-2.1-0.7-1-5.8-1-8.2c0-0.4,0.3-0.4,0.3-0.8
		C168.2,131.4,168.2,131.8,168.6,131.8"/>
	<path id="path12294" class="st0" d="M165.1,131.8c0.3,3.1-0.3,5.2-0.3,8.2h-1.1C163.7,137.9,163.1,132.9,165.1,131.8"/>
	<path id="path12298" class="st0" d="M169.2,131.8c1.4,0.8,1.1,2.4,1.1,4.5c0.3,1.7,0.7,3.4,0.3,4.1c-1.4-0.7-1.4-4.1-1.4-6.2V131.8
		"/>
	<path id="path12302" class="st0" d="M183,132.2c1,2,0,5.7-0.3,7.8h-1.4c0-2.1,1.4-5.5,0.7-7.8C182.3,132.5,182.7,131.8,183,132.2"
		/>
	<path id="path12306" class="st0" d="M183.6,132.2h0.4c1.8,0.7,2.1,7.8-0.3,7.8C183.7,137.9,184.3,134.9,183.6,132.2"/>
	<path id="path12310" class="st0" d="M202.4,132.5c0.7,0,1.8,1.3,2.1,2C203.7,133.9,203,133.3,202.4,132.5"/>
	<path id="path12314" class="st0" d="M195.9,132.5c1.3,0.3,1.8,1.3,2.4,2C197.7,134.9,196.6,133.5,195.9,132.5"/>
	<path id="path12318" class="st0" d="M185.4,132.5c0.3,0.3,0.3,0.7,0.3,1.3C185.4,133.9,185.4,133.2,185.4,132.5"/>
	<path id="path12322" class="st0" d="M227.4,136.9c0,1,0.8,1,0.8,2.1c-0.8,0.3-1.4,0.3-2.1,0.7c-2.4-1-4.1-3.8-7.6-3.4
		c0-1-0.7-1-0.3-2.1c0.8,0,1.1-0.3,2.1-0.7c1.3,1.8,3.4,2.8,5.8,3.8C226.7,137.3,226.7,136.9,227.4,136.9"/>
	<path id="path12326" class="st0" d="M112.8,134.5c0.9,0.2,1.8,0.2,2.8,0c0,1.1-0.4,2.1-0.4,3.1c-2.3,0.9-4.4,2.1-6.5,3.4
		c0,0.8,0.8,1.1,0.3,1.4c-0.9,0.1-1.8,0-2.7-0.3c0-1.1,0.7-1.7,0.7-2.7c-0.3-0.3-1.8,0-2.4-0.3c-0.3-0.8-0.1-1.7,0.3-2.4
		c0.6,0.1,1.2,0.2,1.7,0.3v1.8c2.8,0.3,4.8-1.4,6.5-2.8C113.5,135.3,112.8,134.8,112.8,134.5"/>
	<path id="path12330" class="st0" d="M152.2,135.9c1.3,0.3,1.3,2.8,2,4.1h-1C152.5,139,151.8,136.9,152.2,135.9"/>
	<path id="path12334" class="st0" d="M147.3,136.3c0.4,1.1,0.6,2.2,0.7,3.4C147,139.4,147.7,137.3,147.3,136.3"/>
	<path id="path12338" class="st0" d="M178.5,137.6c0,2.4-2.8,3.4-3.8,1.4c-0.3,0.3,0,0.7,0,1.3c-0.7,0-1.8,0-2.1-0.3
		c0-1.1,0.4-2.2,1.1-3.1C175.7,136.9,177.1,136.9,178.5,137.6"/>
	<path id="path12342" class="st0" d="M159,137.6c0.3,0.8,0.4,1.6,0.3,2.4c-0.3,0.3-0.7-0.3-1.3,0v-0.7c-0.8,0.3-1.8,1-2.7,0.3
		c0-0.7-0.8-1-0.8-1.8C155.9,137.3,157.5,137.2,159,137.6"/>
	<path id="path12346" class="st0" d="M163.1,137.6c0,1.1-0.3,1.4-0.3,2.4c-0.7,0-1.3,0.3-2.1,0C160.7,138.7,161.4,136.9,163.1,137.6
		"/>
	<path id="path12350" class="st0" d="M225.7,142.1c0.3,1.7,1.3,2.3,2,3.8c-1-0.3-1.3-1-2.3-1.4c-0.7,0.4-1.1,1.4-1.4,1.8
		c-0.7-0.3-0.7-1.3,0-2.1c-2-1.7-4.1-4.7-7.5-3.7c-0.4-0.6-0.6-1.3-0.7-2c0.8-0.4,1.7-0.7,2.7-0.8c0.8,0,1.4,1.1,2.1,1.8
		C222.2,140.4,224,141.3,225.7,142.1"/>
	<path id="path12354" class="st0" d="M117.9,138.7c-0.4,0.9-0.6,1.8-0.7,2.8c0.3,0.7,1.8,0.3,2.8,0.3c-0.3,1-0.4,2-0.3,3.1
		c-2.1,0.9-4,2.3-5.5,4.1c-0.3,0.7,0.7,0.7,0.3,1h-2.8c0-1,0.3-1.3,0.3-2.8c2.4-0.7,4.8-2,5.8-4.7c-1.3-1.4-5.8,2-6.8,3.7
		c-0.8,0-1.6-0.1-2.4-0.3c0-0.7,0.3-1.4,0.3-2.1c2.4,0,4.2-2.3,6.6-3.4c0-0.7-0.4-1,0-1.3C116.3,138.7,117.1,138.6,117.9,138.7"/>
	<path id="path12358" class="st0" d="M171.3,139c0.3,0,0.3,0.7,0.3,1C171.3,140,171.3,139.3,171.3,139"/>
	<path id="path12362" class="st0" d="M185.7,141v4.2c-1.1-1.8-1.8-3.4-4.2-3.1c-2,0.3-1.3,2.8-3.4,3.4c-0.7-2.4-3.1-4.8-5.5-2.4
		c-0.7,0.7-1,2.1-1.7,2.4c-1.1,0-0.7-1.1-1.8-2.1c-0.7-1-1.9-1.6-3.1-1.3c-2,0.3-1.7,3.4-4.1,3.1c-1-4.2-5.8-3.7-6.8,0h-0.8
		c-1-1.8-1.7-3.7-3.8-3.7c-1.7,0.3-2.1,2.3-3.1,3.4c-0.3-1.4-0.3-2.8,0-4.2v-0.3C160,140.7,174.4,141,185.7,141"/>
	<path id="path12366" class="st0" d="M229.8,142.8c-0.3,0-0.7,0.3-1,0.3c-0.4-0.7-0.6-1.6-0.7-2.4
		C229.2,139.7,229.2,142.1,229.8,142.8"/>
	<path id="path12370" class="st0" d="M218.2,142.8v1.7c3.4-1.3,4.5,3.1,3.1,5.8h-3.4c-2-1.3-3.4-4.1-6.2-4.1
		c-0.3-0.7-0.7-1.8-0.3-2.1c0.7,0.3,2.1,0.3,2.4-0.3v-2.3C215.8,140.7,216.5,142.4,218.2,142.8z M217.5,147.5c0.3-2-0.3-4.4-3.1-4.4
		C213.1,145.2,216.2,146.5,217.5,147.5z M218.2,148.6c1.2,0.1,2.3-0.1,3.4-0.3C222,144.8,216.8,144.8,218.2,148.6"/>
	<path id="path12374" class="st0" d="M141.2,145.8c0.1,0.9,0,1.9-0.3,2.7c-2.8,0-6.2,0.3-8.2,0c0.3-1.1,0-2.4,0.3-2.7
		C135.7,145.5,138.4,145.5,141.2,145.8"/>
	<path id="path12378" class="st0" d="M142.2,145.8c16.5,0,32.5,0,48.9,0.3c-0.3,1,0,2.1-0.3,2.8c-8.1,0-17.1,0.3-24.6,0
		c-8.2,0-15.7,0-24-0.3c-0.3-0.8-0.4-1.6-0.3-2.4C141.8,146,142,145.8,142.2,145.8C142.1,145.8,142.1,145.8,142.2,145.8"/>
	<path id="path12382" class="st0" d="M191.9,146.2h8.1c0.3,0.7,0,1.8,0,2.8c-2.7,0.3-5.4,0.3-8.1,0L191.9,146.2"/>
	<path id="path12386" class="st0" d="M211.7,148.9c2.8,1,4.2,3.7,6.8,5.2c-0.3,1,0.4,2.3,0.4,3c-1.1-0.3-1.1-1.3-2.1-1.3
		c-1.4,0-1,1-2.1,1.3c0-0.7-0.3-1-0.3-1.3c0-0.7,0.7-0.7,1-1.3c-1-2.1-3.1-3.1-4.4-4.8c-1-0.3-1.3,0-2.4,0c0-0.7-0.3-1-0.3-2.1
		C210,147.2,212,146.5,211.7,148.9"/>
	<path id="path12390" class="st0" d="M138.1,149.9c1.5-0.3,2.9-0.4,4.4-0.3h3.1c2.8,3.1,6.6,5.2,7.2,10.2
		C148.9,155.2,143.8,151.8,138.1,149.9"/>
	<path id="path12394" class="st0" d="M147,149.6h4.1c0.8,0.6,1.3,1.5,1.4,2.4c-0.8-0.1-1.6,0-2.4,0.3c0.3,1,1.3,2.1,1.7,3.1
		c-0.9-0.8-1.7-1.7-2.3-2.8C148.7,151.7,147.7,150.6,147,149.6"/>
	<path id="path12398" class="st0" d="M152.8,149.6c1.3,0,2.1,0.3,3.4,0.3c0.3,0.7,1,1.1,0.7,2.1h-3.1
		C153.3,151.3,153,150.5,152.8,149.6"/>
	<path id="path12402" class="st0" d="M157.6,149.9h3.5c0.6,0.5,0.9,1.3,0.7,2.1h-3.4C158.3,151.3,157.2,150.6,157.6,149.9"/>
	<path id="path12406" class="st0" d="M166.1,149.9c0,0.7,0.3,1.7,0,2.1c-1.7,0.3-4.1,0-3.8-2.1C163.4,149.9,165.1,149.6,166.1,149.9
		"/>
	<path id="path12410" class="st0" d="M171,150.2c0,0.8-0.3,1.1-0.3,1.8h-3.4c0-0.7-0.4-1.4,0-2.1C168.5,149.9,169.7,150,171,150.2"
		/>
	<path id="path12414" class="st0" d="M175.4,150.2c0,0.8-0.3,1.1-0.3,1.8c-1,0-2.7,0.3-3.4,0C171,149.6,173.7,149.9,175.4,150.2"/>
	<path id="path12418" class="st0" d="M179.9,149.9c0,0.8-0.3,1.5-0.8,2.1c-1,0.3-2.1,0.3-3.1,0C175.4,149.6,177.8,149.9,179.9,149.9
		"/>
	<path id="path12422" class="st0" d="M192.9,150.2c-2.6,1.2-5.1,2.6-7.5,4.2c-1.1,1-2.1,1.7-3.1,2.7c-1,0.8-1.9,1.8-2.7,2.8
		c1.4-3.8,3.9-7.2,7.2-9.6C188.8,150.2,191.1,149.9,192.9,150.2"/>
	<path id="path12426" class="st0" d="M127.9,150.6c-0.2,1-0.2,2.1,0,3.1c-1.9,1.2-3.5,2.7-4.8,4.5c-0.3,0.7,0.3,0.7,0.3,1
		c-0.7,0.3-1.7,0-2.8,0.3c0-1,0.3-1.7,0-2.8c2.4-0.7,3.4-2.7,4.8-4.4c0-0.7-0.3-0.7-0.3-1.3C126.1,151,126.8,150.6,127.9,150.6"/>
	<path id="path12430" class="st0" d="M204.9,150.6h3.1c1,2.4,2.1,4.8,5.2,5.5c0.3,0.7,0.4,1.4,0.3,2.1c-0.9-0.1-1.9,0-2.8,0.3
		c-1.4-2.1-2.4-5.5-5.5-5.2C205.2,152.3,204.9,151.7,204.9,150.6"/>
	<path id="path12434" class="st0" d="M203.4,151.7c1.1,1.3,0.8,3.4,1.1,5.1c1,0,1.3-0.3,2-0.3c0.8,1.1,1.1,2.1,2.1,2.7
		c-0.5,1.1-0.6,2.3-0.3,3.4c-1.8,0-2.8,0.7-3.1,2.4c-0.3-1-0.3-2.8-0.7-3.8c-0.3-0.7-1.8-0.3-2.8,0c-0.6-1.3-1.3-2.5-2.1-3.7
		c0.4-1,0.6-2,0.3-3.1C202.1,154.1,203.1,153.3,203.4,151.7z M200.8,156.4c1,1.1,1.3,3.7,3.8,2.7c-0.3-1.7,0-4.4-1.1-5.5
		C203.1,155.4,201.8,155.7,200.8,156.4L200.8,156.4z M205.2,162.6c0.7-0.3,1-1.3,2.1-1.3c0-1.4-0.8-1.7-1.4-2.4
		C203.8,158.5,205.2,161.6,205.2,162.6"/>
	<path id="path12438" class="st0" d="M132.6,156.1c-1.5,1.8-2.8,3.6-4.1,5.5c0,0.3,0,0.7,0.7,0.7c-0.3,1-1.3,1.4-2.4,1.8
		c-0.3-0.8-0.3-1.8-0.7-2.4c-0.7-0.7-1.3,0.3-2.4,0.3c0-0.7-0.1-1.4-0.3-2.1c0.6-0.4,1.3-0.6,2.1-0.7c0.2,0.5,0.4,1,0.7,1.4
		c1.4-1.4,5.2-4.2,2.7-6.2c1-0.3,1.8-0.3,2.4-1.1C131.9,154.1,131.6,155.7,132.6,156.1"/>
	<path id="path12442" class="st0" d="M158.7,157.1c0,0.4-0.3,0.4-0.3,1.1c-0.8-0.3-0.8,0.7-1.1,1.3c-0.7,0-1.7,0.3-1.7,1.1
		s0.7,0.7,1.7,0.7c0,0.7,0.3,1,0.3,1.7c0.8-0.3,0.8,0,0.8,0c0.7-0.3,0.7-1,0.7-1.7c1,0,1.3-0.3,1.3-0.7s-1-0.8-1.3-0.8
		c0-0.7-0.3-1-0.3-1.7c1.3,0,1.3,1.3,2,2c1.1,0,0.7-1,1.1-1.3c0.5,0,1-0.3,1.3-0.7c-0.1-0.7-0.7-1.1-1.3-1.1c0-0.7,0-1.3-0.7-1.7
		s-0.8,0.7-1.1,1.3C159.3,156.8,159.3,157.1,158.7,157.1c0-1,1-1.3,1.7-2c0-0.3-0.3-0.3-0.7-0.7h2.1c-0.7,0.7,0,1.3,1,1.3
		c0,0.7,0.3,1.5,0.7,2.1c0,1.7-1.7,1.7-2,2.8c0.5,0.4,1.1,0.7,1.7,1c-0.3,0.7,0.3,0.7,0.3,1.3c-0.4-0.5-1.1-0.6-1.7-0.3
		c0-1,0-1.3-0.7-1.7c-1.1,0.7-1.1,2.3-3.1,2.3c-0.5-0.7-1.3-1.1-2.1-1c0.1-0.6-0.2-1.2-0.7-1.7c0-0.8,0.7-1.1,0.7-2.1
		c0.7,0,1.7-0.3,1.7-1c0-0.4-0.7-0.8-1.3-0.8c0-0.5-0.3-1-0.7-1.3c-0.7,0.1-1.1,0.7-1.1,1.3c0,0,0,0,0,0c-0.7-0.3-0.3-0.7-0.7-0.7
		c0-0.7,1.4-0.7,0.7-1.7c0.5-0.3,1.1-0.1,1.4,0.3c0.3,0.3,0.3,0.7,1,0.7C157.6,156.1,157.2,157.5,158.7,157.1"/>
	<path id="path12446" class="st0" d="M176.8,154.4h0.7c0.3,0.7,0,1-0.7,1C177.1,154.7,176.8,154.7,176.8,154.4"/>
	<path id="path12450" class="st0" d="M136.8,158.5c-1.8,2.4-3.5,4.9-4.8,7.5c0,0.3,0.3,0.8,0.3,1.4c-1.3,0-1.7,1-2.8,1
		c-1.3,0-2.4-1.7-3.8-2.1c1.3-1.3,2.8,1.1,4.4,1.1c0.4-1.4-1-2.1-2-2.4c0.3-1,1.3-0.7,2.4-0.3c0.7-2.4,5.4-5.2,2.3-7.6
		c1.1-0.3,1.4-1,2.4-1C135.6,157,136.1,157.9,136.8,158.5"/>
	<path id="path12454" class="st0" d="M195.3,157.5c1,1.3,0,3.4,0.7,4.7c0.7,0,1-0.3,1.8,0c1.7,1.4,1.7,3.1,1,6.2
		c-1.4,0.3-3.1,0.3-3.8,1.4c-0.3-0.4,0.3-2.4,0-3.8c-0.7-0.4-1.6-0.6-2.4-0.3c-0.7-2.8-1-3.4-0.7-6.5
		C193.2,159.4,194.6,158.7,195.3,157.5z M192.9,160.9c0.3,1.3,0.3,3.1,2.1,3.1c0.3-1.4,1-4.2,0-5.2
		C194.9,160.1,193.5,160.1,192.9,160.9L192.9,160.9z M195.3,167.7c0.7,0.3,1.7-0.7,3.1-0.7c0.3-0.8-0.7-2.1-1.1-3.1h-2
		C195.6,165.3,195.3,166.3,195.3,167.7"/>
	<path id="path12458" class="st0" d="M198.7,160.9C195.3,158.5,201.4,158.2,198.7,160.9"/>
	<path id="path12462" class="st0" d="M213.8,159.8c0.3,0.3,0.3,1.1,0.3,2.1h-1.3c0-0.7-0.4-1.3-0.4-2.1
		C213.1,159.8,213.1,159.5,213.8,159.8"/>
	<path id="path12466" class="st0" d="M121.3,160.9v1c-0.7-0.3-1,0-2,0v-1C120,160.9,120.6,160.6,121.3,160.9"/>
	<path id="path12470" class="st0" d="M138.1,160.9c0.6,0.4,0.7,1.2,0.2,1.8c-0.1,0.1-0.2,0.2-0.2,0.2
		C135.7,163.6,135.7,160.1,138.1,160.9"/>
	<path id="path12474" class="st0" d="M183.3,162.6c1.3,0,2.1,1.1,3.1,1.7c0.3,2.4,0,5.5,2.1,6.2c0,0.8-0.2,1.7-0.8,2.3
		c-0.7-0.7-1.7-1-2.3-2c0-2.8-0.4-5.2-2.1-6.2c-2.1,1-1,6.8,0.7,7.5c0,1.1-0.7,1.4-0.7,2.4c-0.7-0.3-1.4-1-2.1-1.3
		c-0.2-2.3-0.6-4.7-1.3-6.9c-0.8-0.3-0.8,0-1.4,0c0.3-1,1.1-1.7,1.4-2.7c1,0,1,1,2,1.3C182.6,164.3,183.1,163.5,183.3,162.6"/>
	<path id="path12478" class="st0" d="M153.2,164.6c-0.3,2.4-1.4,4.1-1,6.5c-1.1,0.3-2.8,0.3-3.1,1.3c0.6,1.1,1.4,2,2.3,2.8
		c0,1.1-1,1.1-1,2.1c-2.1-2.1-3.1-4.5-5.2-6.5c0.9-2.1,1.4-4.3,1.4-6.5c1.2-0.4,2.4-1,3.4-1.7C151.1,163.2,151.4,164.3,153.2,164.6z
		 M148.7,164.6c0,2.4-2.7,6.2,0.4,7.1c1.7-0.7,1-4.1,2-5.8C150.4,165,149.8,163.2,148.7,164.6"/>
	<path id="path12482" class="st0" d="M143.3,162.9c0.7,1.8-1.4,6.2,0.7,7.6c-1,0.3-1,1.3-2.1,1.3c-0.7-0.7-0.7-1.7-1-2
		c0.7-1.5,1-3.2,0.7-4.8c-1.7,0.3-3.4,2.4-2.4,4.4c-0.7,0-1.3,0.8-2,0.4c-0.3-0.8-0.3-2.1-0.8-2.8
		C139.4,166.3,141.2,164.3,143.3,162.9"/>
	<path id="path12486" class="st0" d="M202.8,163.6c0,2-2.8,1.3-1.7-0.8C202.1,162.6,202.4,162.9,202.8,163.6"/>
	<path id="path12490" class="st0" d="M135.4,165c0,0.7,0.7,0.7,0.3,1.3C134.4,168.7,132.3,164,135.4,165"/>
	<path id="path12494" class="st0" d="M175.7,173.2h0.3c0.4,0.3,0,1,0,1.3C175.7,174.2,175.1,173.9,175.7,173.2"/>
	<path id="path12498" class="st0" d="M156.2,173.6c1,0.3,2.1,1,1,2C156.7,175,156.4,174.3,156.2,173.6"/>
	<path id="path12502" class="st0" d="M142.9,51.1c0,0.7-0.4,1-0.4,1.7c-1,0-1.3-1-2.3-0.7c-1.1-2.8-1.8-5.5-3.4-7.2
		c0.3-0.7,0.6-1.4,1-2.1c2.1,0,1.7,3.7,2.8,4.5C140.9,48.4,141.2,50.8,142.9,51.1"/>
	<path id="path12506" class="st0" d="M168.9,58c0.7-0.3-0.3-0.7,0-1.3c3.8,0.7,12-0.4,17.5,0.7c-0.3,1-2.1,0.3-2.7,0.3
		c0.7,1.3,2.4,2.8,2.7,4.7c0.3-1.7,0.4-3.4,0.3-5.1c2.1,1,4.1,3.1,6.5,4.7c2.1,1.8,4.1,3.8,6.5,5.2c-2-0.3-7.8-2.1-8.9,0.7
		c-0.3,1.1,0,2.7,0,4.5c-0.3,4.7-0.3,12.2-0.3,16.7c-1.3-0.7-2-1.8-3.4-2.4c3.1,2.7,6.8,5.2,9.9,7.9c0.3-1.8,0-6.2,0.3-8.9
		c1.1,3.1,0,7.2,0.8,9.6c0-0.7,1.3,0,1-1c0.3-1.1-1-0.4-1-1.4c0-0.4,0.3-0.6,0.7-0.7c0.3-0.3-0.7-0.7-0.3-1h2c-0.3,1,0,1.3,0.8,1.3
		c0,1-1.1,1-1.4,1.3c0,1.1,1.1,0.8,1.1,1.4c0.3,1-0.8,0.3-1.1,1c0,1.1,1.8,0.7,1.4,2.4c-4.8-3.8-10-7.2-14.4-11
		c0.1-0.6,0-1.2-0.3-1.7c-1,0-2.4,1.3-3.4,0.3c-0.7,0.7-1.8,1.3-2.4,2.1c1,0,1.7-1.4,2.7-1.7c-0.7,2.4-2.1,3.7-3.1,5.5h-1.4
		c2.4,2.1,3.5-3.4,4.8-4.8c0.3,5.8-2.4,13.4-2.8,19.6c1.8-4.5,2.8-11,3.4-16.8c0.3-1-0.3-3.1,1.4-3.4c0,7.9-0.3,16.4-0.3,23.6
		c-0.8,0.7-1.7,1-2.1,2c-1-0.7-2.7-0.7-4.2-1c0-4.1-0.3-8.9-2-11.7c0.7-2.3-1.4-3.4-2.1-5.1c0.9-1.3,1.7-2.7,2.4-4.2
		c0.7,0.3,2.1,1.8,2.7,0.3c-1,0.3-2.1-0.3-2.4-1.3c0-1.8,4.5-2.4,5.2-4.1c-1.8,0.7-2.8,2-4.8,2.8c0-2.8,3.8-1.4,4.2-3.8
		c-1.4-0.7-2.7,0-4.5,0c0.3,3.8-1,8.6-3.8,9.6c0.7-1.7,2.8-2.3,2.8-5.1c-1.1,1.7-1.4,4.1-3.8,4.4c-0.7-0.7-0.7-2-2-2.4
		c1.3-0.7,3.1-1.3,3.1-3.4c1,0.3,2.4,0,2.8,1.4c2-8.2-5.5-15.1-14.7-12.3c-3.7,2.1-6.8,5.8-6.2,11.2c0.7,2.8,2.1,4.2,3.4,6.2
		c-2.7-1-4.1-4.7-4.1-8.8c0.3-6.5,7.2-11.3,14-10c4,1.2,7.2,4.3,8.6,8.2h8.2c0,0.7-1.4,0.7,0,0.7c-0.3,1.1-1.4,1.4-2.4,1.8
		c1,0.3,1.7-1.1,2.7-1.1c-0.3-2.7,0.7-5.4,0-7.8c-0.7-2.1-2.4-3.1-4.1-4.1c2-1.4,4.8-3.1,4.1-6.2c-1,3.4-3.7,4.8-7.9,5.4
		c3.4,1.8,6.9,3.5,7.6,8.2h-1.4c-2.3-7.5-13.3-6.5-17.1-12.7c-1.7,4.1-6.5,4.4-9.2,7.5c-0.3,0.8,0,1.8-0.3,2.1
		c-1.1,0.3-1.4-0.7-2.1-0.7c-3.1-1-4.8,2.4-6.2,4.1c0.3-3.1,4.1-6.2,7.2-4.1c1.8-5.2,10.3-4.5,9.9-10.6h2.1c1,2.1,2.9,3.7,5.2,4.4
		c-0.7-1-2.7-3.1-2.7-5.2c-2.1,0-6.2,0.3-8.6,0c2.7-1,5.8-0.3,8.6-0.3c-0.1-1,0-2.1,0.3-3.1c0,0-2.4,1.4-2.4,0
		c-0.3,0-0.3,0.7-1.3,0.3c0.5,0.2,0.7,0.7,0.5,1.2c0,0.1-0.1,0.2-0.1,0.2c-0.7,0-1,0-1-0.7c-0.4,1-0.8,0-1.8,0.7
		c-0.7,0-0.7-1.1-1-1.4c-1.1,0-2.1,0.3-2.4-0.3c1.1,2.9,0.4,6.1-1.8,8.2c2.1-0.7,3.4-2.4,4.5-4.1h1.3c-2.4,8.1-15.4,6-17.8,14.6h-1
		c-0.3-4.8,3.7-6.5,7.6-8.2c-3.7-0.5-6.7-3-7.9-6.5c-1.4,3.4,1.3,5.1,3.4,6.5c-2.7,1.7-4.4,4.4-3.7,8.8c0.7,0.4,3.4-0.7,4.1,0
		c-0.7,1.1-2.1,0.4-3.7,0.8c-0.3,1.3,0,3.4,0,4.8c-1.4,0.7-2.4,1.7-3.8,2.4c-0.3-4.1,0-9.2,0-14.4c-0.3-2.8,0-7.2-1.4-8.5
		c-3.1-2.1-7.5-0.3-10.2,1.3c4.4-3.7,9.2-7.2,14-10.9c4.8,0.3,11-0.4,16.2,0c0.3,1.3-1.4,1-2.4,1c1,1.2,1.9,2.4,2.8,3.7
		c-0.3-1.3,1.7-1.7,2.4-2.7c1.7,0,2.3,1.1,4.1,0c-3.1,0-4.4-0.7-6.5-1v-1c1.3,0,1.7,0.7,2.1,0.7c0.3,0.7,0.7-0.7,1.3-0.7
		C166.5,58,168.9,55.9,168.9,58z M147,63.5c0.3-2.8,2.1-4.2,3.7-5.8H147C146.7,59.3,146.3,62,147,63.5z M169.6,58.6
		c0.8,1.1,2.4,1.1,2.1,2.7c0.6-1.4,1.6-2.7,2.8-3.7C172,57.6,170.6,57.6,169.6,58.6L169.6,58.6z M175,62.8c1.8-0.4,3.1,0.7,4.5,0.3
		c3.4-0.8,2.3-5.5-0.8-5.5c-3.4,0-6.8,3.7-6.2,7.2C173.7,63.8,173.7,63.1,175,62.8L175,62.8z M154.5,58c-1,0.3-2,1.8-1.7,2.8
		c0,3.1,3.4,1.7,5.5,2.8c2,0.7,1.3,2,2.3,3.7C162.4,63.1,159.3,57,154.5,58z M148,64.4c0,2.1,2.4,5.2,4.5,3.4
		c3.1-2.8-3.1-6.5-0.3-9.6C149.7,59.4,148.1,61.8,148,64.4z M179.5,65.9c-0.4,2,1,4.1,3.4,3.4c3.8-1.1,3.1-10-0.7-10.3
		C184.3,62,180.9,64.4,179.5,65.9L179.5,65.9z M179.1,68.9c-1.3-1.8-0.3-4.8-2.3-5.2c-2.1-0.7-3.4,0.7-3.8,2.4
		c0,3.1,3.8,5.1,7.9,4.1C180.2,69.6,179.9,69.6,179.1,68.9L179.1,68.9z M158,64.4c-4.5-0.3-3.1,5.2-7.2,5.2
		C154.2,73,163.1,68.9,158,64.4z M180.9,99.6c0.1-2.4,0.5-4.8,1-7.2C180.9,94.2,179.9,97.3,180.9,99.6L180.9,99.6z M180.2,106.9
		c-1.1-4.5,0.3-11.3-3.1-13.7C179.6,96.6,178.8,102.7,180.2,106.9L180.2,106.9z M181.2,107.5c1.4,0.7,0.7,3.1,1.8,4.1
		c0.3-1-1.1-2.1-0.3-3.1c1,0.3,1,1.4,1.7,2.1C185,108.9,182.3,106.9,181.2,107.5"/>
	<path id="path12510" class="st0" d="M190.4,145.2c-1.3,0.3-2.7,0.3-4.1,0c0-19.1,0-36.9,0.3-56.1c4.4,2.4,8.2,5.8,12.3,8.6
		c0.7,1.3,1.8,2,2.1,3.8c0.7-4.5,0-11.3,0.3-15.4c0.7,4.4,0,10.2,0.3,15.1c1.3-0.8,0.3-3.1,1.7-3.7c0.8,0,0,0.7,0,0.7
		c1.1,0,1.1-0.7,1.1-1.7c-0.3-0.7-1.4,0.3-1.8-0.7c0-1,1.8,0,1.8-1c0.3-1.1-0.3-0.8-0.7-1.4c0.3-1,1.3-2.8,0.3-4.1
		c-0.8,0.3-1.8,0.3-2.1-0.7c0.3-0.8,1-0.8,2.1-0.8c0-0.3-0.3-0.3-0.8-0.3c0.8-0.7,2.1-0.3,2.8-0.3c0,0.7-0.7,0.3-1,0.7
		c0.3,0.8,2.1-0.3,2.1,0.8c0,0.7-0.8,0.7-1.8,1c-0.3,0.3-0.3,0.3-0.3,1c0.7,1.1,0,1.8,1,2.8c-0.3,0.3-1.3,0-1,0.7
		c-0.3,1.8,1.8,0.4,1.3,1.8c0.4,0.7-0.7,0.3-1.3,0.3c0.1,0.9,0.5,1.7,1,2.4c0.3-0.3-1-1,0-1.4c1.4,1.1,0.8,3.1,1.4,4.8
		c0.7-5.5,0-11.3,0.3-15.7c1.3,4.4,0,9.6,0.7,15.7c0.3-1.4,1.4-3.4,1.4-5.5c-0.3-0.3-1.4,0-1.1-0.7c0-1,1.4-0.3,1.4-1.3
		c0-0.8-1.1-0.4-1.4-1.1c0-1.3,1.4-0.7,0.3-2c0.8,0,1.1-0.4,1.1-1.4c0-0.7-1.1-0.7-1.4-1c0-1.1,1.1-1.1,0-1.8c1.1,0,2.1-0.3,2.7,0
		c-1.3,0.7,0.3,0.7,0,2.1c0,0.3-0.3,0.3-1,0.3c0,0.3,0,2.1,1,1.8c-1,1,0.3,1,0.3,1.7c-0.3,0.7-1.3,0.7-1.3,1.4c0,1,1,0.7,1.3,1
		c0,0.7-0.3,1-1.3,0.7c0,2.1,0.3,3.8,1.3,4.8c0.3-5,0.3-10,0-15.1c-5.1-0.3-10.9,0-16.1,0v-1.1c5.8-0.3,12.6-0.7,18.1,0
		c0,1.1-1,0.8-1.3,1.1c0.3,5.5,0,12,0.3,17.4c-1.8-0.7-1.8-2.3-2.4-4.1c-1.7,0.3-1,3.4-2.7,4.1c0.3,1.8,2.7,2.4,2.7,3.8
		c-2.7-1.4-3.7-4.8-5.8-6.9c-2.1,1.8-2.8,5.2-5.2,6.9c1.8-2.8,3.1-5.5,5.2-7.9c1,0.7,1.3,2.4,2.4,3.1c-0.3-1.3-1.4-2.7-2.1-4.1
		c-1.8,1.3-2.4,3.4-3.7,5.1c-0.7-1-1.1-2.8-2.1-3.7c-1,1-1,2.7-2.1,3.7c-0.7-1.7,0.4-3.1-0.3-5.4c0.8,1,0.3,2.7,0.8,3.8
		c0.6-0.9,1.1-2,1.3-3.1c-1.3-1-7.1-2.8-8.2-0.3c-0.7,1.7-0.3,5.1-0.3,7.2c-0.3,7.2,0,13.3,0,19.1
		C190.4,130.8,190.1,138.7,190.4,145.2"/>
	<path id="path12514" class="st0" d="M154.9,98.3c0-2.1,1.7-2.1,2.7-2.8c0.4-1.8-0.7-2.1-1.3-3.4c0.7,0,1.8,1.7,2.4,2.4
		C158.3,95.9,156.9,98.3,154.9,98.3"/>
	<path id="path12522" class="st0" d="M153.5,102.4c1,0.3,0.7,3.4,0.7,4.5c4.5-2.8,7.2,2.7,11.7,2c0.7,0,1.4-0.7,2.1-0.3
		c-1,0.7-2.2,1.1-3.4,1c0.3,1.1,2.3,0.4,3.4,0.4c-1.4,1.7-4.2,1.3-5.8,0c0.3,0.7,1.7,2.3,3.1,2.3c4.4,0,7.8-9.2,13-4.4
		c2.4,4.7-4.1,10.6-1.3,14c-0.3,0.3-1.1,0-1.8,0.3c-0.3-1-0.7-2-1-3.4c-0.3,1.1,0.3,2.8,0,3.4H173c-0.3-0.7,0-2,0-2.7
		c-1,0.3-0.3,2-1,2.7c-0.7-3.1,2.4-6.2,2.8-9.6c-1.3,3.1-3.4,5.8-4.1,9.6c-0.9-0.2-1.8-0.2-2.7,0c2-3.7,4.1-6.8,5.8-10.9
		c-2,3.8-4.3,7.5-6.9,10.9h-3.1c-1.5-3.5-3.3-7-5.4-10.2c0.7,3,3.4,6.1,3.7,10.2c-1.4,0-1-1.3-1.4-2c-0.3,0.7,0.4,1,0,2h-1.3
		c0-1.3,0.7-2.3,0-3.4c-0.3,1.4-0.3,2.8-1.3,3.4h-1.8c0.3-1.3,2.1-2.3,1.3-4.4c-0.3,0,0,0.7-0.3,0.7c-1-0.3-0.7-1-1-2
		c-1-2.8-3.7-6.5-2.1-9.6C153.2,106.1,153.2,103.8,153.5,102.4z M165.8,117.8c-0.7,0-1-0.7-1.7-1c2.3,5.4,7.2-4.8,7.5-6.5
		C169.9,113,168.6,116,165.8,117.8z M165.8,116c1.4-0.3,2.4-2.7,3.1-3.4c-1.3,0.8-2.1,2.1-3.4,2.8c-2.1-1-3.4-3.1-5.5-4.4
		C161.4,112.3,163.4,116.5,165.8,116L165.8,116z M165.5,120.9c1.2-0.5,2.1-1.5,2.4-2.8c-1.1,0.3-1.4,1.4-2.4,1.8
		c-2.4-2.1-3.7-5.5-6.2-7.9C161.4,115,162.7,118.8,165.5,120.9z M175.1,119.5c0.7,0,0.7-1.8,0.3-1.4
		C175.4,118.8,175.1,118.8,175.1,119.5"/>
	<path id="path12526" class="st0" d="M161.7,100.3c3.4,0,5.1,1.4,7.5,2.4c0,0.7,0.3,1.4,0.3,2.4c-2-0.3-3.4-1.3-4.7-0.3
		c-0.6-0.3-1.2-0.8-1.4-1.4c0-0.7,0.3-1,0.8-1.7C163.7,100.7,162.1,101.4,161.7,100.3"/>
	<path id="path12530" class="st0" d="M139.9,117.1c-1.2-1.1-2.6-1.9-4.2-2.4c-0.3,0.7,1.1,1.3,1.4,2.1c-1.1,0-1.7-1.1-2.1-1.8
		c-0.7,0.3-0.7,1.8-2.1,1.8c0.3-1.1,1.4-0.8,1.1-2.1c-0.8,0-0.8,0.7-1.7,0.7v-0.7c0.3-0.7,1.4-0.7,2.4-1c0-1.7-1-1.4-1.4-2.7
		c-0.3,0.3,0,1.3-0.3,1.7c-0.7-0.3,0-1.7-0.7-1.7c-0.3,0.3-0.3,1.7-0.7,2c-0.3-0.3,0-2-0.7-2.7c-0.7,0.7,0,2.3-0.3,3.4
		c-0.4-1.1,0-2.7-0.8-3.7c-0.3,1,0,3-0.3,4.4c-0.7-1-0.7-4.1-0.3-5.5c2.4-0.3,4.1,2.1,5.5,0.3c0.3-1-0.7-0.7-0.7-1.3
		c0.3-0.3,0.7-0.7,1.3-0.3c0.3,0.3,0.3,1,0.3,2c2.1,1.1,2.7-1.7,4.8-1.7c1,2.1,0.3,4.1,0.7,6.5c-0.7-1-0.3-3.4-0.7-5.2
		c-0.7,1.1-0.3,2.8-0.3,4.5c-0.8-0.8,0-3.1-0.8-4.2c-0.7,0.8-0.3,2.4-0.3,3.8c-0.7-0.8-0.3-2.1-0.7-3.1c-0.7,0.7-0.3,1.3-0.7,2.7
		c-0.7-0.3-0.3-1.3-0.3-2.3c-1.1,0-0.3,1-0.7,1.7c-0.4,0.3-0.8,0-0.4-0.3c-0.7,0-0.7,0.7-0.7,1.4c1.4,0.7,2.1,2.7,4.8,2.7
		c-0.3,0.4-0.3,0.8,0.3,0.8C140.8,117.1,139.4,116,139.9,117.1"/>
	<path id="path12534" class="st0" d="M227.1,124.3c-1,0,0,0.7-0.3,1c-0.7,0-0.7-0.7-0.7-1c1.7-1.3,3.1,0.3,4.1,1.4
		c0.7-0.4,1.8-0.4,2.1-1.4c-2.4-0.3-6.2-2.7-7.9-0.3c-0.7-0.3-1-1-1.3-1.3c0.3-1.1,1.3-1.4,2.1-2.1c2,0.7,3.8,1.7,6.5,1.7
		c0.6,1.2,1.4,2.2,2.3,3.1c-1.1,0.8-2.4,1.4-3.7,1.8C229.8,125.3,229.2,123.9,227.1,124.3"/>
	<path id="path12538" class="st0" d="M179.6,161.2c7.8-2.7,15.7-6.1,21.9-10.6c5.5-5.4,11.3-10.6,14.7-18.1c-2.8,3.1-6.9,6.2-12,6.2
		c-13.7-0.3-14.7-18.5-12.3-32.5c5.8,0.8,11.6,1.8,17.4,1.4c0.8,0,1.1-0.7,1.8-0.7c1.3,0,2.7,0.3,4.4,0.3c2.4-0.3,4.5-1.1,6.9-1.4
		c0.7-5.8-1.1-11.2-2.8-16.1c-4.3-14.2-14.2-26-27.4-32.7c0-0.2-0.1-0.3-0.3-0.3c0,0,0,0,0,0l0.3-0.4c0,0,0,0.4,0.3,0.4
		c9.7,4.7,17.7,12.4,22.9,21.9c5.8,9.6,8.9,21.8,7.2,36.2c-1.7,11.4-6.9,22-14.7,30.5C200.4,153,191.1,159.1,179.6,161.2z
		 M211,135.6c1.7,0,1.3-3.1,3.1-2.7c0.5-0.3,0.6-0.9,0.3-1.4c1,0.3,1.4-1.3,1.8-2.3C214.1,131,212.4,133.2,211,135.6z M217.5,125
		c-8.3,0.9-16.7,1-25,0.3c-0.2,1.4,0.2,2.7,1,3.8c0.3,1.3,0.7,3.1,1.8,3.1c0.7-0.8-1.4-1.1-0.7-1.8c0.7,0.3,0.7,1,1.3,1
		c1.8-1.7,2.8-3.7,4.4-5.1c-1.4,2.3-3.1,4.3-5.1,6.2c0.6,1.4,1.7,2.5,3.1,3.1c3.1-2.7,5.1-6.5,8.1-9.2c-2.3,3.4-5.4,6.2-7.8,9.6
		c1-0.3,1,1,2.1,1c0.3-0.7-0.8-1-0.8-1.7c0.3-3.5,6.2,0.3,2.1,2c1.8,0.3,2.4-1.3,3.1-2.4c2.4-3.1,4.8-6.5,7.6-8.8
		c-1.1,2-3.1,3.4-4.5,5.7c1.1,0.7,2.1,1.6,2.8,2.8C213.4,131.4,216.8,129.8,217.5,125z M220.9,107.6c0-0.3,0-0.3-0.3-0.3
		c-8.6,1.7-19.5,1.3-28.1,0.3c-1,1.7-0.7,4.8-0.7,6.8c1.7-1.8,3.4-4.4,5.1-5.8c-0.7,1.3-1.6,2.5-2.7,3.4c-1,1.4-2.7,2.4-2.3,4.5
		c4.4,0.7,8.9,1,13.3,1c2.9,0.1,5.7-0.1,8.6-0.3c-0.3-1.4-2.1-2.1-2.1-3.1c0.6,0.9,1.3,1.7,2.1,2.4c0.3-0.4,1-1.1,0.7-1.4
		c-4.1,0.7-1-5.5,1-2.1c0.4-1-1-1-1-2.3c0.7,0.3,0.7,1.3,1.8,1.7c0-0.7,0.3-0.3,0.3-1c-3.1,0,0.3-4.8,2-1.8c0-1-1-1-0.7-1.3
		c0.7,0,0.7,0.3,0.7,0.7C219.6,108.6,219.9,107.9,220.9,107.6L220.9,107.6z M222.3,107.6c-5.5,2.4-11.7,13.7-2.8,17.1
		C220.9,119.5,222.7,113.7,222.3,107.6L222.3,107.6z M216.8,111.3c0.3-0.7,1-1,1-1.8C216.5,107.2,213.8,111,216.8,111.3L216.8,111.3
		z M214.8,114.8c0.3-0.5,0.4-1.1,0.3-1.8C212.3,110.6,211.7,116.5,214.8,114.8L214.8,114.8z M191.9,117.8c-0.3,0-0.3,0-0.3,0.3
		c0,2.3,0.2,4.6,0.7,6.8c8.2,0.4,16.4,0.3,24.6-0.3c-0.7-1.7-3.4-3.4-3.1-6.8C206.9,118.1,198.7,118.1,191.9,117.8L191.9,117.8z
		 M207.9,131.8c-1.4,2.1-3.1,3.5-4.1,5.5h2.3c0.3-0.3-1-1-0.7-1.7c0.6,0.4,1.1,1,1.4,1.7c0.7,0,1.3,0,1.7-0.7
		c-2.7,0.3-2.7-2.8-1-3.1c0.9-0.2,1.8,0.4,2,1.3c0.2,0.7-0.1,1.4-0.7,1.8c1.1,0,1.7-1,2.1-2.1C210,133.9,209.3,132.5,207.9,131.8
		L207.9,131.8z M206.5,135.3c0.8,1,2.1,1.3,2.8,0.3c-0.1-0.6-0.3-1.2-0.7-1.8C207.7,133.9,206.8,134.4,206.5,135.3L206.5,135.3z
		 M200.4,135.7c0.5,0.9,1.6,1.3,2.5,0.8c0.1,0,0.2-0.1,0.3-0.2C204.2,133.9,200.4,133.6,200.4,135.7"/>
	<path id="path12542" class="st0" d="M215.4,127c0,0.3,0.4,1.3,0,2.1C211.7,131.4,211.7,124.3,215.4,127z M214.1,126.7
		c-0.7,0-0.3,0.3-1,0.3C211.7,131.7,217.5,127,214.1,126.7"/>
	<path id="path12546" class="st0" d="M211.7,130.1c0.8,0.2,1.3,1.1,1.1,1.9c-0.2,0.6-0.8,1.1-1.4,1.1
		C208.9,133.5,209.3,128.7,211.7,130.1z M210,131.8c0.7,2.8,3.7-1,1.7-1.7c-0.7-0.2-1.4,0.2-1.7,0.9
		C209.9,131.2,209.9,131.5,210,131.8"/>
	<path id="path12550" class="st0" d="M185,131.8c-1.3-0.3-3.4-0.3-4.4,0.4c0.3,0.3,1,0,1,0.3c0,2.6-0.5,5.1-1.3,7.5
		c-0.5,0.3-1.2,0.3-1.7,0c0.7-2.1,1.7-4.1,1.7-6.8c-0.7,0-0.3,1-0.3,1.7c-1.8,2.8-5.2,0.8-5.8-1.3c0.3-0.7,0.7-1.8,1.7-1.3
		c0.3,0.7-0.7,0.7-0.7,1.3c0.3-0.3,2.1-0.3,2.4,0.7c2.4-1,3.1-3.4,6.8-3.4C184.3,131.4,185,131.1,185,131.8"/>
	<path id="path12554" class="st0" d="M182.3,152.7c-0.4-0.7-1.4-0.3-2.1-0.3c0-2.8,2.1-2.1,4.8-2.1c-1,1.4-2.7,2.4-3.4,4.2
		C181.2,154.1,181.9,153.3,182.3,152.7"/>
	<path id="path12558" class="st0" d="M180.6,153.7c-2.4,4.8-2.1,12-3.1,17.8c-0.7,4.8-3.1,8.2-8.2,9.2c-4.4,0.7-10.6-0.3-12-4.1
		c0.8-0.3,1.8,1.4,2.4,1.7c0.3-0.3,1-0.3,1-1s-1-0.7-1.7-1c0.3-0.5,0.1-1.1-0.3-1.4c-1.1,0-1.1,1-1.8,1.4c-3.4-5.8-1.7-17.1-5.2-23
		C161.3,152.9,171,153,180.6,153.7z M153.2,154.1c0.7,3,1.7,5.7,2.1,9.6h8.9c0-3.8-0.4-5.8-0.4-9.6
		C161.1,154.1,156.6,153.7,153.2,154.1z M166.2,165.6c-1.7,0.3-3.4,0.3-5.1,0c-1.9-0.1-3.9,0-5.8,0.3c1.9,0.3,3.9,0.4,5.8,0.3h5.1
		c0,4.2,0,9.2,0.3,13.7c0.3-4.2-0.3-9.6,0.3-13.7c2.8-0.3,5.8,0,10.3-0.3c-1.7-0.3-3.4-0.4-5.2-0.3c-1.7,0.3-3.5,0.3-5.2,0
		c-0.7-4.1,0.4-7.8-0.7-11.6C166.1,157.5,166.5,162.2,166.2,165.6L166.2,165.6z M172.7,157.1c0.1-0.6-0.2-1.3-0.7-1.7
		c-0.7,0-1,0.7-1,1.7c-0.7,0-0.7,0.4-1.4,0.8c0.3-1.4,1.4-2.1,1.8-3.1c-0.7-0.5-1.6-0.7-2.4-0.7c0.3,3-0.3,7.1,0.3,9.6h4.2
		c1.5,0.1,3-0.1,4.4-0.4c0.3-3.1,0.7-5.7,0.3-7.8c0.7,0,0.3,0.3,0.7,0.7c0-0.7,0.8-1,0.8-1.7c-2.7-0.3-5.5-0.3-8.2,0
		c0,0.3,0.3,0,0.7,0c0.3,0,0.7-0.3,1,0.3c-0.3,0-1,0-0.7,0.7c0.7,0.7,1.7,0.7,1.7,2.1c1.6,0.5,2.9,1.6,3.8,3.1c-1,0.7-1.3,2-2.8,2.3
		c0.3-1.3,1.4-1.7,2.1-2.3c0-1.1-1.1-0.8-1.7-1.1c0-0.7,0-1-0.7-1c-1-0.3-0.7,1-1,1.3c-0.7-0.1-1.3,0.4-1.4,1.1c0,0.1,0,0.2,0,0.3
		c0.3,0,0.7,0.3,1.4,0.3c0,0.3,0.7,1,0.3,1.3c-1.1-0.3-1.4-1.3-2.4-1.7c-0.7,0.3-1,2-2.1,1.7c0.3-0.9,0.9-1.6,1.8-2
		c-0.3-1.1-1.4-1.4-1.8-2.7c1.4,0,1.1,1.7,2.4,2.4c0.3-1.4,1.8-1.8,2.1-2.8c0-0.3-0.3-0.3-0.7-0.3
		C173.1,157.5,172.6,157.5,172.7,157.1L172.7,157.1z M168.9,168.4c0.3,4.4,0,7.9,0,11.3c2.4,0.3,8.9-3.8,5.8-5.5
		c-0.7,0-0.3,1-0.7,1.3c-0.9-0.1-1.7,0.3-2.1,1.1c0.3,0.7,1.8,0.3,1.8,1c-0.3,0-0.8,0.7-1.1,0.3c0.1-0.5-0.3-0.9-0.8-1
		c-0.1,0-0.2,0-0.2,0c-0.3,1-1,1.3-2.1,1.7c0.3-1,1.4-1.3,1.8-2.3c-1-0.4-1.7-1.4-1.8-2.4c1.1,0.3,1.4,1.7,2.4,2
		c0.3-1,1.8-1.3,2.4-2.3c-1-0.3-1.4-1.4-2.4-2.1c-0.4,1-1.3,1.8-2.4,2.1c0-1.4,1.4-1.4,2.4-2.1c-0.3-1-2.1-1-2.1-2.4
		c1.4,0,1.4,1.4,2.4,1.8c0.7-1,1.7-1.8,2.7-2.4c0.4,0.6,1,1.1,1.8,1.4c0,0.7,0,1-0.8,1c-0.7-0.3-0.3-1.8-1.3-1.8
		c-0.4,1-1.1,1.7-2.1,2.1c0,1,0.8,1,1.4,1c0,0.6,0.4,1,0.9,1.1c0,0,0.1,0,0.1,0c0.7,0,0.3-1.1,1-1.1c0.4,0,0,0.3,0.8,0.3
		c0-1.3,0.7-3.1,0-4.4c-1.3,0.3-2.5,0.4-3.8,0.3H168.9z M162.8,171.1L162.8,171.1c0,0.3,0,0.3-0.3,0.3c-0.3-0.3-0.7-0.3-0.7,0.3
		c0.7,0.3,1.7,1.4,1.3,2.1c-0.7,0-0.7-0.3-1-1.1c-0.3-0.3-0.3-1-1-1c-0.4,0.3-0.4,1.4-0.8,1.8c-0.6-0.1-1.3,0.2-1.7,0.7
		c0,1,1.3,0.7,1.7,1.3c0,0.6,0.3,1.1,0.8,1.4c1,0,1-1.1,1-1.7h0.7c0.3-0.3,0.7-0.3,0.7,0c0,1.1-1.3,1.4-1.7,2.1c0.3,1,1.3,1,1.7,2.1
		c-1.3,0-1-1.4-2.3-1.8c-0.3,0.4-0.5,0.8-0.4,1.3c0.9,0.6,2,0.9,3.1,0.8c0.7-3.8,0-7.2,0-11.3h-7.9c-1,1.4,0,3.1,0,4.8
		c0.3,0,0.3,0,0.7-0.4c0-0.3,0-0.3,0.3-0.3c1.1,0.3,0.7,1.4,1.1,1.8c1.1-0.7,2-1.7,2.7-2.8c-0.7-0.7-1.7-0.7-1.7-2.1h-0.7
		c-0.3,0.8-1.1,2.1-2.1,1.8c0.7-1,1-2.1,2.4-2.4c1,0.7,1.7,1.8,2.7,2.4c0.7-0.7,0.7-1.8,1.7-1.8
		C163.1,169.8,162.4,170.8,162.8,171.1"/>
	<path id="path12562" class="st0" d="M176.8,155.4c0,0-0.3,1,0,1.3c-0.8,0-1.1,0.3-1.4,0.3v-1C175.7,155.7,176.5,155.7,176.8,155.4"
		/>
	<path id="path12566" class="st0" d="M141.9,159.5c0,0.3,0.7,0,1.1,0.3c0,1.1-1.1,1.1-1.8,0.8c-0.3-3.1,3.4-2.4,3.4,0
		C144.6,159.2,142.2,157.8,141.9,159.5"/>
	<path id="path12570" class="st0" d="M163.7,44.6c1.1,0.3,0.4-1.1,0.7-1.1c1.3-0.3,4.4-1.3,4.4,0.4c0.7,0.3,0.3-0.8,1-0.4
		c0.4,1.1-0.7,0.8-1,1.4c0.3,1.7-0.3,2.4-1,3.4C165.1,48.7,164.8,46.3,163.7,44.6z M165.1,44.3c0,0.3,1.3,0.3,1,0
		C166.1,43.5,165.5,44,165.1,44.3z M166.8,46.6c0.7-0.1,1.1-0.7,1.1-1.3c0-0.2-0.1-0.5-0.3-0.7c0.3-0.3,0.6-0.4,1-0.3
		c-0.3-0.3-0.6-0.4-1-0.3C167.2,44.6,167.6,46.3,166.8,46.6z M167.6,47c-0.3,0.3-0.3,0-1.1,0C166.1,47.7,167.9,47.7,167.6,47"/>
	<path id="path12574" class="st0" d="M176.1,44c0.8-3.8,6.9-3.5,6.9,0.3c-1.1-1.4-4.8-1.4-6.2-0.3c1,0,2.8-0.4,4.1,0
		c0.7,0,0.7,0.7,1.4,0.7c-1.1,1.7-1.4,4.7-3.5,4.4C176.7,48.8,177.5,45.3,176.1,44z M178.8,45c0.8-0.3,1.4,0.3,1.8,0
		C180.1,44.5,179.4,44.5,178.8,45C178.8,45,178.8,45,178.8,45z M178.1,45c-0.3-0.3-0.7-0.3-0.7,0c0.7,0,0,0.7-0.3,0.7
		c0.7,0,0.7,0.7,0.7,1.4"/>
	<path id="path12578" class="st0" d="M156.9,44c0,2-0.3,5.4-2.4,5.4c-2,0.3-3.8-3.7-2-5.8C154,43.3,155.5,43.5,156.9,44z
		 M152.8,44.7c0,0.3,1.3,0.3,1.7,0C154,44.3,153.3,44.3,152.8,44.7L152.8,44.7z M155.2,47.1c0.7-0.4,0.3-1.4,1.3-1.1
		c0.3-1-0.7-0.3-0.7-0.7c0-0.7,0.7,0,0.7-0.7C155.2,44,155.6,46,155.2,47.1L155.2,47.1z M153.5,45.6c0.2,0.2,0.5,0.2,0.7,0
		c0,0,0,0,0,0C154.5,45,153.5,45,153.5,45.6z M155.6,47.7c-0.3-0.3-1.1,0-1.4,0C154.2,48,155.6,48,155.6,47.7"/>
	<path id="path12582" class="st0" d="M162.7,86c2.4-1.4,5.5-1,7.9,0.3c0.3,3.1-1.4,8.2-4.5,7.5C163.4,93.5,162.4,89.7,162.7,86z
		 M163.7,87c0.7-0.3,1.4-0.3,2.1,0c0-0.7-0.7,0-0.3-0.7C164.5,86.3,164.1,86.3,163.7,87z M167.6,87.7c0.3-1,1.7-0.3,2-0.7
		C169.2,86,166.8,86.7,167.6,87.7z M163.7,88.4c0.7-0.3,0.4,0.7,1.1,0.3c0.4,0,0.6-0.3,0.7-0.7C164.8,88.4,164.1,87.7,163.7,88.4z
		 M167.9,88.4c0.3,0,0.7,0.3,1,0.7c0-0.7,0.3-0.7,0.7-0.7C169.1,88.1,168.4,88.1,167.9,88.4z M166.1,90.7h1.4c0-0.3,0-1-0.3-1
		C167.6,90.7,166.5,90.4,166.1,90.7z M167.9,92.2c0-0.7-2.1-0.3-2.4-0.3C166.1,92.2,167.2,91.8,167.9,92.2"/>
	<path id="path12586" class="st0" d="M130.2,86.7c0,0.3-0.7,0.3-0.7,1c0.3,0.4,1.8,0,1.8,0.8c-0.3,1-1.8,0.7-2.4,1v1
		c0,0.8,1,0.3,1,0.3c-0.3,1.1,0.3,1.4,0,2.4c0.8-0.7-0.3-1.7,0.8-2.4c0.3,0.4-0.4,0.4-0.4,1.1c0.7,0.2,1.2,0.9,1.1,1.7
		c-0.7,0.3-1.4,0.3-2.1,0c-0.3,0.3,0,1.1,0,1.1c0.3,0.7,1.4,0.3,1.4,1s-0.8,0.7-1.1,0.7v1.4c0.7,0,0.7-0.3,1.1-0.3
		c0,0.7,0,1,0.7,1.3c-1.1,1-0.3,2.1,0,3.1c-1.1-1-1.4-2.8-2.1-4.4c-1.3,1-1.7,3-2.8,4.1c-1-0.7,1.4-1.8,0-2.4
		c0.3-0.7,0.7-0.7,0.7-1.3c0.4,0,0.4,0.3,0.8,0.3c0.4-0.3,0.7-0.9,0.7-1.4c0-0.7-1-0.3-1.4-0.3c0-0.3,0-0.3-0.3-0.3
		c0-0.3,0.3-0.3,0.3-0.7h1.1c0.7,0,0.3-1,0.3-1.8c-0.7-0.3-1.8,0.8-2.4,0v-1.3c0.3,0,0.3-0.3,1-0.3c0-0.3-0.7-0.7-0.3-1.1
		c0.8,0.4,1.1,0,1.8,0c0.7-2.3-1.8-1.3-2.4-2c0-1.1,1.4-0.7,1.8-1.4c0-0.3-0.8-0.3-1.1-0.7C127.9,86.3,129.1,86.3,130.2,86.7"/>
	<path id="path12590" class="st0" d="M151.8,115.4c0.4,0.3,0.4,1.4,0.4,2.4c-0.8-0.3-1.1,0-1.4,0.7c0,0.3,0.7,2.1-0.7,2.1
		c1.7,0.7,0.3-1.8,2.1-1.4c0.3,1.4-0.8,2.1-1.1,3.1h-2c-1.4-1-2.1-4.4-1.1-6.5C149.1,115.4,150.8,115.7,151.8,115.4z M148.7,118.1
		c0-0.3,1.1,0,1.4,0C150.1,117.1,148,117.5,148.7,118.1z M149.1,119.1c0.7,0,1,0,1-0.3C149.8,118.1,148.7,118.1,149.1,119.1z
		 M150.8,121.5c0.3-0.7-1-0.7-1-0.3C150.1,121.5,150.4,121.2,150.8,121.5"/>
	<path id="path12594" class="st0" d="M186,115.7c0,3.4-0.3,7.6-4.5,6.5c-1-1.3-1-4.1-1-6.5C181.9,115,183.6,115.7,186,115.7z
		 M181.8,118.1c-0.3,0.3-1,0-1,0.7c1.4-0.3,0.7,2.8,2.1,1.4c-1.4,0-0.3-1.4-0.7-2.4c-0.4-0.3-0.9-0.4-1.4-0.3
		C180.9,118.1,181.9,117.5,181.8,118.1L181.8,118.1z M183.2,118.1c0.3,0,0.7-0.3,1.3,0C184.6,117.5,183.3,117.5,183.2,118.1
		L183.2,118.1z M183.2,118.8c0,0.2,0.1,0.3,0.3,0.3c0,0,0,0,0,0c0.3,0,0.7,0,0.7-0.7C183.9,118.4,183.5,118.5,183.2,118.8
		L183.2,118.8z M182.2,121.2h1C183.6,120.9,181.8,120.9,182.2,121.2"/>
	<path id="path12598" class="st0" d="M168.6,125.7c0.8,1.2,0.9,2.7,0.3,4.1c-1,0.3-2.8,0-3.8,0.3
		C163.4,127.7,165.1,124.3,168.6,125.7z M168.6,129.1c0.3-0.4,0.7-1.1,0-1.1C168.6,128,168.2,129.1,168.6,129.1"/>
	<path id="path12602" class="st0" d="M151.8,127.4c0.8,0.3,1.1,1.3,1.8,1.8c-0.3,0.3-1,1,0,1c-0.5,0.6-0.6,1.4-0.3,2.1
		c-1.8,0-1-1.8-2.4-1.8c0.3-0.7,0.7-1.3,0-2.1C150.8,128,151.1,127.7,151.8,127.4"/>
	<path id="path12606" class="st0" d="M115.9,131.4c-2.8-5.7-5.2-11.9-5.5-19.8c-1.3-14.1,2.6-28.2,10.9-39.7c-1.3,0.4-2,2.1-2.3,3.5
		c-1.2-1-1.9-2.3-2.1-3.8c-1.2,0.2-2.5-0.2-3.4-1c-0.9-0.6-2-1-3.1-1c0.1-1.6-0.1-3.2-0.3-4.8c1.7-0.7,3.8-1.3,5.8-2
		c0,0.7-0.8,0.7-0.8,1.3c0.8,1,1.8,1,3.1,0.7c0,0.7-0.7,0.7-0.3,1.4s0.8,0.3,1.1,0.3s0.7-0.3,1,0c2.1,0.3,0.7,3.4,1.8,4.8
		c3.1-3.1,5.4-6.2,8.9-8.5c3.1-2.4,6.8-5.2,10.6-6.6c-3.7,2.4-7.5,4.5-10.6,6.9c-3.2,2.6-6.1,5.5-8.6,8.8
		c-6.5,8.6-11,18.8-11.3,33.5c10.2,1.8,20.9,0.7,30.8,0c2.8,13,0,31.5-12.6,32.5c-9.6,0.8-12.7-7.2-15.1-14.3
		c5.2-4.1,2.4-14.7-2.8-16.4c-0.7,7.7,0.9,15.4,4.5,22.2c1,2.4,2.3,4.7,3.7,6.8c7.1,11.1,17.9,19.5,30.5,23.6c1,0.3,2.4,0.3,3.4,1.4
		c-17.8-4.5-29.5-15.1-37-29.5c-0.7,0.4-1.4,0-2.1,0s-1-0.3-1.7-0.3c-0.8,0.3-0.4,1.4-0.4,2.1c-1.7,0.7-3.4,1-4.1,2.4
		c-2.1,0-3.4-0.7-5.5-1.1c0-2,1.1-3.4,1.4-5.7c0.3,0,0.3,0.7,1,1c1-0.3,1.4-0.7,1.7-2.1c0.7,0,0.3,1.1,1,1.1
		c1.8-0.4,1.3-2.4,3.4-2.4c1.5-0.2,2.9,0.6,3.4,2C114.8,129.8,114.5,131.4,115.9,131.4z M111.1,66.9c1.8,0.7,4.1,4.1,5.8,1.7
		C115.6,66.9,113.1,64.4,111.1,66.9z M120.6,69.9c0.3-1.4-2-2.1-3.4-0.7c0,1.7,0,3.4,1,4.4C117.9,71.9,120.6,71.3,120.6,69.9z
		 M112.5,106.9c2.7,2.7,5.7,6.1,5.1,11.9c0.7-0.7,1.4,0,2.4,0.3c1,0.8,2.1,1.4,2.8-0.3c-0.3-0.7-1-0.7-1-1c1-1.3,2,0.3,2,1.8
		c1.8,0.7,2.8-0.8,4.2-1.1c0.6,1.8,0.7,3.7,0.3,5.5c-0.3,0-0.3-0.3-0.3-0.7c0.1-0.7-0.1-1.4-0.3-2.1c-0.4-2.1,0.3,2.1-0.4,2.4
		c-0.3-0.7,0-2.4-0.7-2.8c0,0.7,0.3,1.8-0.3,2.1c-0.3-0.3,0-1.8-0.7-2.1c0,0.6-0.1,1.2-0.3,1.8c0.1-0.5-0.1-1-0.3-1.4
		c-0.4-0.3-0.4,0-0.4,0.3s0,0.7-0.3,0.7c0-0.3,0-0.7-0.3-0.7c0,0.3-0.3,0.7-0.3,1.4c0.7,0.3,2.4,1,1.8,2c-0.7-0.3-1.2-0.8-1.8-1.3
		c-0.3,1.7,1,1.7,1,3.1c-1-0.3-0.7-1.4-1.7-1.8c-0.7,0.3-0.7,1.1-1.4,1.4c0.4-1.1,1.1-1.1,0.8-2.1c-0.8,0.3-1.8,0.7-2.8,1
		c0,0,0.3,0,0,0.8c-0.7-0.8-1.1,0.3-1.4,0.7c0-1-1-0.7-1-1c0.7,0.3,0.3-0.8,0.7-0.8c2.4,0.8,2.7-1.7,4.5-2v-1.8
		c-0.8-0.3-0.3,0.7-1.1,1c-0.3-0.3,0.3-1.3-0.3-1.3c-0.3,0.7,0,1-0.3,1.8c-0.7,0,0-1.8-0.7-2.1c-0.6,0.3,0.4,2.5-0.6,2.5
		c0-1.1,0.3-2.4-0.3-2.8c-0.8,0.7,0.3,3.1-0.8,3.4c-0.3-1.4,0-2.8-0.3-3.8c-0.7,0-0.3,0.7-0.7,1c1,0.3,0.3,3.1,0,3.4
		c0.1-0.9,0-1.9-0.3-2.7c-0.7,1.1-1.8,1.4-2.1,2.4c1.7,5.8,4.5,11.7,10.7,13c2.8,0.3,6.5,0,8.2-1.7c-2,0.3-2.3-1.4-4.1-1.8
		c-0.1,1.1,0.5,2.2,1.4,2.8c-1.4,0.3-1.8-0.7-2.1-1.8c-0.7,0.3-1,2.1-2.1,1.4c0.9-0.7,1.4-1.7,1.4-2.7c-0.8,1-3.1,1-2.4,2.1
		c-1.1-0.4-0.7,1-1.4,1c0-0.7,0-0.7-0.3-0.3c-0.3,0-0.3,0-0.3-0.3c0-0.8,0.7-0.3,0.3-1.1c1.8,0,2.8-1.7,3.8-2.8
		c-0.4-0.3-0.4-1-0.8-1.3c-0.3,0.3,0,1.3-0.7,1c0-0.3-0.3-0.7-0.3-1.3c-0.7,0.3,0,1.3-1,1.3c0-0.3,0.3-1.3-0.4-1.3
		c0,0.7,0.4,2.1-0.3,2.1c-0.3-0.8-0.3-1.8-0.7-2.4c0,1,0.3,2.7-0.7,2.7c0-1.1,0.3-2.4-0.7-2.7c0,1.3,0.3,3.1-0.8,3.4
		c0.4-1.8,0-3.1,0-4.5c1-0.6,2.3-0.4,3.1,0.4c1.4,0.3,2.4,0.7,3.8,0c0.3-1.1-0.7-1.4-0.7-1.8c2-1.3,1.3,1,2,2.1
		c0.9,0.3,1.9,0.2,2.8-0.3c0.7-0.5,1.5-0.7,2.4-0.8c1,1.4,0,3.8,0.3,5.2c-1-1-0.3-2.8-0.7-4.1c-0.7,1,0,2.8-0.3,3.4
		c-0.8-0.3-0.3-1.8-0.3-2.8c-1.1,0,0,2.1-1.1,2.4c-0.3-0.3,0.3-2.1-0.3-2.1c-0.3,0.3,0,1.3-0.3,1.8c-0.7,0,0-1.8-0.7-1.8
		c-0.3,0,0,1.3-0.3,1.3s-0.3-0.3-0.3-0.7s0-0.7-0.4-0.7c0,0.7-0.3,1.8-0.7,1c-0.7,1.8,1.8,1.4,1.8,2.8h1.7c-0.3,0.7,0.3,0.7,0.8,1.1
		c3.9-2.7,6.5-6.9,7.2-11.7c-1,0-0.3-3.1-0.7-4.1c-0.3,1,0,2.7-0.8,3.4c0-0.8-0.3-1.8-0.3-2.4c-0.3,0,0,1.7-0.3,2.1
		c-0.3-0.8,0-1.8-0.7-2.1c-0.3,0.3,0.3,1.3-0.3,1.7c-0.3-0.3-0.3-1-0.7-1.3c0,0.3,0,1-0.3,1c0-0.4-0.4-0.7-0.8-0.7
		c0,0.3-0.3,0.7-0.3,1.4c2.1,0.3,1.8,2.7,4.2,2.7c-0.4,0,0,0.4,0,1.1c-0.8-0.3-0.8,0-0.8,0.3c0-0.7-0.7-0.7-1-0.7
		c0-0.3,0.7-0.3,0.3-0.8c-1-0.5-1.9-1-2.7-1.7c-0.3,1.7,1.4,2.7,1.8,3.4c-1.4,0.3-1.1-1-2.1-1.3c-0.7,0-1.3,1.7-2.4,1.3
		c1.1-0.8,1.8-2.1,2.1-3.4c-1,0-1,1-1.8,1.3c-0.7-0.3-1,0-1.3,0.3s-0.7,1.1-1,0.8c0-0.8,1-1.1,1.7-1.4c0.3-0.3-0.7-0.3,0-0.7
		s1.1-1,2.1-1c0-1.1,0-1.8-0.7-2.1c0.3,0.7,0,0.7-0.3,1c-0.4-0.7,0-1-0.8-1c0,0.7,0,1-0.3,1.3c0-0.7,0-1.3-0.7-1.3
		c0.1,0.6,0,1.2-0.3,1.8c0-1.1,0-1.8-0.7-2.4c-0.3,1,0.3,2.4-0.3,3.1c0-1.1,0-2.4-0.8-3.1c-0.3,1,0.3,3.1-0.3,3.8
		c0-1.8-0.3-3.8,0-5.2c0.9-0.2,1.9-0.1,2.8,0.3c0.7,0.5,1.5,0.7,2.4,0.8c0-0.3,0.3-0.8,0.3-1.1c0-0.7-1-0.7-1-1.3
		c0.7,0,1-0.3,1.7-0.3c0.3,0.7,0.3,2.4,1.1,2.7c0.7,0,1.4-0.3,2-0.8c0.6-0.5,1.3-0.7,2.1-0.7v0.3c0,1.1-0.7,3.4,0.3,4.2
		c0.6-5.5,0.4-11-0.3-16.5C131.6,107.2,122,108.2,112.5,106.9L112.5,106.9z M110.4,130.5c1.3,0.3,2.1,1,3.7,0.7
		C114.1,127,110.7,126,110.4,130.5L110.4,130.5z M104.2,134.6c2.8,0,4.1-1.3,6.2-2.3c-0.3-0.8,0.3-0.8,0.3-1.4
		C108,130.5,104.2,131.5,104.2,134.6"/>
	<path id="path14921" class="st1" d="M139.8,152.3v5.8h22.2v-5.8H139.8z"/>
	<path id="path12610" class="st0" d="M162.1,129.1c0.7,0.3,0.7,2.3,0,2.7c0.7,0,1.3-0.3,1.7,0c0,1.4-0.3,2.8-0.7,4.2
		c-0.8-1.9-1.7-3.7-2.8-5.5C161.7,130.8,162.1,130.1,162.1,129.1"/>
	<path id="path12614" class="st2" d="M199.7,199.5h-4.1v13.3h22.2v-5.5h-8.9v-7.5h-4.1v7.5h-5.2V199.5z M217.8,178.3l-7.2,5.2
		c-0.9,0.3-1.7,0.7-2.4,1.3c-1-3.1-3.1-5.1-6.5-5.1c-4.1,0-6.5,3.1-6.5,8.5c0,2.8,0.3,6.2,0.3,8.2h22.2v-5.8h-8.9l8.9-5.5
		L217.8,178.3z M202.4,185.4c1.8,0.1,3.1,1.5,3.1,3.3c0,0.1,0,0.1,0,0.2v1.7h-5.8v-1.3C199.7,186.9,200.8,185.4,202.4,185.4
		L202.4,185.4z M217.8,162.2h-4.4v7.9h-4.8v-7.6h-4.4v7.6h-4.5v-7.9h-4.1v13.6h22.2L217.8,162.2z M217.8,152.3h-22.2v5.8h22.2V152.3
		z M211,130.1c-2.4-0.1-4.5,1.4-5.2,3.7c-0.7-2.1-2.6-3.4-4.8-3.4c-3.8,0-5.8,2.4-5.8,8.6c0,2.8,0.3,6.5,0.3,8.5h22.2v-7.8
		C217.8,132.5,214.1,130.1,211,130.1z M201.8,136.3c2.1,0,2.8,1.7,2.8,4.4v1.4h-5.2V140C199.4,137.3,200.4,136.3,201.8,136.3
		L201.8,136.3z M211,135.9c1.7,0,3.1,1.3,3.1,4.1c0,0.7-0.3,1.8-0.3,2.1h-5.5c-0.3-0.3-0.3-1.4-0.3-1.7
		C207.9,137.6,208.9,135.9,211,135.9z M209.2,106.1h-13.6v5.5h13c3.1,0,5.2,1,5.2,4.4c0,3.1-1.7,4.8-5.2,4.8h-13v5.5H210
		c5.1,0,8.1-3.1,8.1-9.9C218.2,109.2,214.1,106.1,209.2,106.1L209.2,106.1z M217.8,83.6l-7.2,4.8c-0.8,0.5-1.6,1.1-2.4,1.7
		c-1-3.1-3.1-5.5-6.5-5.5c-4.1,0-6.5,3.5-6.5,8.9c0,2.8,0.3,6.2,0.3,7.9h22.2v-5.5h-8.9v-0.3l8.9-5.5L217.8,83.6z M202.4,90.4
		c1.8,0,3.1,1.4,3.1,3.8v1.7h-5.8v-1.7C199.7,92.2,200.8,90.4,202.4,90.4L202.4,90.4z M216.5,62.8h-10.6v5.4h7.2
		c0,0.8,0.3,1.8,0.3,2.8c0,3.4-2.4,6.1-6.9,6.1c-3.6,0.2-6.6-2.5-6.8-6.1c0-0.3,0-0.5,0-0.8c-0.1-2.1,0.4-4.3,1.4-6.2l-4.8-1
		c-0.7,2.3-1,4.7-1,7.2c0,7.8,5.1,12.6,12,12.6c7.2,0,10.9-5.2,10.9-11.7C218.2,68.4,217.6,65.5,216.5,62.8"/>
	<path id="path12618" class="st2" d="M181.2,193h-13.6v5.5h13c3.4,0,5.2,1.3,5.2,4.7c0,3.1-1.4,4.8-4.8,4.8h-13.3v5.4h14.7
		c4.8,0,8.2-3.1,8.2-9.9C190.4,196.1,186.4,193,181.2,193z M190.1,165.3h-22.6v5.2h15.1c-1.6,0.6-3.1,1.4-4.5,2.3l-10.6,6.6v7.5
		h22.6v-5.5h-15.1c1-0.3,2.8-1.3,4.1-2l11-6.9L190.1,165.3z M190.1,152.3h-22.6v5.8h22.6V152.3"/>
	<path id="path12638" class="st3" d="M152.5,158.2h-1.1c-2.2-2.2-4.8-4.2-7.5-5.8h4.4C150.1,154.1,151.8,155.7,152.5,158.2"/>
	<path id="path12642" class="st3" d="M151.8,155.4c-0.9-0.8-1.7-1.7-2.3-2.8c0-0.2-0.1-0.3-0.3-0.3c0,0,0,0,0,0h1
		C150.4,153.7,151.4,154.4,151.8,155.4"/>
	<path id="path12650" class="st3" d="M154.2,158.2h-0.7c-0.3-1.7-0.9-3.3-1.8-4.8c3.8,0,7.2-0.3,10.3-0.3v1.1h-8.9
		C153.5,155.4,153.8,156.7,154.2,158.2"/>
	<path id="path12654" class="st3" d="M144.9,158.2h-1c-1.4-0.7-2.8-1.4-4.1-2.1v-0.3C141.5,156.4,143.3,157.5,144.9,158.2"/>
	<path id="path12626" class="st3" d="M223.3,157.1v-1.3c1-1.1,1.9-2.2,2.8-3.4h1C226,154.1,224.8,155.7,223.3,157.1"/>
	<path id="path12630" class="st4" d="M223.3,153.7V153c0-0.3,0.3-0.3,0.7-0.7h0.3C224,152.7,223.7,153.3,223.3,153.7"/>
	<path id="path12646" class="st3" d="M158,158.2h-0.8c0.3,0,0.3-0.3,0.3-0.7s-0.3-0.8-1-0.8h-0.3c0-0.5-0.3-1-0.7-1.3
		c-0.7,0.1-1.1,0.7-1.1,1.3c0,0,0,0,0,0c-0.7-0.3-0.3-0.7-0.7-0.7c0-0.7,1.4-0.7,0.7-1.7h0.4c0.4,0,0.7,0.1,1,0.3
		c0.3,0.3,0.3,0.7,1,0.7c0.7,0.7,0.3,1.7,1.4,1.7h0.3c0,0.4-0.3,0.4-0.3,1.1H158z M162.1,157.1h-0.3c0-0.7,0-1.3-0.7-1.7
		c-0.8,0-0.8,0.7-1.1,1.3c-0.7,0-1,0.3-1.3,0.3c0-1,1-1.3,1.7-2c0-0.3-0.3-0.3-0.7-0.7h2.1c-0.7,0.7-0.3,1,0.3,1.3V157.1"/>
</g>
</svg>
