<?xml version="1.0" encoding="utf-8"?>
<!-- Generator: Adobe Illustrator 26.0.3, SVG Export Plug-In . SVG Version: 6.00 Build 0)  -->
<svg version="1.0" id="Layer_1" xmlns="http://www.w3.org/2000/svg" xmlns:xlink="http://www.w3.org/1999/xlink" x="0px" y="0px"
	 viewBox="0 0 414.2 300.7" style="enable-background:new 0 0 414.2 300.7;" xml:space="preserve">
<style type="text/css">
	.st0{fill:#1D1D1B;}
</style>
<path class="st0" d="M357.3,157.4c-0.6-1.2-1.3-2.3-2.3-3.2l-0.6-0.5c-2.6-1.8-5.7-2.8-8.9-2.9c-1.6-0.1-3.2,0-4.8,0.3v-7.4
	c1.3,0,2.5,0.1,3.8,0.4c9.6,2.4,12.5,9.6,12.8,10.2l0,0c0.3-0.6,3.2-7.8,12.8-10.3c1.2-0.3,2.5-0.4,3.8-0.4v7.4
	c-1.6-0.3-3.2-0.4-4.8-0.3c-3.2,0-6.3,1-8.9,2.9l-0.6,0.5C358.7,155.1,357.9,156.2,357.3,157.4L357.3,157.4z"/>
<path class="st0" d="M357.4,158.5c0.6,1.2,1.3,2.3,2.3,3.3l0.6,0.5c2.6,1.8,5.7,2.8,8.9,2.9c1.6,0.1,3.2,0,4.8-0.3v7.4
	c-1.3,0-2.5-0.1-3.8-0.4c-9.6-2.4-12.5-9.6-12.8-10.2l0,0c-0.3,0.6-3.2,7.8-12.8,10.3c-1.2,0.3-2.5,0.4-3.8,0.4v-7.4
	c1.6,0.3,3.2,0.4,4.8,0.3c3.2,0,6.3-1,8.9-2.9l0.6-0.5C356,160.9,356.8,159.8,357.4,158.5L357.4,158.5z"/>
<path class="st0" d="M357.1,125.4c0.3,0.1,0.7,0,0.9-0.2c0.3-0.3,0.4-0.6,0.3-1c-0.1-0.5-0.7-0.7-0.7-0.7v-0.5h0.5v-0.4h-0.5V122
	h-0.5v0.6h-0.5v0.4h0.5v0.4c-0.2,0.1-0.4,0.2-0.5,0.3c-0.2,0.3-0.3,0.7-0.2,1C356.5,125.1,356.8,125.3,357.1,125.4"/>
<path class="st0" d="M356.6,126.7c0.1,0.4,0.2,0.9,0.3,1.3c0.2,0,0.4-0.3,0.6-0.3l0.5,0.4c0.1-0.4,0.2-0.9,0.3-1.4l0,0
	c0.6,0,1.1,0.1,1.7,0.3c0.9,0.3,1.8,0.9,2.3,1.8l0.7-0.4c-0.1-0.3-0.3-0.5-0.5-0.7c-1.4-1.2-3.2-1.8-5-1.9c-1.9-0.1-3.8,0.6-5.2,2
	c-0.2,0.2-0.3,0.4-0.4,0.6c0.2,0.2,0.5,0.3,0.7,0.4C353.5,127.5,355,126.8,356.6,126.7"/>
<path class="st0" d="M351.3,128.9l1.5,5h9.2l1.5-5l0,0c-0.3,0.2-0.7,0.4-1,0.6c-0.1,0.2-0.1,0.4-0.2,0.7l-0.3-0.4
	c-0.2-0.1-0.4-0.2-0.6-0.1c-0.3,0.1-0.5,0.4-0.6,0.7c-0.1,0.4,0,0.8,0.3,1.1c0.1,0,0.2,0,0.2,0c0-0.2,0.1-0.4,0.2-0.6
	c0.1-0.1,0.3-0.1,0.4-0.1c0,0,0.1,0.1,0.1,0.2c0.1,0.5-0.3,0.9-0.7,1c0,0-0.1,0-0.2,0c-0.3-0.1-0.6-0.3-0.8-0.5
	c-0.1-0.3-0.1-0.7,0-1.1c0.1,0,0.5-0.2,0.4-0.5c-0.1-0.1-0.2-0.2-0.3-0.3l0.1-1H360l-0.2,0.9c-0.1,0.1-0.3,0.1-0.4,0.2
	c-0.1,0.1-0.1,0.2-0.1,0.3c0.1,0.1,0.2,0.2,0.3,0.3c0,0.6-0.3,1.3-0.9,1.5c-0.2,0.1-0.5,0-0.7-0.1c-0.2-0.2-0.2-0.5-0.2-0.7
	c0.1-0.2,0.2-0.2,0.4-0.2c0.1,0,0.2,0.1,0.2,0.2c0.1,0.1,0.1,0.3,0,0.4c0,0.1,0.1,0.1,0.2,0.1c0.3-0.1,0.5-0.4,0.6-0.7
	c0.1-0.3,0-0.7-0.2-0.9c-0.2-0.2-0.4-0.3-0.7-0.2c-0.2,0-0.4,0.3-0.5,0.4c0-0.2,0.1-0.4,0.2-0.6c0.2-0.4-0.2-0.7-0.4-1h-0.1
	c-0.2,0.3-0.5,0.5-0.5,0.8c0,0.3,0.2,0.5,0.2,0.8c-0.2-0.2-0.3-0.3-0.5-0.3c-0.3,0-0.5,0.1-0.7,0.3c-0.2,0.4-0.2,1,0.1,1.3
	c0.1,0.1,0.3,0.2,0.4,0.2c0.1-0.1,0-0.3,0-0.5c0-0.1,0.1-0.2,0.2-0.2c0.2-0.1,0.3,0,0.4,0.2c0.1,0.3,0.1,0.5-0.1,0.8
	c-0.2,0.2-0.4,0.3-0.7,0.2c-0.6-0.2-1-0.8-1-1.4c-0.1-0.4,0.4-0.3,0.3-0.7c0-0.2-0.4-0.3-0.4-0.3l-0.3-1h-0.5c0.1,0.3,0.1,0.7,0.1,1
	c0,0.1-0.1,0.1-0.2,0.2s-0.1,0.2,0,0.4s0.3,0.2,0.4,0.3c0.1,0.5,0,1-0.4,1.3c-0.2,0.2-0.5,0.3-0.7,0.2c-0.3,0-0.5-0.2-0.6-0.5
	c-0.1-0.2-0.1-0.4,0.1-0.6c0.1-0.1,0.2-0.1,0.3-0.1c0.2,0.1,0.3,0.4,0.3,0.6c0,0.1,0.1,0.1,0.2,0.1c0.2-0.2,0.4-0.5,0.4-0.8
	c0-0.4-0.2-0.8-0.5-1.1c-0.2-0.1-0.4,0-0.6,0.1c-0.1,0.1-0.2,0.3-0.3,0.3c0-0.2-0.1-0.4-0.2-0.6L351.3,128.9L351.3,128.9z"/>
<path class="st0" d="M376.4,158.9c-0.5,1.2-1.8,1.5-2.9,1.7c-2.3,0.1-4.6-0.5-6.7-1.6c-0.2-0.1-0.3-0.2-0.5-0.3
	c2.6-1.5,5.7-1.9,8.6-1.3c0.5,0.1,0.9,0.3,1.3,0.7C376.4,158.3,376.5,158.6,376.4,158.9 M357.4,165.2c-1.6-2.8-3.8-5.2-6.5-7
	c2.4-1.9,4.6-4.1,6.3-6.7l0.2-0.2c1.6,2.8,3.8,5.2,6.5,7.1C361.3,160.3,359.1,162.6,357.4,165.2 M358.4,169c1,2.4,1.9,6,0.2,8.4
	c-0.3,0.4-0.7,0.6-1.2,0.5c-0.8-0.4-1-1.3-1.2-2c-0.3-2.8,0.2-5.7,1.5-8.2C358,168.1,358.2,168.6,358.4,169 M355.3,141.9
	c0-1.2,0.5-2.2,1.3-3.1c0.2-0.1,0.5-0.2,0.8-0.2c0.3,0.1,0.6,0.3,0.8,0.6c1.1,2,0.6,4.9,0,7c-0.3,0.9-0.6,1.7-1,2.5
	C355.9,146.8,355.3,144.4,355.3,141.9 M348.6,158c-2.6,1.3-6,2.2-9,1.1c-0.5-0.2-1.1-0.5-1.1-1.1c0.2-1.2,1.6-1.6,2.6-1.8
	C343.7,156,346.3,156.6,348.6,158L348.6,158z M377.1,157.7c-0.5-1-1.4-1.7-2.5-2c-3.6-0.8-6.9,0.5-9.8,2.1c-2.8-1.9-5.2-4.4-6.9-7.4
	c0.4-0.8,0.7-1.5,1-2.3c1-2.5,1.9-5.8,0.6-8.5c-0.4-1-1.4-1.7-2.5-1.6c-1.6,0.3-2.3,2-2.5,3.5c-0.1,2.9,0.6,5.8,1.9,8.3
	c-1.8,3-4.2,5.6-7.1,7.6c-1.1-0.5-2.1-0.9-3.3-1.3c-2.4-0.6-5.6-1.3-7.7,0.5c-0.7,0.5-1,1.4-0.7,2.2c0.6,1.6,2.3,2.1,3.8,2.3
	c3,0.1,5.9-0.7,8.4-2.3c2.8,1.9,5.2,4.4,6.8,7.3c-0.6,1.1-1.1,2.2-1.5,3.3c-0.8,2.4-1.5,5.7-0.1,8c0.5,0.8,1.3,1.3,2.2,1.3
	c1.3-0.2,2-1.5,2.4-2.6c0.7-3.3-0.4-6.4-1.6-9.2c-0.1-0.2,0.1-0.4,0.2-0.5c1.8-2.8,4.2-5.2,6.9-7.2c0.9,0.5,1.8,0.9,2.8,1.2
	c2.5,0.7,6.1,1.6,8.3-0.4c0.6-0.6,0.9-1.5,0.6-2.3"/>
<path class="st0" d="M355.7,125.4c0.3,0,0.5-0.2,0.5-0.5s-0.2-0.5-0.5-0.5s-0.5,0.2-0.5,0.5S355.4,125.4,355.7,125.4"/>
<path class="st0" d="M354.5,125.8c0.3,0,0.5-0.2,0.5-0.5s-0.2-0.5-0.5-0.5s-0.5,0.2-0.5,0.5S354.3,125.8,354.5,125.8L354.5,125.8"/>
<path class="st0" d="M353.5,126.2c0.3,0,0.5-0.2,0.5-0.5c0-0.3-0.2-0.5-0.5-0.5s-0.5,0.2-0.5,0.5c0,0,0,0,0,0
	C353,126,353.2,126.2,353.5,126.2"/>
<path class="st0" d="M352.5,126.8c0.3,0,0.5-0.2,0.5-0.5c0-0.3-0.2-0.5-0.5-0.5c-0.3,0-0.5,0.2-0.5,0.5c0,0,0,0,0,0
	C352,126.6,352.2,126.8,352.5,126.8"/>
<path class="st0" d="M351.6,127.6c0.3,0,0.5-0.2,0.5-0.5c0-0.3-0.2-0.5-0.5-0.5c-0.3,0-0.5,0.2-0.5,0.5c0,0,0,0,0,0
	C351.1,127.4,351.4,127.6,351.6,127.6"/>
<path class="st0" d="M359.1,125.5c0.3,0,0.5-0.2,0.5-0.5c0-0.3-0.2-0.5-0.5-0.5s-0.5,0.2-0.5,0.5c0,0,0,0,0,0
	C358.6,125.3,358.8,125.5,359.1,125.5"/>
<path class="st0" d="M360.3,125.8c0.3,0,0.5-0.2,0.5-0.5c0-0.3-0.2-0.5-0.5-0.5c-0.2,0-0.5,0.2-0.5,0.4c0,0,0,0,0,0
	C359.8,125.6,360,125.8,360.3,125.8"/>
<path class="st0" d="M361.3,126.2c0.3,0,0.5-0.2,0.5-0.4c0,0,0,0,0,0c0-0.3-0.3-0.4-0.5-0.4c-0.2,0-0.4,0.2-0.4,0.4
	C360.9,126,361.1,126.2,361.3,126.2"/>
<path class="st0" d="M362.3,126.9c0.3,0,0.5-0.2,0.5-0.5c0-0.3-0.2-0.5-0.5-0.5c-0.3,0-0.5,0.2-0.5,0.5c0,0,0,0,0,0
	C361.9,126.6,362.1,126.9,362.3,126.9"/>
<path class="st0" d="M363.2,127.7c0.3,0,0.5-0.2,0.5-0.5c0-0.3-0.2-0.5-0.5-0.5c-0.3,0-0.5,0.2-0.5,0.5c0,0,0,0,0,0
	C362.7,127.4,362.9,127.7,363.2,127.7C363.2,127.7,363.2,127.7,363.2,127.7"/>
<path d="M83.1,134.2V122H37v12.1c0,3.9,0,5.9,0.1,10.5c1.7,19.9,14.7,29.8,22.9,34c8.2-4.3,21.3-14.2,23-34
	C83.2,140.1,83.2,138.1,83.1,134.2 M82.4,144.7c-1.7,19.5-14.6,29.3-22.3,33.3c-7.7-4.1-20.6-13.8-22.2-33.3
	c-0.2-4.7-0.2-6.7-0.1-10.4v-11.5h44.8v11.5C82.5,138,82.5,140,82.4,144.7 M75.5,136.2c2.1-0.1,4.1-0.8,5.8-2v-4.3
	c-0.1-0.1-0.2-0.1-0.3-0.1c0.2,0.5-0.2,0.8-0.4,1.1c-0.2,0.3-0.1,1,0.6,1.3c-0.7,0.1-1.3-0.4-1.5-1.1c-0.1-1,0.6-1,0.3-1.8
	c-0.3,0.4-0.8,0.3-1.2,0.2c-0.4-0.1-0.9,0.4-0.9,1.2c-0.4-0.6-0.3-1.4,0.2-1.8c0.8-0.6,1.2,0.1,1.8-0.6c-0.6,0-0.8-0.6-0.9-0.9
	s-0.8-0.6-1.5-0.2c0.3-0.7,1-1,1.7-0.7c0,0,0,0,0,0c1,0.3,0.6,1.1,1.4,1.2c-0.2-0.5,0.2-0.8,0.4-1.1c0.4-0.4,0.2-1-0.5-1.4
	c0.3,0,0.6,0,0.8,0.2v-1.5H38.8v3.7c0.1,0.1,0.2,0.1,0.4,0.1c-0.2-0.5,0.2-0.8,0.4-1.1c0.2-0.3,0.1-1-0.5-1.4c0.7,0,1.3,0.5,1.4,1.1
	c0.1,1.1-0.6,1.1-0.3,1.9c0.3-0.4,0.8-0.3,1.2-0.2c0.4,0.1,0.9-0.4,0.9-1.2c0.4,0.6,0.3,1.3-0.2,1.8c-0.8,0.7-1.2,0-1.7,0.7
	c0.5,0.1,0.6,0.6,0.8,1c0.1,0.4,0.8,0.6,1.5,0.2c-0.3,0.7-1,1-1.7,0.7c0,0,0,0,0,0c-1-0.4-0.6-1.1-1.4-1.2c0.2,0.5-0.2,0.8-0.4,1.1
	c-0.2,0.3-0.1,1,0.6,1.3c-0.3,0.1-0.6,0-0.8-0.1v2.1c1.7,1.2,3.7,1.9,5.8,2c5.9,0,6.7-2.8,11.6-2.8c1.4,0.1,2.8,0.6,3.9,1.6
	c1.1-0.9,2.4-1.5,3.9-1.6C68.8,133.4,69.6,136.2,75.5,136.2 M51.3,129.1c0.5,0.1,0.6,0.6,0.8,1c0.1,0.4,0.8,0.6,1.5,0.2
	c-0.3,0.7-1,1-1.7,0.7c0,0,0,0,0,0c-1-0.4-0.6-1.1-1.4-1.2c0.2,0.5-0.2,0.8-0.4,1.1c-0.2,0.3-0.1,1,0.6,1.3
	c-0.7,0.1-1.3-0.4-1.5-1.1c-0.1-1,0.6-1,0.3-1.8c-0.3,0.4-0.8,0.3-1.2,0.2c-0.5-0.1-0.9,0.4-0.9,1.2c-0.4-0.6-0.3-1.4,0.2-1.8
	c0.8-0.6,1.2,0.1,1.8-0.6c-0.5-0.1-0.6-0.6-0.8-1c-0.1-0.4-0.9-0.6-1.5-0.2c0.3-0.7,1-1,1.7-0.7c0,0,0,0,0,0c1,0.3,0.6,1.1,1.4,1.2
	c-0.2-0.5,0.2-0.8,0.4-1.1s0.1-1-0.6-1.3c0.7-0.1,1.3,0.4,1.5,1.1c0.1,1-0.6,1-0.4,1.8c0.3-0.4,0.8-0.3,1.2-0.2
	c0.4,0.1,0.9-0.4,0.9-1.2c0.4,0.6,0.3,1.4-0.2,1.8C52.2,129.1,51.8,128.4,51.3,129.1 M61.1,129.1c0.5,0.1,0.6,0.6,0.8,1
	c0.1,0.4,0.8,0.6,1.5,0.2c-0.3,0.7-1,1-1.7,0.7c0,0,0,0,0,0c-1-0.4-0.6-1.1-1.4-1.2c0.2,0.5-0.2,0.8-0.4,1.1c-0.2,0.3-0.1,1,0.6,1.3
	c-0.7,0-1.3-0.5-1.4-1.1c-0.1-1,0.6-1,0.3-1.8c-0.3,0.4-0.8,0.3-1.2,0.2c-0.4-0.1-0.9,0.4-0.9,1.2c-0.4-0.6-0.3-1.4,0.2-1.8
	c0.8-0.6,1.2,0.1,1.8-0.6c-0.5-0.1-0.6-0.6-0.8-1c-0.1-0.4-0.8-0.6-1.5-0.2c0.3-0.7,1-1,1.7-0.7c0,0,0,0,0,0c1,0.3,0.6,1,1.4,1.2
	c-0.2-0.5,0.2-0.8,0.4-1.1c0.2-0.3,0.1-1-0.6-1.3c0.7-0.1,1.3,0.4,1.5,1.1c0.1,1-0.6,1-0.3,1.8c0.3-0.4,0.8-0.3,1.2-0.2
	s0.9-0.4,0.9-1.2c0.4,0.6,0.3,1.4-0.2,1.8C62.1,129.1,61.7,128.4,61.1,129.1 M71.3,129.1c0.5,0.1,0.6,0.6,0.8,1
	c0.1,0.4,0.8,0.6,1.5,0.2c-0.3,0.7-1,1-1.7,0.7c0,0,0,0,0,0c-1-0.3-0.6-1.1-1.4-1.2c0.2,0.5-0.2,0.8-0.4,1.1c-0.2,0.3-0.1,1,0.6,1.3
	c-0.7,0.1-1.3-0.4-1.5-1.1c-0.1-1,0.6-1,0.4-1.8c-0.3,0.4-0.8,0.3-1.2,0.2c-0.3-0.1-0.9,0.4-0.9,1.2c-0.4-0.6-0.3-1.4,0.2-1.8
	c0.8-0.6,1.2,0.1,1.8-0.6c-0.5-0.1-0.6-0.6-0.8-1c-0.1-0.4-0.8-0.6-1.5-0.2c0.3-0.7,1-1,1.7-0.7c0,0,0,0,0,0c1,0.3,0.6,1,1.4,1.2
	c-0.2-0.5,0.2-0.8,0.4-1.1s0.1-1-0.6-1.4c0.7-0.1,1.3,0.4,1.5,1.1c0.1,1-0.6,1-0.4,1.8c0.3-0.4,0.8-0.3,1.2-0.2s0.9-0.4,0.9-1.2
	c0.4,0.6,0.3,1.4-0.2,1.8C72.3,129.1,71.9,128.4,71.3,129.1 M38.8,140.8c0,1.1,0.1,2.3,0.1,3.9c0.3,2.9,0.8,5.8,1.6,8.6
	c1.4,0.6,2.9,0.9,4.4,0.9c1.9,0,3.8-0.5,5.5-1.4c3.6-2,6.2-2,9.5,0l0.1,0.1l0.1-0.1c3.3-2,5.9-1.9,9.5,0c1.7,0.9,3.6,1.4,5.5,1.4
	c1.5,0,3-0.3,4.4-0.9c0.8-2.8,1.4-5.6,1.6-8.5c0.1-1.5,0.1-2.8,0.1-3.9c-3.5,1.9-7.6,2.1-11.2,0.6c-3.7-1.4-6.9-1.7-10.1,1.1
	c-3.2-2.7-6.4-2.4-10.1-1.1C46.2,142.7,42.2,142.5,38.8,140.8 M70.6,146.8l1.5-1.3l-0.9-0.8c-0.1-0.1-0.1-0.1-0.1-0.3
	s0.1-0.1,0.2-0.1h1.1c0.1-0.2,0.3-0.4,0.6-0.4c0.3,0,0.5,0.2,0.6,0.4h1.2c0.1,0,0.1,0.1,0.2,0.1c0,0.1,0,0.2-0.1,0.3l-0.8,0.8
	c0.1,0.1,0.8,0.7,1.5,1.3c0.1,0.1,1.3,0.9,0.7,1.9c-0.1,0.3-0.4,0.4-0.7,0.4c-0.1,0.5-0.5,0.8-0.9,0.9c-0.2,0-0.4,0-0.6-0.1
	c-0.1,0.2-0.3,0.3-0.5,0.4c-0.2,0.1-0.3,0.1-0.5,0.1c-0.4,0-0.8-0.2-1-0.6c-0.2,0.1-0.4,0.2-0.6,0.1c-0.5-0.1-0.8-0.5-0.9-0.9
	c-0.3,0-0.5-0.2-0.7-0.4C69.3,147.8,70.5,146.9,70.6,146.8 M57.6,146.8l1.4-1.3l-0.9-0.8c-0.1,0-0.1-0.1-0.1-0.2
	c0-0.1,0.1-0.1,0.2-0.1h1.1c0.1-0.2,0.3-0.4,0.6-0.4c0.3,0,0.5,0.2,0.6,0.4h1.2c0.1,0,0.1,0.1,0.2,0.1c0,0.1,0,0.2-0.1,0.3l-0.8,0.8
	l1.5,1.3c0.1,0.1,1.3,0.9,0.7,1.9c-0.1,0.3-0.4,0.4-0.7,0.4c-0.2,0.4-0.5,0.7-0.9,0.9c-0.2,0-0.4,0-0.6-0.1
	c-0.1,0.2-0.3,0.3-0.5,0.4c-0.6,0.2-1.2,0-1.5-0.5c-0.2,0.2-0.4,0.2-0.6,0.2c-0.5-0.1-0.8-0.5-0.9-0.9c-0.3,0-0.5-0.2-0.7-0.4
	C56.3,147.8,57.4,147,57.6,146.8 M44.5,146.8l1.5-1.3l-0.9-0.8c-0.1-0.1-0.1-0.1-0.1-0.3s0.1-0.1,0.2-0.1h1.1
	c0.1-0.2,0.3-0.4,0.6-0.4c0.3,0,0.5,0.2,0.6,0.4h1.2c0.1,0,0.1,0.1,0.2,0.1c0,0.1,0,0.2-0.1,0.3l-0.8,0.8c0.1,0.1,0.8,0.7,1.5,1.3
	c0.1,0.1,1.3,0.9,0.7,1.9c-0.1,0.3-0.4,0.4-0.7,0.4c-0.1,0.5-0.5,0.8-0.9,0.9c-0.2,0-0.4,0-0.6-0.1c-0.1,0.2-0.3,0.3-0.5,0.4
	c-0.2,0.1-0.3,0.1-0.5,0.1c-0.4,0-0.8-0.2-1-0.6c-0.1,0.2-0.3,0.2-0.6,0.2c-0.5-0.1-0.8-0.5-0.9-0.9c-0.3,0-0.5-0.2-0.7-0.4
	C43.2,147.8,44.4,147,44.5,146.8 M43.3,160.2c3.8,7,9.6,12.7,16.7,16.4c2.4-1.3,4.6-2.8,6.7-4.4c4.1-3.2,7.5-7.3,10-11.9
	c-2.4,0.3-4.9-0.1-7.2-1c-4.3-1.8-7.2-1.8-9.6,0.1c-2.5-1.9-5.3-2-9.6-0.1C48.1,160,45.7,160.4,43.3,160.2 M63,165.3
	c-0.4-0.6-0.3-1.4,0.2-1.8c0.8-0.6,1.2,0.1,1.8-0.6c-0.5-0.1-0.6-0.6-0.8-1c-0.1-0.4-0.8-0.6-1.5-0.2c0.3-0.7,1-1,1.7-0.7
	c0,0,0,0,0,0c1,0.4,0.6,1.1,1.4,1.2c-0.2-0.5,0.2-0.8,0.4-1.1c0.2-0.3,0.1-1-0.6-1.3c0.7,0,1.3,0.4,1.4,1.1c0.1,1.1-0.6,1-0.3,1.8
	c0.3-0.4,0.8-0.3,1.2-0.2c0.3,0.1,0.9-0.4,0.9-1.2c0.4,0.6,0.3,1.4-0.2,1.8c-0.8,0.6-1.2-0.1-1.8,0.6c0.5,0.1,0.6,0.6,0.8,1
	c0.1,0.4,0.8,0.6,1.5,0.2c-0.3,0.7-1,1-1.7,0.7c0,0,0,0,0,0c-1-0.3-0.6-1-1.4-1.2c0.2,0.5-0.2,0.8-0.4,1.1c-0.2,0.3-0.1,1,0.6,1.3
	c-0.7,0.1-1.3-0.4-1.5-1.1c-0.1-1.1,0.6-1,0.3-1.8c-0.3,0.4-0.8,0.3-1.2,0.2C63.3,164.1,62.9,164.5,63,165.3 M59,170.2
	c-0.5-0.1-0.6-0.6-0.8-1c-0.1-0.4-0.8-0.6-1.5-0.2c0.3-0.7,1-1,1.7-0.7c0,0,0,0,0,0c1,0.3,0.6,1,1.4,1.2c-0.2-0.5,0.2-0.8,0.4-1.1
	s0.1-1-0.6-1.3c0.7-0.1,1.3,0.4,1.5,1.1c0.1,1-0.6,1-0.4,1.8c0.3-0.4,0.9-0.3,1.2-0.2c0.3,0.1,0.9-0.4,0.9-1.2
	c0.4,0.6,0.3,1.4-0.2,1.8c-0.8,0.6-1.2-0.1-1.8,0.6c0.5,0.1,0.6,0.6,0.8,1c0.1,0.4,0.8,0.6,1.5,0.2c-0.3,0.7-1,1-1.7,0.7
	c0,0,0,0,0,0c-1-0.4-0.6-1-1.4-1.2c0.2,0.5-0.2,0.8-0.4,1.1c-0.2,0.3-0.1,1,0.6,1.3c-0.7,0.1-1.3-0.4-1.5-1.1c-0.1-1,0.6-1,0.3-1.8
	c-0.3,0.4-0.8,0.3-1.2,0.2s-0.9,0.4-0.9,1.2c-0.4-0.6-0.3-1.4,0.2-1.8C58,170.1,58.5,170.8,59,170.2 M53,162.8
	c-0.5-0.1-0.6-0.6-0.8-1c-0.1-0.4-0.8-0.6-1.5-0.2c0.3-0.7,1-1,1.7-0.7c0,0,0,0,0,0c1,0.3,0.6,1.1,1.4,1.2c-0.2-0.5,0.2-0.8,0.4-1.1
	c0.2-0.3,0.1-1-0.6-1.3c0.7,0,1.3,0.5,1.4,1.1c0.1,1.1-0.6,1-0.3,1.8c0.3-0.4,0.8-0.3,1.2-0.2c0.3,0.1,0.9-0.4,0.9-1.2
	c0.4,0.6,0.3,1.4-0.2,1.8c-0.8,0.6-1.2-0.1-1.8,0.6c0.5,0.1,0.6,0.6,0.8,1c0.1,0.4,0.8,0.6,1.5,0.2c-0.3,0.7-1,1-1.7,0.7
	c0,0,0,0,0,0c-1-0.3-0.6-1-1.4-1.2c0.2,0.5-0.2,0.8-0.4,1.1s-0.1,1,0.6,1.3c-0.7,0.1-1.3-0.4-1.5-1.1c-0.1-1.1,0.6-1,0.3-1.8
	c-0.3,0.4-0.8,0.3-1.2,0.2c-0.5-0.1-0.9,0.4-0.9,1.2c-0.4-0.6-0.3-1.4,0.2-1.8C52,162.8,52.4,163.6,53,162.8"/>
<path d="M99.4,148.5c-0.1,0.1-0.1,0.3-0.1,0.8c0,0.4,0.1,0.6,0.1,0.6c0.5,0.1,1.1,0.2,1.6,0.4c0.8,0.2,1.2,0.5,1.3,0.7
	c0.2,1.1,0.3,2.3,0.3,3.4v16c0.1,1.3,0,2.6-0.3,3.9c-0.1,0.3-0.6,0.5-1.3,0.6c-0.5,0.2-1.1,0.3-1.6,0.3c-0.1,0-0.1,0.2-0.1,0.7
	c0,0.3,0,0.5,0.1,0.8l0.8-0.1c0.6,0,1.3-0.1,2.2-0.1s1.8-0.1,2.5-0.1c0.9,0,2.9,0.1,6,0.3c0.1-0.2,0.1-0.5,0.1-0.7
	c0-0.5-0.1-0.7-0.1-0.7c-0.6,0-1.3-0.2-1.9-0.4c-0.8-0.2-1.3-0.5-1.4-0.8c-0.3-1.2-0.4-2.4-0.4-3.6v-15.2c0-2.7,0.2-4.2,0.5-4.4
	c0.8-0.2,1.6-0.3,2.4-0.3c1.4-0.1,2.7,0.5,3.5,1.6c0.8,1.3,1.2,2.9,1.1,4.5c0,1.5-0.4,3-1.2,4.2c-0.7,1.1-1.9,1.7-3.2,1.7
	c-0.8,0-1.6-0.1-2.4-0.4c-0.1,0-0.1,0.1-0.1,0.3v0.6c0.1,0.2,0.1,0.4,0.1,0.4c0.3,0.4,0.7,0.6,1.2,0.8c0.6,0.2,1.2,0.3,1.8,0.4
	c1.7,0,3.3-0.4,4.7-1.3c1.3-0.8,2.4-1.9,3.2-3.2c0.7-1.2,1-2.5,1.1-3.9c0-1-0.2-2.1-0.6-3c-0.4-0.8-0.9-1.6-1.6-2.2
	c-0.7-0.6-1.4-1.1-2.2-1.5c-0.8-0.4-1.6-0.7-2.5-0.9c-0.8-0.1-1.7-0.2-2.5-0.2c-0.8,0-1.8,0-2.9,0.1c-0.9,0.1-1.7,0.2-2.6,0.1
	C104.3,148.7,102.4,148.6,99.4,148.5 M129.3,150.9c0.1-0.2,0.5-0.4,1.2-0.6c0.5-0.2,1-0.3,1.5-0.3c0.1,0,0.1-0.2,0.1-0.7
	c0-0.2-0.1-0.5-0.1-0.7c-3.4,0.1-5.2,0.3-5.4,0.3c-0.8,0-1.8-0.1-3.3-0.1c-1.5-0.1-2.2-0.1-2.3-0.1s-0.1,0.3-0.1,0.8
	s0.1,0.6,0.1,0.6c0.5,0,1.1,0.1,1.5,0.4c0.5,0.1,0.9,0.3,1.2,0.6c0.3,1.2,0.4,2.4,0.3,3.6v16c0.1,1.3,0,2.6-0.3,3.9
	c-0.1,0.3-0.5,0.5-1.2,0.6c-0.5,0.2-1.1,0.3-1.6,0.3c-0.1,0-0.1,0.2-0.1,0.7c0,0.2,0,0.5,0.1,0.7l5.6-0.1c1.4-0.1,3.9-0.1,7.4,0.1
	s5.9,0.1,7,0.1c0.1-0.4,0.2-1,0.4-1.6c0.1-0.6,0.3-1.1,0.6-1.7c0.1-0.5,0.4-1.1,0.8-2c0.4-0.9,0.6-1.5,0.6-1.8
	c-0.4-0.2-0.8-0.3-1.2-0.3c-0.4,0-0.6,0.1-0.6,0.3c-0.3,0.9-0.7,1.8-1.3,2.6c-0.4,0.6-0.9,1.1-1.5,1.5c-1.6,0.7-3.3,1-5,0.9h-1.6
	c-1.8,0-2.7-0.2-2.9-0.6c-0.3-1.1-0.4-2.2-0.4-3.4v-16.1C129,153.3,129.1,152.1,129.3,150.9 M151.2,163.5c0.1,0.3,0.2,0.5,0.3,0.8
	v6.2c0,1.2-0.1,2.5-0.4,3.7c-0.1,0.2-0.5,0.4-1.2,0.7c-0.5,0.2-1,0.3-1.5,0.4c-0.1,0-0.1,0.2-0.1,0.7c0,0.2,0,0.5,0.1,0.7
	c0.3,0,1.1-0.1,2.5-0.1c1.3-0.1,2.3-0.1,3.1-0.1c0.6,0,1.2,0,1.8,0.1c0.6,0,1.3,0.1,2,0.1c0.7,0.1,1.3,0.1,1.6,0.1
	c0.1-0.2,0.1-0.5,0.1-0.7c0-0.4-0.1-0.7-0.1-0.7c-0.5-0.1-1-0.2-1.4-0.4c-0.4-0.1-0.9-0.3-1.2-0.6c-0.3-1.2-0.4-2.5-0.4-3.8V164
	c0-0.4,1.1-2.2,3.2-5.7c2.1-3.4,3.6-5.8,4.4-7c0.4-0.5,1-0.8,1.6-1c0.6-0.2,1.2-0.3,1.8-0.4c0.1,0,0.1-0.2,0.1-0.7
	c0-0.2,0-0.5-0.1-0.7c-0.3,0-0.8,0.1-1.3,0.1s-1.1,0.1-1.6,0.1c-0.6,0.1-1.1,0.1-1.8,0.1c-0.6,0-2.2-0.1-5-0.3
	c-0.1,0.2-0.2,0.5-0.1,0.8c0,0.4,0.1,0.6,0.1,0.6c0.7,0,1.4,0.1,2,0.4c0.5,0.2,0.8,0.5,0.8,0.8s-0.6,1.7-1.7,3.6
	c-1.1,2-2.3,3.8-3.5,5.5c-0.1,0.2-0.3,0.2-0.4,0.1l-4.5-8.2c-0.2-0.3-0.3-0.7-0.4-1.1c0-0.4,0.3-0.7,0.9-0.9c0.5-0.2,1-0.3,1.5-0.3
	c0.1,0,0.1-0.2,0.1-0.6c0-0.3,0-0.5-0.1-0.8c-3.4,0.1-5.3,0.3-5.8,0.3c-3,0-4.9,0-5.6,0.1c-0.1,0.2-0.1,0.4-0.1,0.6
	c0,0.3,0.1,0.4,0.1,0.4c0.4,0,0.8,0.1,1.2,0.2c0.5,0.1,0.9,0.3,1.3,0.6c0.9,0.8,1.7,1.8,2.2,2.9 M172.8,170.7c0,1-0.1,1.9-0.5,2.8
	c-0.1,0.4-0.7,0.8-1.6,1.1c-0.7,0.2-1.4,0.4-2.1,0.4c-0.1,0-0.1,0.2-0.1,0.7c0,0.2,0,0.5,0.1,0.7c0.3,0,1.1-0.1,2.3-0.1
	c1.3-0.1,2.2-0.1,3-0.1c0.1,0,2,0.1,5.3,0.3c0.1-0.2,0.1-0.4,0.1-0.6c0-0.5-0.1-0.8-0.1-0.8c-0.7-0.1-1.4-0.2-2-0.4
	c-1-0.3-1.5-0.6-1.7-0.9c-0.1-0.4-0.1-0.9-0.1-1.3c0.3-5.5,0.5-11.9,0.7-18.8l9.5,22.7c0.1,0.1,0.3,0.1,0.4,0.1
	c0.6,0,1.1-0.6,1.6-1.6l8.1-19.6c0.1-0.1,0.1-0.3,0.2-0.3s0.4,0.8,0.5,2.6l0.4,12.8v2.5c0,0.5-0.1,1-0.4,1.5
	c-0.3,0.3-0.8,0.5-1.2,0.6c-0.4,0.2-0.9,0.3-1.3,0.3c-0.1,0-0.1,0.3-0.1,0.8c0,0.2,0,0.4,0.1,0.6c0.4,0,1.1-0.1,1.8-0.1
	c0.8-0.1,1.4-0.1,2-0.1s1.2-0.1,1.8-0.1c0.1,0,1.8,0.1,5.2,0.3c0.1-0.2,0.1-0.4,0.1-0.6c0-0.5-0.1-0.8-0.1-0.8
	c-0.5-0.1-1-0.2-1.4-0.4c-0.7-0.2-1.1-0.4-1.2-0.7c-0.4-1.2-0.7-2.5-0.7-3.9c-0.3-9.1-0.5-14.9-0.6-17.5c-0.1-1.2,0.1-2,0.6-2.2
	c0.6-0.4,1.3-0.7,2-0.7h0.1c0.1,0,0.1-0.2,0.1-0.7c0-0.2,0-0.5-0.1-0.7c-2.2,0.1-3.9,0.2-5.1,0.2c-1.5,0-2.6-0.1-3.4-0.1l-1.5,4.9
	c-1.5,3.9-3.4,8.7-5.9,14.7c0,0.1-0.1,0.1-0.1,0.1c-0.1,0-0.1,0-0.1-0.1c-0.8-2-1.8-4.5-3.2-7.5c-1.3-3-2.4-5.6-3.3-7.8
	s-1.5-3.6-1.8-4.4c-2.6,0.1-4,0.3-4.1,0.3c-0.9,0-1.8,0-2.7-0.1c-1.1-0.1-1.8-0.1-2.2-0.1c-0.1,0.1-0.1,0.4-0.1,0.6
	c0,0.5,0.1,0.7,0.1,0.7c0.6,0,1.2,0.1,1.8,0.3c0.8,0.2,1.3,0.4,1.4,0.6c0.1,0.4,0.1,0.8,0.1,1.2c0,0.5-0.1,1.8-0.1,3.9 M223.7,152.4
	c1.4,1.4,2.4,3.1,2.9,4.9c0.6,2,0.9,4,0.9,6.1c0.1,2.8-0.6,5.6-2,8c-1.1,2.1-3.2,3.4-5.5,3.4c-1.9,0-3.7-0.7-5-2.1
	c-1.4-1.4-2.5-3.1-3-5c-0.6-1.9-0.8-4-0.8-6c-0.1-2.8,0.6-5.5,1.9-8c1.1-2.1,3.2-3.3,5.6-3.3C220.4,150.3,222.2,151.1,223.7,152.4
	 M219.2,176.9c3.6,0,7.1-1.5,9.5-4.2c2.6-2.7,4.1-6.3,4-10.1c0.1-3.8-1.4-7.4-4-10.1c-4.8-5.3-13-5.6-18.2-0.8
	c-0.3,0.3-0.6,0.5-0.8,0.8c-2.6,2.7-4.1,6.3-4,10.1c-0.1,3.8,1.4,7.4,4,10.1C212.1,175.4,215.5,176.9,219.2,176.9 M234,148.4
	c-0.1,0.2-0.2,0.5-0.1,0.8c0,0.4,0.1,0.6,0.1,0.6c0.5,0,1.1,0.1,1.6,0.4c0.5,0.1,0.9,0.3,1.2,0.6c0.3,1.2,0.4,2.4,0.4,3.6v9.2
	c0,4.6,1,7.8,2.9,9.9c2.1,2.1,5,3.2,8,3.1c1.5,0,2.9-0.2,4.3-0.6c1.3-0.4,2.4-1.1,3.4-2c1.1-1,1.9-2.4,2.3-3.8
	c0.6-1.8,0.8-3.8,0.8-5.7v-10c-0.1-1.2,0.1-2.4,0.5-3.5c0.4-0.4,1-0.7,1.6-0.8c0.6-0.2,1.2-0.3,1.8-0.4c0.1,0,0.1-0.2,0.1-0.7
	c0-0.2,0-0.5-0.1-0.7c-0.3,0-1,0.1-2.2,0.1c-1.2,0.1-2.1,0.1-2.8,0.1c-0.5,0-2.2-0.1-5.3-0.3c-0.1,0.2-0.1,0.5-0.1,0.8
	c0,0.4,0.1,0.6,0.2,0.6c0.6,0.1,1.2,0.2,1.8,0.4c0.8,0.2,1.3,0.5,1.5,0.8c0.4,1.1,0.5,2.2,0.4,3.4v10.4c0,3.3-0.6,5.7-2,7.1
	c-1.3,1.4-3.2,2.2-5.2,2.1c-2.1,0.1-4-0.9-5.2-2.6c-1.4-2.1-2-4.5-1.9-6.9v-9.6c0-1.2,0.1-2.5,0.4-3.7c0-0.2,0.4-0.4,1.2-0.6
	c0.5-0.2,1-0.3,1.6-0.4c0.1,0,0.1-0.2,0.1-0.7c0-0.2,0-0.5-0.1-0.7c-3.1,0.1-4.9,0.3-5.4,0.3C239.5,148.7,237.6,148.7,234,148.4
	 M268.3,148.4c-1,0-2-0.2-2.9-0.4l-0.8,6.4c0.3,0.3,0.7,0.4,1.1,0.4c0.3,0,0.4-0.1,0.4-0.3c0.2-1.2,0.8-2.2,1.6-3.1
	c0.9-0.6,1.9-0.9,3-0.8c2.5,0,3.8,0.2,4,0.7c0.2,0.5,0.4,1.8,0.4,4.1v15.3c0,1.2-0.1,2.4-0.4,3.5c-0.1,0.2-0.5,0.4-1.2,0.6
	c-0.5,0.2-1.1,0.3-1.6,0.3c-0.1,0-0.1,0.3-0.1,0.8c0,0.2,0,0.5,0.1,0.7c0.3,0,1.1-0.1,2.5-0.1c1.3-0.1,2.4-0.1,3.1-0.1
	c0.6,0,1.2,0,1.8,0.1c0.6,0,1.3,0.1,2,0.1c0.7,0.1,1.3,0.1,1.6,0.1c0.1-0.2,0.1-0.5,0.1-0.7c0-0.5-0.1-0.8-0.1-0.8
	c-0.5-0.1-1-0.2-1.5-0.4c-0.7-0.2-1.1-0.4-1.1-0.6c-0.3-1.2-0.4-2.4-0.4-3.7v-15.1c0-1.3,0.1-2.7,0.4-4c0.1-0.5,1.5-0.7,4.1-0.7
	c1.1-0.1,2.1,0.2,3,0.8c0.8,0.9,1.4,2,1.5,3.2c0.1,0.1,0.3,0.2,0.4,0.2c0.4,0.1,0.8,0,1.1-0.3l-0.8-6.5c-1,0.2-1.9,0.4-2.9,0.4
	c-1.1,0-2.7,0.1-4.6,0.1c-2,0.1-3.5,0.1-4.7,0.1c-1.2,0-2.7,0-4.6-0.1C271,148.6,269.5,148.5,268.3,148.4 M318.3,174.8
	c-0.7-0.2-1.1-0.4-1.2-0.6c-0.3-1.2-0.4-2.5-0.4-3.8v-15.9c0-1.2,0.1-2.5,0.4-3.7c0.1-0.2,0.5-0.4,1.2-0.6c0.5-0.2,1-0.3,1.5-0.4
	c0.1,0,0.1-0.2,0.1-0.7c0-0.2-0.1-0.5-0.1-0.7c-3.4,0.1-5.2,0.3-5.4,0.3c-0.8,0-1.8-0.1-3.3-0.1c-1.5-0.1-2.2-0.1-2.3-0.1
	s-0.1,0.3-0.1,0.8c0,0.5,0.1,0.6,0.1,0.6c0.5,0,1.1,0.1,1.5,0.4c0.5,0.1,0.9,0.3,1.2,0.6c0.3,1.2,0.4,2.4,0.4,3.6v6.3
	c0,0.1,0,0.1-0.1,0.1c-2.5,0.1-4.4,0.1-5.5,0.1s-3,0-5.8-0.1l-0.1-0.1v-6.2c0-1.2,0.1-2.5,0.4-3.7c0.1-0.2,0.5-0.4,1.2-0.6
	c0.5-0.2,1-0.3,1.5-0.4c0.1,0,0.1-0.2,0.1-0.7c0-0.2-0.1-0.5-0.1-0.7c-3.4,0.1-5.2,0.3-5.4,0.3c-0.8,0-1.8-0.1-3.3-0.1
	c-1.5-0.1-2.2-0.1-2.3-0.1s-0.1,0.3-0.1,0.8c0,0.5,0.1,0.6,0.1,0.6c0.5,0,1.1,0.1,1.5,0.4c0.5,0.1,0.9,0.3,1.2,0.6
	c0.3,1.2,0.4,2.4,0.4,3.6v16.3c0,1.2-0.1,2.4-0.4,3.6c-0.1,0.2-0.5,0.4-1.2,0.6c-0.5,0.2-1.1,0.3-1.6,0.3c-0.1,0-0.1,0.3-0.1,0.8
	c0,0.2,0,0.4,0.1,0.6c0.4,0,1.1-0.1,1.8-0.1c0.8-0.1,1.4-0.1,2-0.1s1.2-0.1,1.8-0.1c0.2,0,2,0.1,5.3,0.3c0.1-0.2,0.1-0.4,0.1-0.6
	c0-0.6-0.1-0.8-0.1-0.8c-0.5-0.1-1-0.2-1.5-0.4c-0.7-0.2-1.1-0.4-1.2-0.6c-0.3-1.2-0.4-2.5-0.4-3.8v-7c0-0.1,2-0.1,5.8-0.2
	c1,0,3,0,5.5,0.1l0.1,0.1v7.3c0,1.2-0.1,2.4-0.4,3.6c-0.1,0.2-0.5,0.4-1.2,0.6c-0.5,0.2-1.1,0.3-1.6,0.3c-0.1,0-0.1,0.3-0.1,0.8
	c0,0.2,0,0.4,0.1,0.6c0.4,0,1-0.1,1.8-0.1c0.8-0.1,1.4-0.1,2-0.1s1.2-0.1,1.8-0.1c0.2,0,2,0.1,5.3,0.3c0.1-0.2,0.1-0.4,0.1-0.6
	c0-0.6-0.1-0.8-0.1-0.8C319.1,175.1,318.7,175,318.3,174.8"/>
<path d="M99.5,122.3c-0.1,0.1-0.1,0.3-0.1,0.6c0,0.3,0.1,0.5,0.1,0.5c0.4,0,0.8,0.1,1.1,0.2c0.5,0.1,0.8,0.3,0.8,0.5
	c0.2,0.8,0.3,1.7,0.2,2.5v6.7c0,3.3,0.7,5.6,2.1,7.1c1.5,1.5,3.6,2.3,5.8,2.2c1.1,0,2.1-0.1,3.1-0.5c0.9-0.3,1.8-0.8,2.4-1.5
	c0.8-0.7,1.3-1.7,1.6-2.7c0.4-1.3,0.6-2.7,0.6-4.1v-7.1c0-0.9,0.1-1.7,0.3-2.5c0.3-0.3,0.7-0.6,1.1-0.6c0.4-0.1,0.9-0.2,1.3-0.2
	c0.1,0,0.1-0.1,0.1-0.5c0-0.2,0-0.3-0.1-0.5c-0.2,0-0.7,0.1-1.5,0.1s-1.5,0.1-2,0.1s-1.7-0.1-3.9-0.2c-0.1,0.1-0.1,0.3-0.1,0.6
	c0,0.3,0.1,0.4,0.1,0.4c0.4,0,0.9,0.1,1.3,0.3c0.6,0.1,1,0.3,1,0.6c0.3,0.8,0.4,1.6,0.3,2.4v7.3c0,2.4-0.5,4.1-1.4,5.1
	c-1,1.1-2.4,1.6-3.8,1.5c-1.5,0.1-2.9-0.7-3.8-1.9c-1-1.5-1.4-3.2-1.3-5v-7c0-0.9,0.1-1.8,0.3-2.7c0-0.2,0.3-0.4,0.8-0.5
	c0.4-0.1,0.7-0.2,1.1-0.2c0.1,0,0.1-0.1,0.1-0.5c0-0.2,0-0.3-0.1-0.5c-2.2,0.1-3.5,0.2-3.9,0.2C102.1,122.4,100.8,122.3,99.5,122.3
	 M130.5,125.6c-0.8-1-1.5-2.1-2.1-3.2c-1.1,0.1-2.1,0.1-2.7,0.1c-0.3,0-1.5-0.1-3.6-0.1c-0.1,0.2-0.2,0.4-0.1,0.6
	c0,0.3,0.1,0.5,0.1,0.5c0.4,0,0.9,0.1,1.3,0.2c0.6,0.1,1,0.3,1,0.4c0.3,0.7,0.4,1.5,0.4,2.2v11.9c0.1,0.9,0,1.7-0.3,2.5
	c-0.3,0.4-0.7,0.6-1.1,0.7c-0.5,0.1-0.9,0.2-1.4,0.2c-0.1,0-0.1,0.1-0.1,0.5c0,0.2,0,0.4,0.1,0.5c0.3,0,0.8-0.1,1.6-0.1
	c0.8-0.1,1.5-0.1,2-0.1l3.8,0.2c0.1-0.1,0.1-0.3,0.1-0.6s-0.1-0.4-0.1-0.4c-0.5,0-1-0.1-1.4-0.3c-0.6-0.1-1-0.4-1.1-0.6
	c-0.2-0.8-0.3-1.7-0.2-2.5v-12.3l12.1,16.1c0.4,0.5,0.6,0.7,1,0.7c0.2,0,0.5,0,0.7-0.1c-0.1-2.1-0.1-3.5-0.1-4.3v-11.5
	c0-0.9,0.1-1.7,0.4-2.5c0.3-0.3,0.7-0.6,1.1-0.6c0.4-0.1,0.9-0.2,1.4-0.2c0.1,0,0.1-0.1,0.1-0.5c0-0.3,0-0.4-0.1-0.5
	c-0.1-0.1-0.7,0.1-1.6,0.1s-1.5,0.1-2,0.1c-0.5,0-1.7-0.1-3.9-0.2c-0.1,0.1-0.1,0.3-0.1,0.6c0,0.3,0.1,0.4,0.1,0.4
	c0.5,0,0.9,0.1,1.3,0.2c0.4,0.1,0.8,0.3,1.1,0.6c0.2,0.8,0.3,1.6,0.3,2.4v8.3c0,0.4,0,0.8-0.1,1.3 M147.1,138.4
	c0,0.8-0.1,1.7-0.2,2.5c-0.1,0.1-0.4,0.3-0.8,0.5c-0.4,0.1-0.7,0.2-1.1,0.2c-0.1,0-0.1,0.2-0.1,0.6c0,0.2,0,0.3,0.1,0.4
	c0.4,0,0.8-0.1,1.3-0.1s1-0.1,1.5-0.1h1.3l3.9,0.2c0.1-0.1,0.1-0.3,0.1-0.4c0-0.3-0.1-0.6-0.1-0.6c-0.3,0-0.7-0.1-1-0.2
	c-0.5-0.1-0.8-0.3-0.8-0.4c-0.2-0.9-0.3-1.8-0.3-2.7v-11.6c0-0.9,0-1.8,0.2-2.7c0.1-0.2,0.4-0.3,0.9-0.5c0.4-0.1,0.7-0.2,1.1-0.2
	c0.1,0,0.1-0.1,0.1-0.5c0-0.2,0-0.3-0.1-0.5c-2.4,0.1-3.7,0.2-3.9,0.2c-0.6,0-1.3,0-2.4-0.1c-1-0.1-1.6-0.1-1.7-0.1
	c-0.1,0-0.1,0.2-0.1,0.6c0,0.3,0.1,0.5,0.1,0.5c0.4,0,0.8,0.1,1.1,0.2c0.5,0.1,0.8,0.3,0.8,0.5c0.2,0.8,0.2,1.7,0.2,2.5V138.4z
	 M162.9,130.6c-0.9-2-1.7-4.1-2.3-6.2c0-0.3,0.2-0.5,0.4-0.6c0.3-0.1,0.5-0.3,0.8-0.3c0.2-0.1,0.4-0.1,0.6-0.1
	c0.1,0,0.1-0.1,0.1-0.4s0-0.5-0.1-0.6c-2.5,0.1-3.9,0.2-4.1,0.2c-0.6,0-1.3,0-2.3-0.1c-1-0.1-1.5-0.1-1.7-0.1s-0.1,0.3-0.1,0.6
	c0,0.3,0.1,0.5,0.1,0.5c0.4,0,0.8,0.1,1.2,0.2c0.4,0.1,0.7,0.3,0.9,0.6c0.4,0.9,0.8,1.8,1.1,2.7l6.2,15.6c0.1,0.2,0.3,0.3,0.5,0.3
	c0.5,0,0.9-0.4,1.2-1.1L172,127c0.4-0.9,0.8-1.8,1.3-2.7c0.3-0.3,0.6-0.5,1-0.6c0.3-0.1,0.7-0.2,1.1-0.2c0.1,0,0.1-0.1,0.1-0.5
	c0-0.2,0-0.3-0.1-0.5c-0.3,0-0.8,0.1-1.5,0.1c-0.6,0.1-1.2,0.1-1.8,0.1c-0.5,0-1.1,0-1.9-0.1s-1.2-0.1-1.4-0.1s-0.1,0.3-0.1,0.6
	c0,0.3,0,0.4,0.1,0.4c0.5,0,1,0.1,1.5,0.3c0.5,0.2,0.7,0.5,0.7,0.8c-0.1,0.7-0.3,1.4-0.6,2.1l-4.4,10.5c0,0.1-0.1-0.2-0.4-0.7
	 M176.8,122.3c-0.1,0.2-0.2,0.4-0.1,0.6c0,0.3,0.1,0.5,0.1,0.5c0.4,0,0.8,0.1,1.2,0.2c0.5,0.1,0.8,0.3,0.8,0.6
	c0.2,0.8,0.3,1.7,0.2,2.5v11.4c0,0.9,0,1.9-0.2,2.8c-0.1,0.2-0.4,0.4-0.9,0.5c-0.4,0.1-0.7,0.2-1.1,0.2c-0.1,0-0.1,0.1-0.1,0.5
	c0,0.3,0,0.4,0.1,0.5l4.1-0.1c1.1-0.1,2.8,0,5.4,0s4.2,0.1,5.1,0.1c0.1-0.3,0.1-0.7,0.3-1.2c0.1-0.4,0.3-0.9,0.4-1.3
	c0.1-0.3,0.3-0.8,0.6-1.5c0.3-0.6,0.4-1,0.4-1.3c-0.2-0.2-0.6-0.2-0.9-0.2c-0.3,0-0.4,0.1-0.4,0.2c-0.2,0.7-0.5,1.3-0.9,1.8
	c-0.3,0.4-0.7,0.8-1.1,1c-1.2,0.5-2.4,0.7-3.6,0.6H185c-1.3,0-2-0.1-2.1-0.4c-0.2-0.8-0.3-1.6-0.3-2.4v-4.6c0-0.1,0.7-0.2,2.2-0.2
	c0.9-0.1,1.9,0,2.8,0.2c0.1,0.1,0.2,0.1,0.3,0.2c0.1,0.1,0.1,0.1,0.2,0.4c0.1,0.4,0.3,0.8,0.4,1.2c0.1,0.1,0.2,0.2,0.5,0.2
	c0.2,0,0.4,0,0.6-0.1v-5.8c-0.2-0.1-0.4-0.2-0.6-0.1c-0.3,0-0.5,0.1-0.5,0.2s-0.1,0.5-0.2,0.8c-0.1,0.6-0.3,1-0.5,1.1
	c-0.7,0.1-1.4,0.2-2.1,0.1h-1.8c-0.9,0-1.3-0.1-1.3-0.2v-4.6c0-0.8,0-1.6,0.2-2.4c0.1-0.3,0.8-0.4,2.3-0.4h1.6
	c1.8-0.1,3.4,1,3.9,2.7c0.1,0.1,0.3,0.2,0.4,0.2c0.2,0,0.4,0,0.6-0.1c0-0.1-0.1-0.7-0.4-1.8c-0.3-1-0.4-2-0.5-2.5
	c-1.1,0-2.9,0.1-5.1,0.1s-3.9,0.1-4.7,0.1L176.8,122.3 M205.4,128c0.1,1-0.3,2-0.9,2.7c-0.5,0.6-1.2,1-2,1h-0.8c-0.5,0-1,0-1.4-0.2
	c-0.4-0.1-0.5-0.4-0.5-0.9v-3.5c0-2,0.1-3.1,0.4-3.2c0.6-0.2,1.2-0.3,1.8-0.2C204.2,123.9,205.4,125.3,205.4,128 M200.1,122.4H198
	c-0.6,0-1.9,0-4.1-0.1c-0.1,0.1-0.1,0.2-0.1,0.6c0,0.3,0.1,0.5,0.1,0.5c0.4,0,0.8,0.1,1.2,0.3c0.4,0,0.7,0.2,0.9,0.5
	c0.2,0.8,0.2,1.7,0.2,2.5v11.4c0,0.9,0,1.9-0.2,2.8c-0.1,0.2-0.4,0.4-0.9,0.5c-0.4,0.1-0.8,0.2-1.2,0.2c-0.1,0-0.1,0.1-0.1,0.5
	c0,0.3,0,0.5,0.1,0.6l0.6-0.1c0.4,0,1-0.1,1.6-0.1s1.3-0.1,1.8-0.1s2.1,0.1,4.4,0.2c0.1-0.2,0.1-0.3,0.1-0.5c0-0.3-0.1-0.5-0.1-0.5
	c-0.5,0-0.9-0.1-1.3-0.2c-0.6-0.1-1-0.3-1.1-0.6c-0.2-0.9-0.2-1.7-0.2-2.6v-4.3c0-0.4,0.1-0.5,0.5-0.5c0.2,0,0.5,0,0.7,0.1
	c0.2,0.1,0.4,0.2,0.5,0.4c0.1,0.1,0.4,0.4,0.6,0.7s0.5,0.6,0.6,0.9s0.5,0.7,0.8,1.3c0.3,0.5,0.6,1,1,1.4c0.4,0.6,0.8,1.2,1.3,1.7
	c0.5,0.5,1,1,1.6,1.4c0.6,0.5,1.4,0.9,2.2,1c0.9,0.2,1.9,0.3,2.8,0.4c0.3,0,0.6,0,0.9-0.1c0.1-0.2,0.1-0.4,0.1-0.6
	c0-0.2-0.1-0.3-0.1-0.5c-0.8,0-1.6-0.4-2.2-0.9c-0.9-0.7-1.6-1.4-2.3-2.2c-1.3-1.6-2.4-3.4-3.4-5.2c-0.1-0.1-0.1-0.2,0.1-0.3
	c1-0.4,1.9-1.2,2.6-2.1c0.7-0.9,1.1-2,1.1-3.1c0-0.7-0.1-1.5-0.5-2.1c-0.3-0.6-0.7-1.1-1.2-1.5c-0.5-0.4-1.1-0.7-1.7-1
	c-0.6-0.3-1.2-0.4-1.8-0.6c-0.6-0.1-1.1-0.2-1.7-0.1C201.4,122.3,200.8,122.3,200.1,122.4 M215.2,129.2c0.2,0.4,0.4,0.9,0.6,1.3
	c0.3,0.4,0.7,0.8,1.1,1.1c0.4,0.3,0.8,0.6,1.2,0.9c0.3,0.2,0.8,0.5,1.3,0.9c0.1,0.1,0.3,0.2,0.4,0.2c0.3,0.2,0.6,0.3,0.9,0.6
	c0.4,0.3,0.8,0.4,1,0.6s0.5,0.3,0.8,0.6c0.3,0.2,0.5,0.4,0.8,0.7c0.2,0.3,0.4,0.5,0.5,0.8c0.1,0.3,0.2,0.7,0.2,1
	c0.1,0.9-0.3,1.9-0.9,2.5c-0.7,0.6-1.5,0.9-2.4,0.9c-0.7,0-1.4-0.2-2-0.5c-0.6-0.3-1.1-0.7-1.4-1.2c-0.3-0.4-0.6-0.9-0.8-1.4
	c-0.2-0.4-0.3-0.8-0.4-1.2c-0.1-0.1-0.4-0.2-0.9-0.2c-0.3,0-0.5,0.1-0.5,0.2c0,0.4,0.1,1,0.2,2.2c0.1,1.2,0.4,2,0.5,2.7
	c1.8,0.5,3.7,0.7,5.6,0.8c1.7,0,3.3-0.6,4.5-1.6c1.3-0.9,2-2.4,2-4c0-0.5-0.1-1.1-0.2-1.6c-0.1-0.4-0.3-0.9-0.6-1.3
	c-0.2-0.4-0.5-0.8-0.9-1c-0.4-0.4-0.8-0.6-1-0.8c-0.4-0.3-0.8-0.5-1.2-0.7c-0.6-0.3-0.9-0.6-1.1-0.6c-0.1-0.1-0.4-0.2-0.8-0.5
	s-0.8-0.5-0.9-0.6c-0.1-0.1-0.4-0.3-0.8-0.6s-0.6-0.5-0.8-0.6s-0.3-0.4-0.5-0.6c-0.2-0.2-0.3-0.5-0.4-0.8c-0.1-0.3-0.1-0.6-0.1-0.8
	c0-0.8,0.2-1.5,0.8-2.1c0.6-0.6,1.4-0.9,2.2-0.8c1.1,0,2.1,0.5,2.7,1.3c0.7,0.8,1.2,1.7,1.3,2.7c0.1,0.2,0.4,0.3,0.9,0.3
	c0.2,0,0.4-0.1,0.4-0.3c0-1.6-0.1-3.1-0.4-4.7c-0.3-0.1-0.8-0.2-1.5-0.3c-0.6-0.2-1.2-0.3-1.8-0.3c-0.5-0.1-1-0.1-1.5-0.1
	c-1.6,0-3.1,0.5-4.3,1.6c-1.2,0.9-1.9,2.3-1.9,3.9C215,128.1,215,128.6,215.2,129.2 M231,138.4c0,0.8-0.1,1.7-0.2,2.5
	c-0.1,0.1-0.4,0.3-0.8,0.5c-0.4,0.1-0.7,0.2-1.1,0.2c-0.1,0-0.1,0.2-0.1,0.6c0,0.2,0,0.3,0.1,0.4c0.4,0,0.8-0.1,1.3-0.1
	s1-0.1,1.5-0.1h1.3l3.9,0.2c0.1-0.1,0.1-0.3,0.1-0.4c0-0.3-0.1-0.6-0.1-0.6c-0.4,0-0.7-0.1-1.1-0.2c-0.5-0.1-0.8-0.3-0.8-0.4
	c-0.2-0.9-0.3-1.8-0.3-2.7v-11.6c0-0.9,0-1.8,0.2-2.7c0.1-0.2,0.4-0.3,0.9-0.5c0.4-0.1,0.7-0.2,1.1-0.2c0.1,0,0.1-0.1,0.1-0.5
	c0-0.2,0-0.3-0.1-0.5c-2.5,0.1-3.7,0.2-3.9,0.2c-0.6,0-1.3,0-2.4-0.1s-1.6-0.1-1.7-0.1s-0.1,0.2-0.1,0.6c0,0.3,0.1,0.5,0.1,0.5
	c0.4,0,0.8,0.1,1.1,0.2c0.5,0.1,0.8,0.3,0.8,0.5c0.2,0.8,0.2,1.7,0.2,2.6V138.4z M240.9,122.3c-0.7,0-1.4-0.1-2.1-0.3l-0.6,4.6
	c0.2,0.2,0.5,0.2,0.8,0.2c0.2,0,0.3-0.1,0.3-0.2c0.2-0.8,0.6-1.6,1.1-2.2c0.6-0.4,1.4-0.7,2.2-0.6c1.8,0,2.7,0.1,2.9,0.5
	c0.3,1,0.4,2,0.3,2.9v11c0,0.8,0,1.7-0.2,2.5c-0.1,0.1-0.4,0.3-0.8,0.5c-0.4,0.1-0.7,0.2-1.1,0.2c-0.1,0-0.1,0.2-0.1,0.6
	c0,0.2,0,0.3,0.1,0.5c0.2,0,0.9-0.1,1.8-0.1c0.9-0.1,1.8-0.1,2.2-0.1h1.3c0.4,0,0.9,0.1,1.4,0.1s0.9,0.1,1.2,0.1
	c0.1-0.2,0.1-0.3,0.1-0.5c0-0.3-0.1-0.6-0.1-0.6c-0.3,0-0.7-0.1-1-0.2c-0.6-0.1-0.8-0.3-0.8-0.4c-0.2-0.9-0.3-1.8-0.3-2.7v-10.9
	c0-1,0-1.9,0.3-2.9c0.1-0.3,1-0.5,2.9-0.5c0.8-0.1,1.5,0.1,2.2,0.6c0.6,0.6,0.9,1.4,1.1,2.2c0.1,0.1,0.2,0.1,0.3,0.1
	c0.3,0,0.6,0,0.8-0.2l-0.5-4.6c-0.7,0.2-1.4,0.3-2.1,0.3c-0.8,0-2,0.1-3.3,0.1s-2.5,0.1-3.4,0.1s-2,0-3.4-0.1
	S241.7,122.3,240.9,122.3 M265.7,133.1c0.1,0.2,0.2,0.4,0.2,0.6v4.5c0,0.9,0,1.8-0.2,2.7c-0.2,0.3-0.5,0.4-0.8,0.5
	c-0.4,0.1-0.7,0.2-1.1,0.2c-0.1,0-0.1,0.1-0.1,0.5c0,0.2,0,0.3,0.1,0.5c0.2,0,0.8-0.1,1.8-0.1c0.9-0.1,1.7-0.1,2.2-0.1h1.2
	c0.4,0,0.9,0.1,1.4,0.1s0.9,0.1,1.1,0.1c0.1-0.2,0.1-0.3,0.1-0.5c0-0.3-0.1-0.5-0.1-0.5c-0.4,0-0.7-0.1-1.1-0.3
	c-0.3-0.1-0.6-0.2-0.9-0.5c-0.2-0.9-0.2-1.8-0.2-2.7v-4.8c0.6-1.4,1.4-2.8,2.3-4.1c1.5-2.5,2.6-4.1,3.2-5c0.3-0.4,0.7-0.6,1.2-0.7
	c0.4-0.2,0.8-0.3,1.3-0.3c0.1,0,0.1-0.1,0.1-0.5c0-0.2,0-0.3-0.1-0.5c-0.2,0-0.6,0.1-0.9,0.1c-0.4,0-0.8,0.1-1.1,0.1h-1.3
	c-0.4,0-1.6-0.1-3.6-0.2c-0.1,0.1-0.1,0.3-0.1,0.6s0.1,0.4,0.1,0.4c0.5,0,1,0.1,1.5,0.3c0.3,0.1,0.6,0.3,0.6,0.6
	c-0.2,0.9-0.6,1.8-1.2,2.6c-0.8,1.4-1.7,2.7-2.5,4c0,0.1-0.1,0.1-0.2,0.1c0,0,0,0-0.1,0L265,125c-0.2-0.2-0.3-0.5-0.3-0.8
	c0-0.3,0.2-0.5,0.6-0.6c0.4-0.1,0.7-0.2,1.1-0.2c0.1,0,0.1-0.1,0.1-0.4c0.1-0.3,0-0.5-0.1-0.6c-2.5,0.1-3.9,0.2-4.2,0.2
	c-2.2,0-3.5,0-4,0.1c-0.1,0.1-0.1,0.2-0.1,0.4s0.1,0.3,0.1,0.3c0.3,0,0.6,0.1,0.8,0.1c0.3,0.1,0.6,0.2,0.9,0.4
	c0.7,0.6,1.2,1.3,1.6,2.1 M297.6,125.1c1,1,1.7,2.2,2.1,3.5c0.4,1.4,0.7,2.9,0.7,4.4c0.1,2-0.4,4-1.4,5.8c-0.7,1.5-2.3,2.5-4,2.5
	c-1.3,0-2.6-0.5-3.6-1.5c-1-1-1.7-2.2-2.1-3.6c-0.4-1.4-0.6-2.9-0.6-4.3c-0.1-2,0.4-4,1.4-5.8c0.8-1.5,2.3-2.4,4-2.4
	C295.4,123.6,296.7,124.1,297.6,125.1 M294.4,142.8c2.6,0,5.1-1,6.9-3c1.9-2,2.9-4.6,2.9-7.3c0-2.7-1-5.3-2.9-7.3
	c-3.5-3.8-9.4-4-13.2-0.6c-0.2,0.2-0.4,0.4-0.6,0.6c-1.9,2-2.9,4.6-2.9,7.3c0,2.7,1,5.3,2.9,7.3
	C289.3,141.7,291.8,142.8,294.4,142.8 M313.9,142.6c0.1-0.1,0.1-0.2,0.1-0.5s-0.1-0.5-0.1-0.5c-0.5,0-0.9-0.1-1.3-0.3
	c-0.6-0.2-1-0.4-1.1-0.6c-0.3-0.8-0.4-1.7-0.4-2.5v-4.8c0-0.1,0.7-0.2,2.2-0.2c0.9-0.1,1.9,0,2.8,0.2c0.1,0.1,0.2,0.1,0.3,0.2
	l0.2,0.4c0.1,0.4,0.3,0.8,0.4,1.2c0.1,0.1,0.2,0.2,0.5,0.2c0.2,0,0.4,0,0.6-0.1v-5.8c-0.2-0.1-0.4-0.2-0.6-0.1
	c-0.3,0-0.5,0.1-0.5,0.2s-0.1,0.5-0.2,0.8c-0.1,0.6-0.3,1-0.5,1.1c-0.7,0.1-1.4,0.2-2.1,0.1h-1.7c-0.9,0-1.3-0.1-1.3-0.2v-4.8
	c0-0.8,0-1.6,0.1-2.4c0.1-0.3,0.8-0.4,2.3-0.4h1.6c1.8-0.1,3.4,1,3.9,2.7c0.1,0.1,0.3,0.2,0.4,0.2c0.2,0,0.4,0,0.6-0.1
	c0-0.1-0.1-0.7-0.4-1.8c-0.3-1-0.4-2-0.5-2.5c-1,0-2.7,0.1-5,0.1s-3.9,0.1-4.8,0.1c-1.3,0-2.7-0.1-4-0.1c-0.1,0.2-0.2,0.4-0.1,0.6
	c0,0.3,0.1,0.5,0.1,0.5c0.4,0,0.8,0.1,1.2,0.2c0.5,0.1,0.8,0.3,0.8,0.6c0.2,0.8,0.3,1.7,0.2,2.5v11.4c0,0.9,0,1.9-0.2,2.8
	c-0.1,0.2-0.4,0.4-0.9,0.5c-0.4,0.1-0.7,0.2-1.1,0.2c-0.1,0-0.1,0.1-0.1,0.5c0,0.3,0,0.4,0.1,0.5h0.6c0.4-0.1,0.9-0.1,1.6-0.1
	c0.7-0.1,1.3-0.1,2-0.1C311,142.4,312.4,142.4,313.9,142.6"/>
</svg>
